<svg width="65" height="65" viewBox="0 0 65 65" fill="none" xmlns="http://www.w3.org/2000/svg">
<path d="M46.2738 20.2834C47.7784 18.8361 49.6529 17.8231 51.6954 17.3537C52.5456 17.1491 53.2941 16.6509 53.8066 15.9489C54.3196 15.2468 54.5631 14.3864 54.4936 13.5226C54.4242 12.6585 54.0461 11.8472 53.4277 11.2345C52.8093 10.6218 51.9907 10.2471 51.1186 10.1783C50.247 10.1094 49.3786 10.3508 48.6701 10.8591C47.9617 11.3669 47.4588 12.1085 47.2524 12.9511C46.7786 14.9754 45.7559 16.8329 44.2954 18.3241C44.5224 18.5182 44.7466 18.7163 44.9647 18.9212C45.4247 19.3539 45.8613 19.8078 46.2737 20.2832L46.2738 20.2834Z" fill="#1F3F37"/>
<path d="M35.6794 38.5245C35.5982 38.4977 35.5134 38.4841 35.4281 38.4845C35.2125 38.4925 35.0028 38.5598 34.8239 38.6794C34.4483 38.9372 34.1696 39.3114 34.0323 39.7432C33.741 40.6037 34.0032 41.4999 34.605 41.7C35.2068 41.9001 35.9613 41.3418 36.253 40.4813C36.5438 39.6204 36.2812 38.7246 35.6794 38.5245Z" fill="#1F3F37"/>
<path d="M12.937 14.1597C15.3838 15.2071 17.4659 16.7904 18.9886 18.7552V18.7548C19.6587 18.1412 20.372 17.5757 21.1233 17.0626C19.5259 15.1591 18.4264 12.7973 17.9332 10.201L17.9336 10.2014C17.6969 8.96555 16.8244 7.94291 15.6342 7.50623C14.4435 7.06958 13.1094 7.2825 12.1178 8.06816C11.3694 8.6625 10.8891 9.52737 10.7825 10.4724C10.6763 11.4169 10.9526 12.3651 11.5508 13.1086C11.9179 13.5669 12.3946 13.9284 12.937 14.1597Z" fill="#1F3F37"/>
<path d="M36.4667 55.1503C35.5349 54.0113 34.917 52.6529 34.6726 51.2069C34.1459 51.283 33.6144 51.3374 33.0779 51.3698C33.1434 52.8362 32.8243 54.2943 32.1522 55.6026C31.878 56.1501 31.8117 56.7769 31.9652 57.3688C32.1187 57.9607 32.4818 58.4786 32.9887 58.8272C33.4952 59.1758 34.1115 59.3319 34.7251 59.2678C35.3386 59.2034 35.908 58.9228 36.3298 58.477C36.7519 58.0307 36.9979 57.4496 37.0229 56.8388C37.0479 56.2281 36.8508 55.6289 36.4671 55.1503L36.4667 55.1503Z" fill="#1F3F37"/>
<path d="M30.6662 30.2537C29.9566 29.5505 29.0788 29.1094 28.1948 29.0122C28.0781 28.999 27.9609 28.9926 27.8438 28.9926C27.181 28.9926 26.6022 29.2099 26.1882 29.6201C25.7031 30.1008 25.485 30.8072 25.575 31.6084C25.6732 32.4845 26.1179 33.3542 26.8279 34.0574C27.538 34.7606 28.4153 35.2017 29.2994 35.2989C30.1088 35.3882 30.8209 35.172 31.3059 34.6913C31.791 34.2107 32.0087 33.5043 31.9191 32.703C31.8205 31.8265 31.3759 30.9568 30.6662 30.2537Z" fill="#1F3F37"/>
<path d="M39.1944 31.5784C39.1427 31.5728 39.091 31.57 39.0389 31.57C38.788 31.5596 38.5433 31.6489 38.3587 31.8174C38.097 32.0763 38.0954 32.4473 38.1176 32.6455C38.183 33.0937 38.3967 33.5075 38.7259 33.8221C39.3737 34.4641 40.3003 34.6306 40.7485 34.1855C41.1969 33.7408 41.0292 32.8227 40.3818 32.1808V32.1812C40.0643 31.855 39.6467 31.6433 39.1944 31.5784Z" fill="#1F3F37"/>
<path d="M58.3987 27.1145C58.2743 26.2456 57.7073 25.5008 56.8978 25.1438C56.0883 24.7868 55.1506 24.8672 54.4154 25.3575C51.9673 26.9952 49.3876 28.0343 46.7486 28.4469L45.9937 28.5649L45.7118 26.7939L46.4671 26.6759C46.9481 26.6006 47.4267 26.501 47.9034 26.3793L47.903 26.3789C46.9889 24.0672 45.5769 21.9807 43.7654 20.2654C41.9535 18.55 39.7862 17.2468 37.414 16.4471C36.9131 18.4575 36.6518 20.5187 36.6344 22.5894L36.6296 23.1514L34.8201 23.1358L34.825 22.5738C34.8617 18.4887 35.7749 14.49 37.4644 11.0103C37.8942 10.1226 37.8695 9.08482 37.3978 8.21833C36.9264 7.35183 36.0649 6.76106 35.0802 6.6294C34.0955 6.49732 33.1067 6.84032 32.4201 7.55192C31.7334 8.26353 31.4317 9.25735 31.6082 10.2263C32.3736 14.4036 32.3122 18.4218 31.4257 22.1689L31.296 22.7164L29.5354 22.3074L29.6651 21.7599C30.1352 19.7464 30.3586 17.684 30.3295 15.6172C27.3657 15.8829 24.5226 16.9071 22.0782 18.5889C19.6337 20.2706 17.6724 22.5531 16.386 25.2123C16.8787 25.3736 17.3828 25.5161 17.8973 25.6362L18.5395 25.7859L18.1243 27.5308L17.4821 27.3811C14.6459 26.7196 12.0702 25.4676 10.0334 23.7615H10.0338C9.36735 23.2052 8.46223 23.0211 7.62894 23.2724C6.79569 23.5233 6.14702 24.1757 5.90631 25.0054C5.66559 25.8347 5.86511 26.7288 6.43663 27.3804C7.00775 28.032 7.87336 28.3525 8.73602 28.2321C11.2858 27.8711 14.0364 28.176 16.6901 29.1122L17.5621 29.42L16.955 31.1089L16.083 30.8011C15.669 30.655 15.2534 30.5266 14.8361 30.4153L14.8357 30.4157C14.744 31.1333 14.698 31.8562 14.6976 32.5793C14.6899 35.77 15.5935 38.8973 17.304 41.6005L20.9456 37.0903L22.3584 38.2101L16.869 45.01C15.3802 46.8543 13.2047 48.0694 10.7442 48.4324C9.7151 48.5816 8.77036 49.0811 8.07241 49.8452C7.3147 50.676 6.89625 51.7575 6.89946 52.8777C6.90228 53.9976 7.32678 55.0766 8.08937 55.9035C8.86891 56.7411 9.94124 57.2535 11.0884 57.3358C12.2355 57.4179 13.3712 57.0645 14.2642 56.3469C15.1577 55.6289 15.7417 54.6011 15.8976 53.472C16.2272 51.0906 17.4732 48.9277 19.3753 47.4357L26.2048 42.0218L27.335 43.4218L22.7834 47.0303V47.0307C25.6002 48.7717 28.8649 49.6678 32.1842 49.611C35.5035 49.5542 38.735 48.5468 41.4893 46.7105C41.3483 46.578 41.2057 46.448 41.0611 46.3195L40.3321 45.6731L41.5385 44.3367L42.2676 44.9831C44.8602 47.2817 46.9189 50.1909 48.3867 53.6301V53.6305C48.8549 54.7231 49.8383 55.5153 51.0129 55.7465C52.1878 55.9778 53.4019 55.618 54.2558 54.7855C55.1096 53.9535 55.4925 52.7564 55.2788 51.5885C55.0648 50.421 54.2816 49.4337 53.1871 48.9519C49.5762 47.3673 46.5259 45.2129 44.1195 42.5478L43.7532 42.1419L45.1018 40.946L45.4681 41.3519C45.6915 41.5992 45.9225 41.8405 46.158 42.0787V42.0791C48.0717 39.2747 49.0892 35.9643 49.0778 32.5792C49.0778 32.2886 49.0689 31.9965 49.054 31.7039C48.5446 31.7956 48.0349 31.91 47.5256 32.0473L46.8895 32.2206L46.4113 30.4912L47.0474 30.3187C49.8578 29.5559 52.7238 29.4346 55.3359 29.9677H55.3363C56.155 30.1338 57.0044 29.8953 57.6134 29.3281C58.2225 28.7606 58.5153 27.9357 58.3986 27.1156L58.3987 27.1145ZM21.0314 34.3719H19.2219V32.5788H21.0314V34.3719ZM40.9357 23.6137H42.7452V25.4067H40.9357V23.6137ZM33.6978 26.3032H35.5073V28.0963H33.6978V26.3032ZM22.8409 22.7172H24.6504V24.5102H22.8409V22.7172ZM29.0993 37.0809C27.8085 36.9388 26.547 36.3152 25.5482 35.3254C24.5493 34.3353 23.9197 33.0858 23.7763 31.8066C23.6248 30.453 24.0267 29.2259 24.9084 28.3522C25.7901 27.4785 27.0285 27.0803 28.3945 27.2304C29.6853 27.3725 30.9468 27.996 31.9456 28.9862C32.9444 29.9764 33.5741 31.2259 33.7171 32.5051C33.869 33.8586 33.4667 35.0858 32.585 35.9595C31.8253 36.7123 30.801 37.1121 29.6579 37.1121L29.6583 37.1117C29.4713 37.1117 29.2851 37.1013 29.0993 37.0809ZM32.793 46.923H30.9836V45.1299H32.793V46.923ZM37.9687 41.0508C37.4606 42.5509 36.1632 43.5311 34.8473 43.5311C34.569 43.5315 34.2931 43.487 34.0294 43.3994C32.4711 42.8815 31.7029 40.9852 32.3165 39.1725C32.5834 38.3537 33.1218 37.6489 33.8448 37.1722C34.5528 36.6984 35.4407 36.5703 36.2556 36.8248C37.8134 37.3427 38.5821 39.2387 37.9686 41.0509L37.9687 41.0508ZM42.0279 35.4536C41.5061 35.9583 40.8021 36.2349 40.073 36.2209C39.0811 36.2013 38.1371 35.795 37.4461 35.0902C36.8249 34.4891 36.4279 33.697 36.3193 32.8433C36.19 32.0024 36.4723 31.1511 37.079 30.5496C37.6861 29.9484 38.5456 29.6686 39.3938 29.7967C40.2553 29.9044 41.0546 30.2978 41.6613 30.9133C43.0257 32.2657 43.1901 34.3025 42.0281 35.4539L42.0279 35.4536ZM45.4595 37.9578H43.65V36.1648H45.4595V37.9578Z" fill="#1F3F37"/>
</svg>
