<svg width="60" height="60" viewBox="0 0 60 60" fill="none" xmlns="http://www.w3.org/2000/svg">
<path fill-rule="evenodd" clip-rule="evenodd" d="M31.1563 38.0451H32.4302V35.3543H44.1061V38.0451H45.3795V52.4281H45.9496C47.649 52.4281 47.649 55 45.9496 55H17.6993C15.9976 55 15.9976 52.4281 17.6993 52.4281H31.1572V45.4452H34.506C38.0323 45.4452 38.0334 40.1127 34.506 40.1127H31.1572L31.1563 38.0451ZM21.4513 18.3032H27.0605C27.7566 16.3449 29.626 14.9432 31.8237 14.9432C34.6156 14.9432 36.8783 17.2059 36.8783 19.9978C36.8783 22.7889 34.6156 25.0524 31.8237 25.0524C29.6267 25.0524 27.7572 23.6507 27.0605 21.6924H21.4513C20.3234 21.6924 19.3892 22.6269 19.3892 23.7544V39.0228C19.3892 40.1496 20.3234 41.0842 21.4513 41.0842H34.5048C36.747 41.0842 36.747 44.4737 34.5048 44.4737H21.4513C18.4547 44.4737 16 42.021 16 39.0227V23.7544C16 20.7561 18.453 18.3032 21.4513 18.3032ZM31.8236 17.8357C33.0171 17.8357 33.9853 18.8039 33.9853 19.9981C33.9853 21.1924 33.0171 22.1592 31.8236 22.1592C30.6293 22.1592 29.6612 21.1919 29.6612 19.9981C29.6612 18.8039 30.6293 17.8357 31.8236 17.8357ZM32.3351 28.0718L42.3945 25.377L38.2744 10L28.2151 12.6949L28.8445 15.0431C29.7157 14.5174 30.7348 14.215 31.8239 14.215C35.0179 14.215 37.6073 16.8044 37.6073 19.9984C37.6073 23.1923 35.0179 25.7817 31.8239 25.7817L31.7212 25.7807L32.3351 28.0718ZM31.8236 18.5651C31.0281 18.5651 30.3899 19.2033 30.3899 19.9987C30.3899 20.7942 31.0284 21.4317 31.8236 21.4317C32.6184 21.4317 33.2565 20.7935 33.2565 19.9987C33.2565 19.2057 32.6167 18.5651 31.8236 18.5651ZM36.7262 28.9521L37.2041 30.7357L35.7968 31.1125L35.3182 29.3293L34.3379 29.5923L33.9604 28.1839L41.0417 26.2872L41.4185 27.6946L40.4379 27.9576L40.9164 29.7408L39.5084 30.1183L39.0305 28.3347L36.7262 28.9521ZM33.8869 38.0458H42.647V36.8126H33.8869V38.0458Z" fill="#07332F"/>
</svg>
