<svg width="65" height="65" viewBox="0 0 65 65" fill="none" xmlns="http://www.w3.org/2000/svg">
<path fill-rule="evenodd" clip-rule="evenodd" d="M10.7062 40.9868L7.69665 33.8832C6.86186 31.9131 5.98263 31.046 5.21701 30.8641C4.65569 30.7312 4.15769 31.0204 3.80429 31.4403C3.26183 32.0847 3.00363 33.061 3.27845 33.8966C4.59334 37.8887 5.92064 41.8786 7.22288 45.8752C7.76085 47.5263 8.43845 49.6077 9.72678 50.4928L14.9367 54.0732C15.5496 54.4944 16.0373 55.0243 16.3763 55.6852L24.9958 55.6857C24.6509 54.299 24.311 52.9114 23.9841 51.522C23.6289 50.0114 23.3056 48.8088 22.6041 47.9053C21.9095 47.0108 20.7823 46.3228 18.7759 45.7723C18.6709 45.7435 18.5752 45.6973 18.4921 45.6367L13.8637 42.3128C13.1075 41.7694 12.0343 41.9468 11.4913 42.703C10.948 43.4592 11.1253 44.5324 11.8815 45.0754L18.0322 49.4941C18.4278 49.7793 18.5186 50.3312 18.2334 50.7273C17.9483 51.1229 17.3964 51.2136 17.0003 50.9285L10.8496 46.5097C9.29763 45.3952 8.94287 43.2231 10.0574 41.6716C10.246 41.4085 10.4647 41.1794 10.7059 40.9873L10.7062 40.9868ZM39.6997 14.2326C41.5664 14.2326 43.0793 15.7459 43.0793 17.6122C43.0793 19.4788 41.566 20.9917 39.6997 20.9917C37.8331 20.9917 36.3202 19.4784 36.3202 17.6122C36.3193 15.7459 37.8326 14.2326 39.6997 14.2326ZM6.12402 18.4995C5.63456 18.4995 5.2376 18.1026 5.2376 17.6131C5.2376 17.1236 5.63456 16.7267 6.12402 16.7267H9.12638C9.42949 16.7267 9.69758 16.8789 9.85744 17.1115L15.0423 24.0507L20.0842 17.0939C20.2512 16.864 20.5166 16.727 20.8009 16.727H23.6007L26.2897 11.7928C26.6502 11.1305 27.6135 11.2046 27.8865 11.8862L31.1615 20.0424L32.695 17.1945C32.849 16.9076 33.1481 16.7271 33.4741 16.7271H34.6228C34.5217 17.3126 34.5217 17.9148 34.6228 18.4999H34.0017L31.8239 22.5437C31.4745 23.1935 30.5054 23.1566 30.2239 22.4539L26.9436 14.2843L24.9363 17.9679C24.7993 18.2809 24.4868 18.4996 24.1235 18.4996H21.2514L15.79 26.0338C15.4545 26.5394 14.7109 26.569 14.3413 26.0742L8.68146 18.5L6.12402 18.4995ZM33.5311 6.96466C35.5455 3.8639 37.7751 2.31335 41.743 2.31335C46.7437 2.31335 50.8027 5.93498 50.8027 10.3972C50.8027 18.2808 42.1863 26.1648 33.3567 34.0474C32.971 34.3914 32.3957 34.3914 32.01 34.0474C27.7782 30.2687 23.5956 26.4908 20.3878 22.712L22.1561 20.2718H24.1234C25.1495 20.2718 26.0791 19.6822 26.5201 18.7657L26.6997 18.4356L28.5781 23.113C29.4156 25.1993 32.3201 25.3601 33.3847 23.3833L35.0606 20.2719H35.2851C36.1872 21.7659 37.8267 22.7651 39.6997 22.7651C42.5458 22.7651 44.853 20.4574 44.853 17.6118C44.8535 14.7656 42.5458 12.4589 39.7002 12.4589C37.8271 12.4589 36.1876 13.458 35.2855 14.9521H33.4745C32.6698 14.9521 31.9185 15.3167 31.4196 15.9257L29.5318 11.2241C28.6975 9.14728 25.8046 8.97565 24.7323 10.943L22.5476 14.9526H20.8009C19.9477 14.9526 19.1483 15.3622 18.6481 16.0523L17.0836 18.2109C15.5056 15.6064 14.5649 13.0019 14.5649 10.3973C14.5649 5.93514 18.6234 2.31352 23.6246 2.31352C27.5925 2.31352 29.8219 3.86407 31.8365 6.96528C32.2339 7.57644 33.1338 7.57644 33.5316 6.96438L33.5311 6.96466ZM51.891 58.7037L51.8883 61.8641C51.8879 62.5494 51.3283 63.1089 50.6431 63.1089C46.3583 63.1089 42.0729 63.1093 37.7874 63.1093C37.0945 63.1093 36.5408 62.5557 36.5412 61.8627L36.5444 58.7023C36.5448 58.0171 37.1043 57.4575 37.7896 57.4575C42.0744 57.4575 46.3598 57.4571 50.6453 57.4571C51.3382 57.4562 51.8915 58.0103 51.891 58.7037ZM13.4756 58.7037L13.4783 61.8641C13.4787 62.5494 14.0382 63.1089 14.7235 63.1089C19.0083 63.1089 23.2937 63.1093 27.5792 63.1093C28.2721 63.1093 28.8258 62.5557 28.8254 61.8627L28.8222 58.7023C28.8218 58.0171 28.2622 57.4575 27.577 57.4575C23.2922 57.4575 19.0068 57.4571 14.7213 57.4571C14.0284 57.4562 13.4751 58.0103 13.4756 58.7037ZM57.6688 33.8832L54.6601 40.9868C54.9017 41.1799 55.1208 41.408 55.3094 41.6707C56.424 43.2217 56.0692 45.3943 54.5173 46.5088L48.3666 50.9275C47.971 51.2127 47.4182 51.1229 47.1335 50.7263C46.8483 50.3307 46.9381 49.7779 47.3346 49.4932L53.4853 45.0744C54.2415 44.5311 54.4189 43.4592 53.8756 42.7021C53.3322 41.9459 52.2603 41.7685 51.5032 42.3118L46.8748 45.6367C46.7908 45.6964 46.6956 45.7431 46.5905 45.7714C44.5841 46.3219 43.457 47.0107 42.7623 47.9044C42.0609 48.807 41.7384 50.01 41.3823 51.5211C41.055 52.91 40.715 54.2971 40.3706 55.6847L48.9901 55.6843C49.3274 55.026 49.8191 54.4921 50.4271 54.0744L55.6388 50.4923C56.9272 49.6073 57.6048 47.5254 58.1427 45.8747C59.4445 41.8786 60.7719 37.8887 62.0872 33.8961C62.362 33.0613 62.1038 32.0842 61.5613 31.4398C61.2079 31.02 60.709 30.7312 60.1486 30.8637C59.3825 31.0456 58.5033 31.9122 57.6685 33.8827L57.6688 33.8832Z" fill="#1F3F37"/>
</svg>
