<svg width="45" height="44" viewBox="0 0 45 44" fill="none" xmlns="http://www.w3.org/2000/svg">
<path d="M13.1856 9.65082H22.3781C22.6828 9.65056 22.975 9.52924 23.1901 9.31379C23.4056 9.0986 23.5269 8.80646 23.5272 8.50177V5.05457C23.5269 4.74986 23.4056 4.45773 23.1901 4.24254C22.975 4.0271 22.6828 3.90577 22.3781 3.90552H20.2313C20.1015 3.90552 19.9756 3.94938 19.874 4.03017C19.2811 4.50723 18.5429 4.76734 17.7819 4.76734C17.0209 4.76734 16.2827 4.50727 15.6897 4.03017C15.5882 3.94937 15.4622 3.90552 15.3325 3.90552H13.1857C12.881 3.90577 12.5888 4.0271 12.3736 4.24254C12.1582 4.45773 12.0369 4.74988 12.0366 5.05457V8.50177C12.0369 8.80647 12.1582 9.09861 12.3736 9.31379C12.5888 9.52924 12.881 9.65056 13.1857 9.65082H13.1856ZM13.1856 5.05456H15.1393C15.9059 5.61575 16.8318 5.91767 17.7819 5.91636C18.7319 5.91764 19.6578 5.61575 20.4244 5.05456H22.3781V8.50175H13.1856V5.05456Z" fill="#07332F"/>
<path d="M30.1343 22.8651C27.7725 22.8651 25.5075 23.8033 23.8373 25.4733C22.1672 27.1436 21.229 29.4086 21.229 31.7703C21.229 34.132 22.1672 36.3971 23.8373 38.0673C25.5075 39.7373 27.7726 40.6756 30.1343 40.6756C32.496 40.6756 34.7611 39.7373 36.4313 38.0673C38.1013 36.397 39.0395 34.132 39.0395 31.7703C39.037 29.4093 38.0977 27.1458 36.4282 25.4764C34.7587 23.807 32.4952 22.8677 30.1343 22.8651ZM34.7572 28.6707L29.5205 35.565C29.326 35.8149 28.9675 35.8633 28.7138 35.6741C28.7125 35.673 25.3325 33.0887 25.3325 33.0887C25.0814 32.8955 25.0337 32.5357 25.2261 32.2838C25.4187 32.0322 25.7786 31.9837 26.0307 32.1758L28.9541 34.4111L33.842 27.9755C34.0341 27.7229 34.3945 27.6737 34.6471 27.8655C34.8998 28.0576 34.949 28.418 34.7572 28.6707Z" fill="#07332F"/>
<path d="M10.313 12.8104H16.0583V20.2794H10.313V12.8104Z" fill="#07332F"/>
<path d="M10.8876 6.2036H7.44041C6.98336 6.20411 6.54526 6.38596 6.22208 6.70888C5.89916 7.03205 5.71731 7.47015 5.7168 7.92722V38.952C5.71731 39.409 5.89916 39.8471 6.22208 40.1703C6.54525 40.4932 6.98335 40.6751 7.44041 40.6756H25.4748C24.0449 39.9233 22.8158 38.8399 21.8904 37.5157H9.45095C9.13368 37.5157 8.87642 37.2584 8.87642 36.9411C8.87642 36.6239 9.13368 36.3666 9.45095 36.3666H21.1964C20.865 35.7264 20.6041 35.0521 20.4182 34.3557H9.45082C9.13355 34.3557 8.87629 34.0985 8.87629 33.7812C8.87629 33.4639 9.13355 33.2067 9.45082 33.2067H20.1837C20.115 32.7309 20.0801 32.251 20.0796 31.7703C20.0796 31.5775 20.0863 31.3861 20.0971 31.1958H9.4508C9.13353 31.1958 8.87627 30.9386 8.87627 30.6213C8.87627 30.304 9.13353 30.0467 9.4508 30.0467H20.2303C20.3499 29.3584 20.5412 28.6843 20.8015 28.0359H9.45075C9.13347 28.0359 8.87622 27.7786 8.87622 27.4613C8.87622 27.1441 9.13347 26.8868 9.45075 26.8868H21.3498C21.7569 26.1581 22.2527 25.4825 22.8261 24.876H9.45101C9.13374 24.876 8.87648 24.6187 8.87648 24.3014C8.87648 23.9841 9.13374 23.7269 9.45101 23.7269H24.1085C25.7672 22.4799 27.7727 21.7796 29.8469 21.7232V7.92717C29.8464 7.47011 29.6646 7.03202 29.3416 6.70883C29.0185 6.38591 28.5804 6.20406 28.1233 6.20355H24.6761V8.50168C24.6753 9.1111 24.433 9.69514 24.0023 10.126C23.5714 10.5566 22.9874 10.799 22.378 10.7998H13.1855C12.576 10.799 11.992 10.5567 11.5611 10.126C11.1305 9.6951 10.8881 9.11108 10.8873 8.50168L10.8876 6.2036ZM19.7925 13.098H26.1124C26.4297 13.098 26.6869 13.3553 26.6869 13.6725C26.6869 13.9898 26.4297 14.2471 26.1124 14.2471H19.7925C19.4753 14.2471 19.218 13.9898 19.218 13.6725C19.218 13.3553 19.4753 13.098 19.7925 13.098ZM19.7925 15.9707H26.1124C26.4297 15.9707 26.6869 16.2279 26.6869 16.5452C26.6869 16.8625 26.4297 17.1197 26.1124 17.1197H19.7925C19.4753 17.1197 19.218 16.8625 19.218 16.5452C19.218 16.2279 19.4753 15.9707 19.7925 15.9707ZM19.7925 18.8433H26.1124C26.4297 18.8433 26.6869 19.1006 26.6869 19.4179C26.6869 19.7351 26.4297 19.9924 26.1124 19.9924H19.7925C19.4753 19.9924 19.218 19.7351 19.218 19.4179C19.218 19.1006 19.4753 18.8433 19.7925 18.8433ZM16.6326 11.6613C16.9499 11.6613 17.2071 11.9186 17.2071 12.2359V20.8539C17.2071 21.1711 16.9499 21.4284 16.6326 21.4284H9.73822C9.42094 21.4284 9.16368 21.1711 9.16368 20.8539V12.2359C9.16368 11.9186 9.42094 11.6613 9.73822 11.6613H16.6326Z" fill="#07332F"/>
</svg>
