<svg width="33" height="46" viewBox="0 0 33 46" fill="none" xmlns="http://www.w3.org/2000/svg">
<path d="M31.1425 4.30762H26.4217V7.07257C26.4217 7.94484 25.7113 8.65569 24.8386 8.65569H8.91722C8.04495 8.65569 7.3341 7.94525 7.3341 7.07257V4.30762H2.61326C1.58617 4.30762 0.755859 5.13794 0.755859 6.16502V43.2715C0.755859 44.2918 1.58618 45.1289 2.61326 45.1289H31.0656C32.135 45.1289 33.0005 44.2566 33.0005 43.194V6.16554C33.0005 5.13845 32.1701 4.30814 31.1431 4.30814L31.1425 4.30762ZM24.5572 34.7581H20.5329C20.1177 34.7581 19.7168 34.6033 19.4073 34.3429L18.2885 36.9812C18.0139 37.6287 17.381 38.051 16.6773 38.051C15.9526 38.0439 15.3194 37.6148 15.0522 36.9535L13.5467 33.2316L13.3144 33.7029C13.0117 34.301 12.4139 34.6738 11.7455 34.6738H9.12114C8.82551 34.6738 8.59356 34.4347 8.59356 34.1462C8.59356 33.8506 8.82586 33.6186 9.12114 33.6186H11.7455C12.013 33.6186 12.2521 33.471 12.3716 33.2316L13.1244 31.7118C13.2229 31.529 13.4129 31.4023 13.6168 31.4233C13.8277 31.4304 14.0109 31.5638 14.0881 31.7538L16.0298 36.5593C16.1355 36.8197 16.3887 36.9884 16.6701 36.9955C16.9515 36.9955 17.2048 36.8265 17.3105 36.5664L18.8089 33.0417C18.8932 32.8517 19.0761 32.725 19.2803 32.725C19.4913 32.7179 19.6812 32.8307 19.7727 33.0207L19.9064 33.3092C20.026 33.5483 20.2721 33.7034 20.5326 33.7034H24.5568C24.8525 33.7034 25.0844 33.9357 25.0844 34.2309C25.0848 34.5191 24.8525 34.7581 24.5572 34.7581ZM27.4277 23.6627H6.2504C5.95477 23.6627 5.72282 23.4304 5.72282 23.1352C5.72282 22.8466 5.95512 22.6076 6.2504 22.6076H27.4277C27.7234 22.6076 27.9553 22.8466 27.9553 23.1352C27.9553 23.4308 27.723 23.6627 27.4277 23.6627ZM27.4277 18.3015H6.2504C5.95477 18.3015 5.72282 18.0624 5.72282 17.7739C5.72282 17.4783 5.95512 17.2464 6.2504 17.2464H27.4277C27.7234 17.2464 27.9553 17.4787 27.9553 17.7739C27.9553 18.0624 27.723 18.3015 27.4277 18.3015ZM27.4277 12.9335H6.2504C5.95477 12.9335 5.72282 12.6945 5.72282 12.406C5.72282 12.1175 5.95512 11.8784 6.2504 11.8784H27.4277C27.7234 11.8784 27.9553 12.1175 27.9553 12.406C27.9553 12.6941 27.723 12.9335 27.4277 12.9335Z" fill="white"/>
<path d="M25.3662 2.96391V7.07281C25.3662 7.36844 25.1271 7.60039 24.8386 7.60039H8.91723C8.6216 7.60039 8.38965 7.36809 8.38965 7.07281V2.96391C8.38965 2.6754 8.62195 2.43633 8.91723 2.43633H14.419C14.6584 1.30365 15.6715 0.452271 16.8747 0.452271C18.085 0.452271 19.091 1.30359 19.3372 2.43633H24.8389C25.1274 2.43633 25.3665 2.6754 25.3665 2.96391H25.3662Z" fill="white"/>
</svg>
