<svg xmlns="http://www.w3.org/2000/svg" version="1.1" xmlns:xlink="http://www.w3.org/1999/xlink" width="512" height="512" x="0" y="0" viewBox="0 0 62 62" style="enable-background:new 0 0 512 512" xml:space="preserve" class=""><g><circle cx="23" cy="17" r="1" fill="#ffffff" opacity="1" data-original="#000000" class=""></circle><path d="M61.277 54.613 56 46.697V39c1.103 0 2-.897 2-2v-2c0-1.103-.897-2-2-2H46c-1.103 0-2 .897-2 2v2c0 1.103.897 2 2 2v7.697L42.465 52H32v-4h8c1.103 0 2-.897 2-2v-2c0-1.103-.897-2-2-2h-2v-2c0-1.103-.897-2-2-2H22c-1.103 0-2 .897-2 2v2h-2c-1.103 0-2 .897-2 2v2c0 1.103.897 2 2 2h8v4h-1.566C15.372 52 8 44.628 8 35.565c0-6.634 3.961-12.55 10.049-15.136A2.001 2.001 0 0 0 20 22h2v6c-1.103 0-2 .897-2 2v4c0 1.103.897 2 2 2h14c1.103 0 2-.897 2-2v-4c0-1.103-.897-2-2-2V10c0-1.103-.897-2-2-2V6c1.103 0 2-.897 2-2V2c0-1.103-.897-2-2-2H24c-1.103 0-2 .897-2 2v2c0 1.103.897 2 2 2v2c-1.103 0-2 .897-2 2v2h-2c-1.103 0-2 .897-2 2v.233C7.366 16.965 0 26.383 0 37.439c0 8.05 4.09 15.677 10.728 20.166l-.302.453A2.538 2.538 0 0 0 12.535 62H57.93a2.993 2.993 0 0 0 2.496-1.336l.852-1.277a4.298 4.298 0 0 0-.001-4.774zM36.001 34H22v-4h14zM24 2h10l.001 2H24zm2 4h6v2h-6zm-2 4h10v18H24v-6h2c1.103 0 2-.897 2-2v-6c0-1.103-.897-2-2-2h-2zm-4 4h6v6l-6 .001zm26 21h10l.001 2H46zm2 12.303V39h6v8.303l3.688 5.531c-.187.104-.367.208-.533.308-.799.48-1.429.858-2.819.858s-2.021-.378-2.819-.857C50.624 52.607 49.612 52 47.668 52c-1.615 0-2.584.419-3.378.868zM22 40h14v2H22zm-4 4h22l.001 2H18zm10 4h2v4h-2zM2 37.439c0-9.961 6.523-18.471 16-21.138v2.005A18.4 18.4 0 0 0 6 35.565C6 42.74 10.129 48.955 16.128 52h-.592c-.67 0-1.292.333-1.664.891l-2.035 3.052C5.75 51.821 2 44.824 2 37.439zm10 22.026c0-.106.031-.209.09-.297L15.535 54h25.596l-.409.613a4.298 4.298 0 0 0 .001 4.774l.409.613H12.535a.536.536 0 0 1-.535-.535zm47.613-1.188-.852 1.277a.993.993 0 0 1-.831.446H44.07a.998.998 0 0 1-.832-.445l-.852-1.277A2.309 2.309 0 0 1 42 57c0-.4.12-.781.315-1.127 1.124-.2 1.879-.623 2.533-1.016.799-.479 1.43-.857 2.82-.857s2.021.379 2.82.857c.893.537 1.905 1.143 3.848 1.143s2.955-.607 3.847-1.143c.214-.128.413-.247.617-.354l.813 1.219a2.302 2.302 0 0 1 0 2.555z" fill="#ffffff" opacity="1" data-original="#000000" class=""></path><path d="M54 28c0 1.654 1.346 3 3 3s3-1.346 3-3-1.346-3-3-3-3 1.346-3 3zm3-1c.551 0 1 .449 1 1s-.449 1-1 1-1-.449-1-1 .449-1 1-1zM45 26c1.654 0 3-1.346 3-3s-1.346-3-3-3-3 1.346-3 3 1.346 3 3 3zm0-4c.551 0 1 .449 1 1s-.449 1-1 1-1-.449-1-1 .449-1 1-1zM52 16c2.206 0 4-1.794 4-4s-1.794-4-4-4-4 1.794-4 4 1.794 4 4 4zm0-6c1.103 0 2 .897 2 2s-.897 2-2 2-2-.897-2-2 .897-2 2-2z" fill="#ffffff" opacity="1" data-original="#000000" class=""></path></g></svg>