<svg width="73" height="74" viewBox="0 0 73 74" fill="none" xmlns="http://www.w3.org/2000/svg">
<path fill-rule="evenodd" clip-rule="evenodd" d="M34.7931 7.70729C27.9893 8.10374 21.8047 10.8233 17.0167 15.0841L20.0182 18.0884C20.3533 18.4102 20.5449 18.8535 20.5495 19.3182C20.5541 19.7824 20.3718 20.2292 20.0431 20.5579C19.7149 20.8867 19.2681 21.069 18.8034 21.0644C18.3386 21.0597 17.8959 20.8682 17.5741 20.5331L14.5708 17.5298C10.3124 22.319 7.59511 28.5041 7.19922 35.3077H11.4497C12.4046 35.3077 13.179 36.0821 13.179 37.0371C13.179 37.9926 12.4046 38.7664 11.4497 38.7664H7.19922C7.59567 45.5703 10.3136 51.7554 14.5726 56.5428L17.5689 53.5414C17.8826 53.2184 18.3103 53.0309 18.7606 53.0182C19.4724 52.9991 20.1229 53.4187 20.3991 54.075C20.6757 54.7307 20.5218 55.4895 20.0113 55.9855L17.0168 58.987C21.8032 63.2449 27.9854 65.9627 34.7873 66.3604V62.1099C34.7804 61.651 34.9563 61.2088 35.2764 60.8795C35.5958 60.5508 36.0334 60.3621 36.4923 60.3563C36.9594 60.3494 37.4097 60.5317 37.7401 60.8622C38.07 61.1926 38.2529 61.6429 38.246 62.11V66.3604C45.0492 65.9657 51.2344 63.2508 56.0239 58.994L53.0212 55.9907C52.5177 55.5 52.362 54.7533 52.6271 54.1023C52.8922 53.4512 53.5253 53.0252 54.228 53.0252C54.6968 53.0235 55.1453 53.2127 55.4723 53.5484L58.4702 56.551C62.7332 51.7636 65.4553 45.5779 65.8534 38.7731H61.5897C60.6342 38.7731 59.8604 37.9988 59.8604 37.0438C59.8604 36.0888 60.6342 35.3145 61.5897 35.3145H65.8552C65.4604 28.5082 62.7392 22.322 58.4783 17.5306L55.4723 20.5385C55.1505 20.8735 54.7072 21.0651 54.2424 21.0697C53.7783 21.075 53.3315 20.8921 53.0027 20.5639C52.674 20.2352 52.4917 19.7884 52.4963 19.3236C52.5009 18.8595 52.6925 18.4161 53.0276 18.0943L56.036 15.0865C51.2457 10.8239 45.0587 8.10322 38.2522 7.7063V11.9699C38.2522 12.9255 37.4778 13.6993 36.5229 13.6993C35.5673 13.6993 34.7929 12.9255 34.7929 11.9699L34.7931 7.70729ZM26.1355 24.9148C26.602 24.9148 27.0488 25.1034 27.3746 25.438L37.2441 35.308H50.3552C51.3107 35.308 52.0845 36.0824 52.0845 37.0374C52.0845 37.9929 51.3107 38.7667 50.3552 38.7667H35.8075L24.9298 27.889C24.4211 27.3994 24.2613 26.6493 24.5264 25.9942C24.792 25.3396 25.4287 24.9125 26.1353 24.9148H26.1355Z" fill="white"/>
<path fill-rule="evenodd" clip-rule="evenodd" d="M36.5207 0.737793C16.4937 0.737793 0.225586 17.0119 0.225586 37.0403C0.225586 57.0688 16.4937 73.3354 36.5207 73.3354C56.5477 73.3354 72.8232 57.0673 72.8232 37.0403C72.8232 17.0133 56.5492 0.737793 36.5207 0.737793ZM36.5207 4.19588C54.6794 4.19588 69.3652 18.8812 69.3652 37.0403C69.3652 55.1994 54.6798 69.8788 36.5207 69.8788C18.3616 69.8788 3.68219 55.1999 3.68219 37.0403C3.68219 18.8808 18.3611 4.19588 36.5207 4.19588Z" fill="white"/>
</svg>
