<svg width="47" height="42" viewBox="0 0 47 42" fill="none" xmlns="http://www.w3.org/2000/svg">
<path d="M46.1139 24.805C45.8918 24.4289 45.5246 24.1611 45.0987 24.0643C44.6982 23.976 44.2792 24.0565 43.9401 24.2871L34.698 30.4424C34.7615 30.7838 34.7941 31.1303 34.7955 31.4776C34.7955 31.697 34.7083 31.9076 34.5532 32.0628C34.398 32.2179 34.1874 32.3051 33.968 32.3051H23.1567C22.6997 32.3051 22.3292 31.9346 22.3292 31.4776C22.3292 31.0205 22.6997 30.65 23.1567 30.65H33.0572C32.8651 29.716 32.3571 28.8767 31.6186 28.2737C30.8797 27.6708 29.9557 27.3409 29.0021 27.3398H22.7034C22.5102 27.3398 22.3233 27.2721 22.1747 27.1488C20.796 26.1442 19.1213 25.6289 17.4163 25.6847C14.2764 25.6847 11.6234 27.2009 11.6234 28.9949C11.6234 29.2144 11.5362 29.425 11.3811 29.5801C11.2259 29.7353 11.0153 29.8225 10.7958 29.8225H5.00293V38.9256H15.7612C15.8229 38.9256 15.8842 38.9323 15.9441 38.9463L26.6021 41.3621C27.2786 41.4996 27.9812 41.3263 28.5162 40.8904L45.5232 27.3042C45.5458 27.2861 45.5694 27.2691 45.5938 27.2536C45.9769 26.9894 46.2444 26.5882 46.3412 26.1326C46.438 25.6771 46.3563 25.202 46.1132 24.8048L46.1139 24.805Z" fill="white"/>
<path d="M0.0380859 28.168H3.34832V41.4089H0.0380859V28.168Z" fill="white"/>
<path d="M16.5892 9.96133C16.2508 9.9617 15.9463 9.75592 15.8204 9.44152L14.9341 7.22375L14.0478 9.44152C13.9218 9.75592 13.6174 9.9617 13.2789 9.96133H12.3018C12.6099 10.6278 13.024 11.2403 13.5272 11.7753L21.1027 19.7927C21.6558 20.365 22.4172 20.6883 23.213 20.6883C24.0088 20.6883 24.7702 20.365 25.3232 19.7927L32.8994 11.7747C33.4018 11.2401 33.8149 10.6275 34.1227 9.96143H33.1403C32.8636 9.96143 32.6053 9.82326 32.4516 9.59309L31.4851 8.14084L30.5186 9.59054C30.3657 9.82181 30.1071 9.9611 29.83 9.96146H28.1749V10.789C28.1749 11.0085 28.0877 11.2191 27.9325 11.3742C27.7774 11.5294 27.5668 11.6166 27.3473 11.6166H25.6922V13.2717C25.6922 13.4912 25.605 13.7017 25.4498 13.8569C25.2947 14.0121 25.0841 14.0993 24.8646 14.0993H21.5544C21.0974 14.0993 20.7268 13.7287 20.7268 13.2717V11.6166H19.0717C18.6147 11.6166 18.2442 11.246 18.2442 10.789V9.96146L16.5892 9.96133Z" fill="white"/>
<path d="M12.7186 8.30675L14.1653 4.68876H14.165C14.2902 4.37399 14.595 4.16747 14.9338 4.16747C15.2726 4.16747 15.5774 4.37399 15.7026 4.68876L17.149 8.30675H18.244V7.47919C18.244 7.02219 18.6146 6.65163 19.0716 6.65163H20.7267V4.99651C20.7267 4.53951 21.0973 4.16895 21.5543 4.16895H24.8645C25.0839 4.16895 25.2945 4.25614 25.4497 4.41131C25.6049 4.56648 25.6921 4.77706 25.6921 4.99651V6.65163H27.3472C27.5666 6.65163 27.7772 6.73882 27.9324 6.89399C28.0875 7.04916 28.1747 7.25974 28.1747 7.47919V8.30675H29.3872L30.7941 6.19246C30.9563 5.97522 31.2116 5.8474 31.4824 5.8474C31.7535 5.8474 32.0088 5.97523 32.171 6.19246L33.5827 8.30675H34.6585C34.7486 7.84495 34.7941 7.37612 34.7952 6.90586C34.8129 5.09554 34.1346 3.34773 32.9011 2.02326C31.7207 0.760827 30.073 0.0404241 28.3451 0.03125C26.6238 0.0379 24.9823 0.759427 23.8134 2.02326C23.4809 2.35391 22.9438 2.35391 22.6109 2.02326C21.4393 0.757138 19.7927 0.0378704 18.0678 0.0378704C16.3429 0.0378704 14.6963 0.757186 13.5244 2.02326C11.9642 3.7146 11.3088 6.05097 11.7617 8.30685L12.7186 8.30675Z" fill="white"/>
<path d="M22.3821 5.82434V7.47946C22.3821 7.69891 22.2949 7.9095 22.1397 8.06466C21.9846 8.21983 21.774 8.30702 21.5545 8.30702H19.8994V9.96214H21.5545C21.774 9.96214 21.9846 10.0493 22.1397 10.2045C22.2949 10.3597 22.3821 10.5702 22.3821 10.7897V12.4448H24.0372V10.7897C24.0372 10.3327 24.4078 9.96214 24.8648 9.96214H26.5199V8.30702H24.8648C24.4078 8.30702 24.0372 7.93646 24.0372 7.47946V5.82434H22.3821Z" fill="white"/>
</svg>
