<svg width="64" height="64" viewBox="0 0 64 64" fill="none" xmlns="http://www.w3.org/2000/svg">
<path d="M6.3362 41.9349C3.92332 41.9349 2 40.0115 2 37.5987V27.003C2 24.1355 4.30797 21.8276 7.17545 21.8276H16.6172C19.4847 21.8276 21.8276 19.4847 21.8276 16.6172V7.17545C21.8276 4.30797 24.1355 2 27.003 2H36.7595C39.6269 2 41.9349 4.30797 41.9349 7.17545V16.6172C41.9349 19.4847 44.2778 21.8276 47.1453 21.8276H56.587C59.4545 21.8276 61.7624 24.1355 61.7624 27.003V36.7595C61.7624 39.6269 59.4545 41.9349 56.587 41.9349H47.1453C44.2778 41.9349 41.9349 44.2779 41.9349 47.1454V56.587C41.9349 59.4546 39.6269 61.7624 36.7595 61.7624H21.8276" stroke="#F7A582" stroke-width="4"/>
<path d="M6.33624 41.7949C6.31294 41.5151 6.30127 41.2238 6.30127 40.9207C6.30127 36.3747 9.97305 32.668 14.554 32.668C17.7013 32.668 20.4288 34.4164 21.8276 36.9692C23.2264 34.4164 25.954 32.668 29.0662 32.668C33.6473 32.668 37.354 36.3747 37.354 40.9207C37.354 42.0747 37.1092 43.1587 36.6896 44.1379C35.6055 47.1452 32.2835 53.0201 22.2473 61.5876" stroke="white" stroke-width="4" stroke-linecap="round" stroke-linejoin="round"/>
</svg>
