<svg width="165" height="64" viewBox="0 0 165 64" fill="none" xmlns="http://www.w3.org/2000/svg">
<path d="M6.3362 41.9349C3.92332 41.9349 2 40.0115 2 37.5987V27.003C2 24.1355 4.30797 21.8276 7.17545 21.8276H16.6172C19.4847 21.8276 21.8276 19.4847 21.8276 16.6172V7.17545C21.8276 4.30797 24.1355 2 27.003 2H36.7595C39.6269 2 41.9349 4.30797 41.9349 7.17545V16.6172C41.9349 19.4847 44.2778 21.8276 47.1453 21.8276H56.587C59.4545 21.8276 61.7624 24.1355 61.7624 27.003V36.7595C61.7624 39.6269 59.4545 41.9349 56.587 41.9349H47.1453C44.2778 41.9349 41.9349 44.2779 41.9349 47.1454V56.587C41.9349 59.4546 39.6269 61.7624 36.7595 61.7624H21.8276" stroke="#F7A582" stroke-width="4"/>
<path d="M6.33624 41.7949C6.31294 41.5151 6.30127 41.2238 6.30127 40.9207C6.30127 36.3747 9.97305 32.668 14.554 32.668C17.7013 32.668 20.4288 34.4164 21.8276 36.9692C23.2264 34.4164 25.954 32.668 29.0662 32.668C33.6473 32.668 37.354 36.3747 37.354 40.9207C37.354 42.0747 37.1092 43.1587 36.6896 44.1379C35.6055 47.1452 32.2835 53.0201 22.2473 61.5876" stroke="white" stroke-width="4" stroke-linecap="round" stroke-linejoin="round"/>
<path d="M82.8633 24.4545H87.217L90.9102 33.4602H91.0806L94.7738 24.4545H99.1275V39H95.7042V30.0653H95.5835L92.0892 38.9077H89.9017L86.4073 30.0156H86.2866V39H82.8633V24.4545ZM106.42 39.206C105.279 39.206 104.294 38.9811 103.465 38.5312C102.641 38.0767 102.007 37.4304 101.562 36.5923C101.121 35.7495 100.901 34.7481 100.901 33.5881C100.901 32.4612 101.124 31.4763 101.569 30.6335C102.014 29.786 102.641 29.1278 103.451 28.6591C104.261 28.1856 105.215 27.9489 106.313 27.9489C107.09 27.9489 107.8 28.0696 108.444 28.3111C109.088 28.5526 109.644 28.91 110.113 29.3835C110.582 29.857 110.946 30.4418 111.207 31.1378C111.467 31.8291 111.597 32.6222 111.597 33.517V34.3835H102.116V32.3665H108.366C108.361 31.9972 108.273 31.6681 108.103 31.3793C107.933 31.0904 107.698 30.8655 107.4 30.7045C107.106 30.5388 106.768 30.456 106.384 30.456C105.996 30.456 105.648 30.5436 105.34 30.7188C105.032 30.8892 104.789 31.1236 104.609 31.4219C104.429 31.7154 104.334 32.0492 104.325 32.4233V34.4759C104.325 34.9209 104.412 35.3116 104.587 35.6477C104.763 35.9792 105.011 36.2372 105.333 36.4219C105.655 36.6065 106.039 36.6989 106.484 36.6989C106.791 36.6989 107.071 36.6562 107.322 36.571C107.573 36.4858 107.788 36.3603 107.968 36.1946C108.148 36.0289 108.283 35.8253 108.373 35.5838L111.562 35.6761C111.429 36.3911 111.138 37.0137 110.688 37.544C110.243 38.0696 109.658 38.4792 108.934 38.7727C108.21 39.0616 107.371 39.206 106.42 39.206ZM117.355 39.1562C116.551 39.1562 115.819 38.9479 115.161 38.5312C114.503 38.1146 113.977 37.4896 113.584 36.6562C113.191 35.8229 112.995 34.7884 112.995 33.5526C112.995 32.2694 113.198 31.2135 113.605 30.3849C114.013 29.5563 114.545 28.9432 115.204 28.5455C115.866 28.1477 116.579 27.9489 117.341 27.9489C117.914 27.9489 118.404 28.0483 118.811 28.2472C119.219 28.4413 119.555 28.6922 119.82 29C120.085 29.3078 120.286 29.6274 120.424 29.9588H120.495V24.4545H123.968V39H120.53V37.2315H120.424C120.277 37.5677 120.069 37.8826 119.799 38.1761C119.529 38.4697 119.19 38.7064 118.783 38.8864C118.381 39.0663 117.905 39.1562 117.355 39.1562ZM118.563 36.4503C118.984 36.4503 119.344 36.3319 119.642 36.0952C119.941 35.8537 120.17 35.5152 120.331 35.0795C120.492 34.6439 120.573 34.1326 120.573 33.5455C120.573 32.9489 120.492 32.4351 120.331 32.0043C120.175 31.5734 119.945 31.242 119.642 31.0099C119.344 30.7779 118.984 30.6619 118.563 30.6619C118.132 30.6619 117.767 30.7803 117.469 31.017C117.171 31.2538 116.944 31.5876 116.787 32.0185C116.636 32.4493 116.56 32.9583 116.56 33.5455C116.56 34.1326 116.638 34.6439 116.794 35.0795C116.951 35.5152 117.176 35.8537 117.469 36.0952C117.767 36.3319 118.132 36.4503 118.563 36.4503ZM126.164 39V28.0909H129.637V39H126.164ZM127.904 26.8196C127.416 26.8196 126.997 26.6586 126.647 26.3366C126.297 26.0099 126.121 25.617 126.121 25.1577C126.121 24.7031 126.297 24.3149 126.647 23.9929C126.997 23.6662 127.416 23.5028 127.904 23.5028C128.397 23.5028 128.816 23.6662 129.161 23.9929C129.512 24.3149 129.687 24.7031 129.687 25.1577C129.687 25.617 129.512 26.0099 129.161 26.3366C128.816 26.6586 128.397 26.8196 127.904 26.8196Z" fill="white"/>
<path d="M131.848 39V24.4545H137.856C138.945 24.4545 139.885 24.6676 140.676 25.0938C141.471 25.5152 142.084 26.1046 142.515 26.8622C142.946 27.6151 143.162 28.491 143.162 29.4901C143.162 30.4938 142.941 31.3722 142.501 32.125C142.065 32.8731 141.443 33.4531 140.633 33.8651C139.824 34.277 138.862 34.483 137.75 34.483H134.042V31.7131H137.096C137.627 31.7131 138.069 31.6207 138.424 31.4361C138.784 31.2514 139.056 30.9934 139.241 30.6619C139.426 30.3258 139.518 29.9351 139.518 29.4901C139.518 29.0402 139.426 28.652 139.241 28.3253C139.056 27.9938 138.784 27.7382 138.424 27.5582C138.065 27.3783 137.622 27.2884 137.096 27.2884H135.363V39H131.848ZM144.895 39V28.0909H148.268V30.0795H148.382C148.581 29.3598 148.905 28.8248 149.355 28.4744C149.805 28.1193 150.328 27.9418 150.924 27.9418C151.085 27.9418 151.251 27.9536 151.422 27.9773C151.592 27.9962 151.751 28.027 151.897 28.0696V31.0881C151.732 31.0312 151.514 30.9863 151.244 30.9531C150.979 30.92 150.742 30.9034 150.534 30.9034C150.122 30.9034 149.75 30.9957 149.419 31.1804C149.092 31.3603 148.834 31.6136 148.645 31.9403C148.46 32.2623 148.368 32.6411 148.368 33.0767V39H144.895ZM157.838 39.206C156.693 39.206 155.708 38.9716 154.884 38.5028C154.065 38.0294 153.433 37.3712 152.988 36.5284C152.547 35.6809 152.327 34.6984 152.327 33.581C152.327 32.4588 152.547 31.4763 152.988 30.6335C153.433 29.786 154.065 29.1278 154.884 28.6591C155.708 28.1856 156.693 27.9489 157.838 27.9489C158.984 27.9489 159.967 28.1856 160.786 28.6591C161.61 29.1278 162.242 29.786 162.682 30.6335C163.127 31.4763 163.35 32.4588 163.35 33.581C163.35 34.6984 163.127 35.6809 162.682 36.5284C162.242 37.3712 161.61 38.0294 160.786 38.5028C159.967 38.9716 158.984 39.206 157.838 39.206ZM157.86 36.5852C158.276 36.5852 158.629 36.4574 158.918 36.2017C159.207 35.946 159.427 35.5909 159.579 35.1364C159.735 34.6818 159.813 34.1562 159.813 33.5597C159.813 32.9536 159.735 32.4233 159.579 31.9688C159.427 31.5142 159.207 31.1591 158.918 30.9034C158.629 30.6477 158.276 30.5199 157.86 30.5199C157.429 30.5199 157.064 30.6477 156.766 30.9034C156.472 31.1591 156.248 31.5142 156.091 31.9688C155.94 32.4233 155.864 32.9536 155.864 33.5597C155.864 34.1562 155.94 34.6818 156.091 35.1364C156.248 35.5909 156.472 35.946 156.766 36.2017C157.064 36.4574 157.429 36.5852 157.86 36.5852Z" fill="#F7A582"/>
</svg>
