<svg width="69" height="69" viewBox="0 0 69 69" fill="none" xmlns="http://www.w3.org/2000/svg">
<path d="M25.5609 21.0458L24.2381 28.6483C24.0703 29.6036 24.4584 30.5486 25.246 31.1056C25.9913 31.6409 26.9574 31.6934 27.766 31.242L30.4225 29.7405L32.7748 28.4069L34.2026 27.5983L35.6304 28.4069L37.9827 29.7297L40.6501 31.242C41.0073 31.4417 41.4062 31.5467 41.8051 31.5467C42.2776 31.5467 42.7501 31.3995 43.1598 31.1056C43.9473 30.5491 44.3359 29.6041 44.1676 28.6483L42.8444 21.0458L48.1784 15.7221C48.8506 15.0499 49.0709 14.0632 48.777 13.1598C48.4723 12.2673 47.727 11.6372 46.8242 11.5112L39.5579 10.493L36.3763 3.56286C35.9774 2.69144 35.1478 2.14539 34.2027 2.14539C33.2577 2.14539 32.428 2.6915 32.0291 3.56286L28.8476 10.493L21.5813 11.5117C20.6784 11.6378 19.9327 12.2678 19.6285 13.1603C19.3345 14.0631 19.5549 15.0503 20.2271 15.7226L25.5609 21.0458Z" fill="#07332F"/>
<path d="M54.3274 45.1964L57.1531 40.4873C57.3486 40.1629 57.3528 39.7584 57.1667 39.4298C56.9806 39.1002 56.6309 38.8963 56.2531 38.8963H45.7528V37.8463C45.7528 37.2688 45.2803 36.7963 44.7028 36.7963H39.2427L38.4654 32.4176L36.9428 31.5565L34.2024 30.0133L29.9396 32.4181L29.1624 36.7963H23.7022C23.1247 36.7963 22.6522 37.2688 22.6522 37.8463V38.8963H12.1519C11.7741 38.8963 11.4244 39.1002 11.2383 39.4288C11.0513 39.7574 11.0564 40.162 11.2519 40.4864L14.0776 45.1965L11.2519 49.9057C11.0564 50.23 11.0522 50.6346 11.2383 50.9632C11.4244 51.2927 11.7741 51.4966 12.1519 51.4966H23.7022C24.2816 51.4966 24.7522 51.026 24.7522 50.4466V49.3966H26.9151L25.9803 54.6467H23.7022C23.1247 54.6467 22.6522 55.1192 22.6522 55.6967V66.197C22.6522 66.7745 23.1247 67.247 23.7022 67.247H44.7028C45.2803 67.247 45.7528 66.7745 45.7528 66.197V55.6967C45.7528 55.1192 45.2803 54.6467 44.7028 54.6467H42.4241L41.4894 49.3966H43.6527V50.4466C43.6527 51.026 44.1234 51.4966 44.7027 51.4966H56.253C56.6309 51.4966 56.9806 51.2927 57.1667 50.9641C57.3537 50.6355 57.3485 50.231 57.1531 49.9066L54.3274 45.1964ZM22.6526 48.3465V49.3966H14.0067L16.2024 45.7374C16.4021 45.4046 16.4021 44.9897 16.2024 44.6569L14.0067 40.9963H22.6526V48.3465ZM43.6531 39.9463V47.2965H24.7526V38.8963H43.6531V39.9463ZM45.7532 49.3966V40.9963H54.3991L52.2034 44.6555C52.0037 44.9883 52.0037 45.4032 52.2034 45.736L54.3991 49.3965L45.7532 49.3966Z" fill="#07332F"/>
</svg>
