<svg width="45" height="46" viewBox="0 0 45 46" fill="none" xmlns="http://www.w3.org/2000/svg">
<path d="M21.1527 40.2561C11.5363 40.2561 3.71191 32.2539 3.71191 22.4172C3.71191 12.5814 11.5359 4.5791 21.1527 4.5791C30.7699 4.5791 38.5952 12.5813 38.5952 22.4172C38.5952 22.8251 38.2723 23.1554 37.8734 23.1554C37.4746 23.1554 37.1516 22.8251 37.1516 22.4172C37.1516 13.3953 29.9752 6.05579 21.1538 6.05579C12.3333 6.05579 5.15692 13.3953 5.15692 22.4172C5.15692 31.439 12.333 38.7785 21.1538 38.7785C21.5527 38.7785 21.8756 39.1092 21.8756 39.5167C21.8756 39.9246 21.5527 40.2553 21.1535 40.2553L21.1527 40.2561Z" fill="white"/>
<path d="M30.999 21.6269C30.9681 21.2204 30.9204 20.8187 30.8435 20.4269C30.7844 20.1258 30.7092 19.8309 30.6246 19.54C30.5404 19.2506 30.4417 18.968 30.3336 18.6906C30.2429 18.4581 30.1415 18.2322 30.0351 18.0087C29.9243 17.7759 29.8065 17.5479 29.6789 17.3261C29.5688 17.1331 29.4593 16.9391 29.3371 16.7548C29.2102 16.5632 29.0706 16.3815 28.9312 16.1999C28.8084 16.0399 28.6811 15.8854 28.5495 15.7333C28.4075 15.5695 28.2675 15.4044 28.1158 15.2505C27.9835 15.1163 27.8415 14.9927 27.7018 14.8656C27.5501 14.7279 27.3957 14.594 27.2358 14.4653C27.0938 14.3509 26.9498 14.239 26.8018 14.1329C26.6409 14.0179 26.4741 13.9125 26.3066 13.8071C26.1558 13.712 26.0081 13.6121 25.8523 13.5255C25.6828 13.4315 25.5059 13.3518 25.331 13.268C25.1732 13.1921 25.0154 13.1169 24.8526 13.0493C24.6746 12.9755 24.493 12.9089 24.31 12.8454C24.1445 12.7884 23.9767 12.7365 23.8071 12.6884C23.6208 12.6352 23.4341 12.582 23.2434 12.5398C23.0702 12.5013 22.8929 12.4752 22.7164 12.4467C22.5213 12.4151 22.3279 12.3784 22.1292 12.3585C21.9472 12.3403 21.7616 12.3379 21.5766 12.33C21.4359 12.3235 21.2976 12.3083 21.1549 12.3083C21.0891 12.3083 21.025 12.3173 20.9595 12.3187C20.7665 12.3224 20.5751 12.3334 20.3848 12.3485C20.1649 12.3664 19.9487 12.3932 19.7331 12.4254C19.5314 12.4553 19.3289 12.4811 19.1312 12.5233C18.8962 12.5734 18.6672 12.639 18.4389 12.706C18.219 12.7705 18.0042 12.8453 17.791 12.9247C17.5388 13.0181 17.2914 13.12 17.0494 13.2337C16.8103 13.346 16.574 13.463 16.3454 13.5939C16.06 13.7573 15.784 13.9348 15.5171 14.1254C15.2328 14.3286 14.9612 14.5477 14.6993 14.7795C14.33 15.1063 13.9852 15.4593 13.6663 15.8377C12.2723 17.495 11.4005 19.6166 11.294 21.9428C11.2866 22.1008 11.2705 22.257 11.2705 22.417C11.2705 22.771 11.2893 23.1205 11.3239 23.4649C11.3595 23.8165 11.4145 24.1622 11.484 24.5025C11.5515 24.8294 11.6341 25.1504 11.7315 25.4653C11.811 25.7218 11.9033 25.9724 12.002 26.22C12.1028 26.4723 12.2166 26.7175 12.3361 26.9592C12.4385 27.1659 12.5479 27.3671 12.6638 27.5656C12.7856 27.7754 12.9102 27.9824 13.0458 28.1812C13.1633 28.3536 13.2865 28.5204 13.4141 28.6849C13.5494 28.859 13.6927 29.0255 13.8391 29.1903C13.969 29.3369 14.097 29.4842 14.2346 29.6226C14.3813 29.7699 14.5354 29.909 14.6908 30.047C14.8295 30.1696 14.9715 30.2873 15.1169 30.4023C15.2743 30.5273 15.4308 30.654 15.5956 30.7691C15.742 30.871 15.8961 30.961 16.0475 31.0551C16.214 31.1584 16.3795 31.2624 16.5524 31.3552C16.7069 31.4389 16.8663 31.5131 17.0255 31.589C17.2 31.671 17.3763 31.7493 17.5562 31.8218C17.7184 31.8874 17.8822 31.9498 18.0481 32.0065C18.231 32.0686 18.4177 32.1208 18.6054 32.1723C18.7752 32.2187 18.9431 32.2692 19.1163 32.3066C19.308 32.3478 19.5048 32.3735 19.7002 32.4031C19.8778 32.4302 20.0543 32.4597 20.235 32.4769C20.4357 32.4961 20.6402 32.502 20.8443 32.5085C20.9477 32.5119 21.0488 32.5243 21.1532 32.5243C21.2388 32.5243 21.3217 32.5133 21.4063 32.5116C21.6192 32.5057 21.8313 32.4978 22.0405 32.4786C22.2412 32.4604 22.438 32.4288 22.6354 32.3983C22.8607 32.3639 23.0846 32.3265 23.3045 32.276C23.5163 32.228 23.7255 32.1727 23.932 32.1105C24.177 32.0371 24.4151 31.9502 24.6514 31.8582C24.882 31.7682 25.1073 31.671 25.3286 31.5643C25.5971 31.4358 25.859 31.2964 26.1131 31.1443C26.374 30.9891 26.6268 30.8233 26.8712 30.6448C27.1921 30.4106 27.4963 30.1565 27.7877 29.8856C28.1255 29.5711 28.4484 29.2398 28.7412 28.8813C30.0468 27.2816 30.869 25.262 31.0053 23.0546C31.0184 22.8421 31.0372 22.6309 31.0372 22.4146C31.0386 22.1506 31.0194 21.8882 30.999 21.6269ZM24.9738 14.1837C25.1484 14.2688 25.3233 14.354 25.4918 14.4505L24.1077 18.0127C24.3017 17.9307 24.5126 17.8853 24.7301 17.862L25.9458 14.733C26.1127 14.8422 26.2741 14.9586 26.4333 15.0784L25.3456 17.8778C25.5218 17.9087 25.6917 17.9571 25.8508 18.0275L26.8654 15.4156C27.0232 15.5505 27.1739 15.6941 27.322 15.84L26.3494 18.3431C26.5002 18.4656 26.6348 18.6044 26.7503 18.7623L27.7215 16.2624C27.8689 16.4262 28.0116 16.593 28.1469 16.7675L27.0961 19.4707C27.1578 19.6805 27.2011 19.8978 27.2011 20.1279C27.2011 20.9773 26.7439 21.71 26.0731 22.1052L25.8955 22.5619C25.8969 22.5131 25.9029 22.4657 25.9029 22.4173C25.9029 22.3459 25.8932 22.2776 25.8898 22.2072C25.6068 22.3397 25.2949 22.418 24.9632 22.418C23.7264 22.418 22.7243 21.3931 22.7243 20.1285C22.7243 19.3728 23.0862 18.7081 23.6381 18.2909C23.569 18.2463 23.5035 18.1958 23.4313 18.1556L24.9738 14.1837ZM23.9539 13.76C24.1372 13.8221 24.3188 13.8894 24.4964 13.9633L22.9568 17.9252C22.7792 17.851 22.5952 17.7899 22.4082 17.7377L23.9539 13.76ZM22.8816 13.4681C23.0736 13.5069 23.2609 13.5591 23.4479 13.61L21.8882 17.6251C21.6918 17.5942 21.492 17.574 21.2886 17.5685L22.8816 13.4681ZM21.7528 13.3239C21.9539 13.3377 22.1534 13.3572 22.3508 13.3851L20.7192 17.584C20.4916 17.6052 20.27 17.6454 20.0531 17.6983L21.7528 13.3239ZM20.5681 13.3229C20.7625 13.3102 20.9559 13.2924 21.1539 13.2924C21.1697 13.2924 21.1848 13.2948 21.2006 13.2948L19.4099 17.9036C19.1366 18.0145 18.8767 18.1501 18.631 18.3088L20.5681 13.3229ZM13.6233 17.5458L12.3949 20.7071C12.6084 19.563 13.0335 18.4966 13.6233 17.5458ZM12.2392 22.5584L14.7621 16.0649C15.0606 15.7514 15.3825 15.463 15.7212 15.1955L12.3546 23.8604C12.2885 23.4346 12.2462 23.0016 12.2392 22.5584ZM12.8327 25.6818C12.725 25.3955 12.632 25.1026 12.5521 24.8035L16.4978 14.6478C16.7543 14.4864 17.0192 14.3388 17.2918 14.2038L12.8327 25.6818ZM13.1272 26.3737L17.9723 13.9027C18.2076 13.81 18.446 13.7259 18.6904 13.6541L13.484 27.0542C13.3558 26.8331 13.237 26.6061 13.1272 26.3733L13.1272 26.3737ZM13.8305 27.6142L19.3185 13.489C19.5361 13.4423 19.759 13.4107 19.9822 13.3808L17.8102 18.9706C16.9433 19.8503 16.4058 21.0695 16.4058 22.4179C16.4058 22.4687 16.4115 22.5174 16.4132 22.5669L14.2364 28.1693C14.0937 27.9905 13.9601 27.8044 13.8305 27.6145L13.8305 27.6142ZM15.0703 29.0728C14.9169 28.9255 14.7692 28.7741 14.6262 28.6161L16.5619 23.6334C16.6354 23.9252 16.7341 24.2057 16.857 24.4735L15.0703 29.0728ZM15.9637 29.8237C15.8016 29.7045 15.6384 29.5868 15.4843 29.457L17.1851 25.0792C17.3086 25.2718 17.4463 25.4528 17.595 25.6241L15.9637 29.8237ZM16.9084 30.4407C16.7366 30.3456 16.5731 30.2364 16.4079 30.1296L17.9975 26.0382C18.1476 26.1752 18.3037 26.305 18.4695 26.4217L16.9084 30.4407ZM17.9119 30.9087C17.732 30.8369 17.5557 30.7576 17.3815 30.6738L18.9241 26.704C19.0937 26.7967 19.2706 26.8757 19.4515 26.9467L17.9119 30.9087ZM18.9641 31.2524C18.7754 31.2036 18.5877 31.1549 18.4044 31.0938L19.9518 27.1112C20.1401 27.162 20.3322 27.2011 20.5279 27.2272L18.9641 31.2524ZM20.0652 31.467C19.8678 31.4423 19.6724 31.4127 19.479 31.375L21.0741 27.2698C21.1009 27.2702 21.1275 27.2743 21.1543 27.2743C21.342 27.2743 21.526 27.2606 21.7079 27.2389L20.0652 31.467ZM21.2228 31.5387C21.1996 31.5387 21.1771 31.5422 21.154 31.5422C20.9707 31.5422 20.7914 31.5253 20.6111 31.5137L22.3179 27.1215C22.5643 27.058 22.805 26.9787 23.0346 26.8774L21.2228 31.5387ZM22.4475 31.435C22.233 31.467 22.0161 31.4927 21.7972 31.5089L23.7507 26.4808C24.1026 26.2449 24.4198 25.9617 24.6985 25.6417L22.4475 31.435ZM23.7451 31.147C23.5185 31.2174 23.2868 31.2775 23.0528 31.329L28.5147 17.2705C28.6504 17.4724 28.7736 17.6829 28.8934 17.8961L23.7451 31.147ZM25.1581 30.5598C24.912 30.6872 24.6599 30.8029 24.4021 30.907L29.2127 18.5265C29.3305 18.7806 29.4366 19.0405 29.5313 19.3066L25.1581 30.5598ZM26.7488 29.5143C26.4745 29.7412 26.1841 29.9469 25.8843 30.1399L29.778 20.1195C29.867 20.468 29.9368 20.8234 29.9848 21.1867L26.7488 29.5143ZM29.8918 24.2202L28.7174 27.2434C28.4056 27.7499 28.0457 28.2224 27.6461 28.657L30.0751 22.4053C30.0751 22.409 30.0754 22.4135 30.0754 22.4176C30.0761 23.0357 30.0096 23.6368 29.8918 24.2202Z" fill="white"/>
<path d="M41.0786 32.2233H37.846V28.9172C37.846 28.6449 37.6304 28.4248 37.3645 28.4248H33.0988C32.8333 28.4248 32.6174 28.6449 32.6174 28.9172V32.2233H29.3848C29.1192 32.2233 28.9033 32.4434 28.9033 32.7157V37.0783C28.9033 37.3506 29.1189 37.5707 29.3848 37.5707H32.6174V40.8768C32.6174 41.1491 32.8329 41.3692 33.0988 41.3692H37.3645C37.6301 41.3692 37.846 41.1491 37.846 40.8768V37.5707H41.0786C41.3442 37.5707 41.56 37.3506 41.56 37.0783V32.7157C41.5597 32.4437 41.3442 32.2233 41.0786 32.2233Z" fill="white"/>
</svg>
