<svg xmlns="http://www.w3.org/2000/svg" version="1.1" xmlns:xlink="http://www.w3.org/1999/xlink" width="512" height="512" x="0" y="0" viewBox="0 0 56 56" style="enable-background:new 0 0 512 512" xml:space="preserve" class=""><g><path d="M28.095 49.372c-.18 0-.36-.049-.52-.146-6.074-3.699-12.33-10.382-15.518-14.036a31.134 31.134 0 0 1-3.404-4.688 1.001 1.001 0 0 1 1.725-1.012 29.064 29.064 0 0 0 3.185 4.386c3.021 3.462 8.848 9.7 14.531 13.318 5.682-3.618 11.51-9.856 14.53-13.318 2.452-2.811 4.197-5.764 5.187-8.78 2.054-6.254.813-11-3.69-14.105-8.107-5.596-13.456.327-14.902 2.275-.526.71-1.721.71-2.248 0-1.445-1.949-6.792-7.872-14.903-2.275-3.854 2.659-5.318 6.558-4.35 11.587a1 1 0 0 1-1.964.378c-1.116-5.798.675-10.504 5.178-13.611 8.913-6.149 15.162-.261 17.163 2.122 2-2.381 8.249-8.271 17.162-2.122 5.245 3.618 6.785 9.281 4.455 16.375-1.073 3.272-2.95 6.458-5.579 9.471-3.188 3.655-9.444 10.338-15.518 14.036-.159.096-.34.145-.52.145z" fill="#ffffff" opacity="1" data-original="#000000"></path><path d="M22.322 35.917h-.017a1.001 1.001 0 0 1-.958-.774l-3.554-15.331-2.884 6.828c-.157.37-.52.611-.921.611h-7.75a1 1 0 0 1 0-2h7.087l3.825-9.056a.989.989 0 0 1 1.007-.607.998.998 0 0 1 .888.771l3.345 14.43 2.933-10.963a.98.98 0 0 1 .978-.742 1 1 0 0 1 .96.765l1.347 5.568h6.379a1 1 0 1 1 0 2H27.82a1 1 0 0 1-.972-.765l-.609-2.517-2.953 11.041a.996.996 0 0 1-.964.741z" fill="#ffffff" opacity="1" data-original="#000000"></path></g></svg>