<svg xmlns="http://www.w3.org/2000/svg" version="1.1" xmlns:xlink="http://www.w3.org/1999/xlink" width="512" height="512" x="0" y="0" viewBox="0 0 512 512" style="enable-background:new 0 0 512 512" xml:space="preserve" class=""><g><path d="M445.18 269.93h-37.912l.947-.947a102.787 102.787 0 1 0-145.367-145.36l-6.754 6.75-6.942-6.937a102.79 102.79 0 0 0-145.367 145.367l1.127 1.127H66.82a6 6 0 1 0 0 12h50.092l134.94 134.935a5.998 5.998 0 0 0 8.484 0L395.268 281.93h49.912a6 6 0 0 0 0-12zm-332.91-9.611A90.791 90.791 0 0 1 240.668 131.92l11.184 11.18a5.998 5.998 0 0 0 8.484 0l10.996-10.992a90.789 90.789 0 0 1 128.399 128.39l-9.432 9.432h-18.483l-39.05-100.867a6.002 6.002 0 0 0-11.192-.008l-50.683 130.898-10.13-26.195a5.962 5.962 0 0 0-5.597-3.828H121.881zm143.824 143.82L133.881 281.93h117.17l14.246 36.805a5.962 5.962 0 0 0 5.598 3.828 5.888 5.888 0 0 0 5.598-3.828l50.675-130.891 34.941 90.25a6.122 6.122 0 0 0 5.598 3.836h10.592z" fill="#ffffff" opacity="1" data-original="#000000"></path></g></svg>