<svg width="61" height="61" viewBox="0 0 61 61" fill="none" xmlns="http://www.w3.org/2000/svg">
<path d="M23.9018 17.311C23.4301 18.1355 22.7998 18.8315 22.0608 19.341C22.7997 19.8509 23.4297 20.5456 23.9018 21.3713C24.3735 20.5464 25.0038 19.8508 25.7424 19.341C25.0038 18.8315 24.3735 18.1355 23.9018 17.311Z" fill="#07332F"/>
<path d="M38.4674 23.3629C37.8008 24.7016 36.8129 25.8021 35.6245 26.5223C36.8121 27.2429 37.8008 28.3426 38.4674 29.6821C39.1339 28.3426 40.1226 27.2429 41.3102 26.5223C40.1226 25.802 39.1339 24.7016 38.4674 23.3629Z" fill="#07332F"/>
<path d="M46.5675 13.0838C47.2516 11.5495 48.2836 10.2577 49.5368 9.33261C48.6833 7.50709 47.3606 6.39753 45.792 5.8009C44.9763 7.04578 43.9093 8.05872 42.676 8.73364C44.3499 9.64917 45.7216 11.1855 46.5675 13.0838Z" fill="#07332F"/>
<path d="M47.4962 17.5188C47.4962 18.0315 47.0806 18.4471 46.5679 18.4471C46.0553 18.4471 45.6397 18.0315 45.6397 17.5188C45.6397 13.1857 42.7029 9.66165 39.0925 9.66165C38.5799 9.66165 38.1643 9.24605 38.1643 8.7334C38.1643 8.22075 38.5799 7.80514 39.0925 7.80514C40.9701 7.80514 42.6612 6.84627 43.8563 5.32141C39.6087 4.76621 34.4227 6.84504 31.6865 8.55001C33.5025 9.80161 35.5944 11.0882 37.4811 11.058H37.4903C37.9508 11.058 38.3267 11.4286 38.3314 11.8908C38.3358 12.3549 37.9632 12.7351 37.499 12.7399C37.4795 12.7403 37.4597 12.7403 37.4398 12.7403C34.7167 12.7403 32.0107 10.8373 29.8328 9.30612C29.1396 8.81933 28.485 8.35838 27.9317 8.03467C27.9146 8.02433 27.9011 8.012 27.8856 8.00087C22.085 4.84231 9.47058 1.48715 9.95419 15.6429C10.6764 36.8303 18.2551 28.6791 16.1669 42.094C15.439 46.7659 19.8902 55.6973 23.4605 55.6973C27.0302 55.6973 15.7744 36.4709 30.2573 36.4943C44.7403 36.4712 33.4851 55.6973 37.0542 55.6973C40.6244 55.6973 45.0764 46.7663 44.3486 42.094C42.2594 28.6791 49.8374 36.8308 50.5613 15.6429C50.6205 13.9029 50.4754 12.4381 50.1759 11.1941C48.5548 12.6258 47.4966 14.9239 47.4966 17.5189L47.4962 17.5188ZM17.0183 27.2018C16.8871 27.2765 16.7439 27.3119 16.6027 27.3119C16.3104 27.3119 16.0256 27.1592 15.8705 26.8868C13.2448 22.2737 13.1681 14.4778 14.2686 11.1373C14.4141 10.6954 14.891 10.4572 15.3309 10.6011C15.7724 10.7471 16.0122 11.2228 15.867 11.6635C14.8851 14.6431 14.9698 21.9018 17.3329 26.0538C17.5628 26.4583 17.422 26.9713 17.0183 27.2012L17.0183 27.2018ZM28.6658 20.2685C26.5511 20.2685 24.8302 22.3636 24.8302 24.9388C24.8302 25.4514 24.4146 25.867 23.902 25.867C23.3893 25.867 22.9737 25.4514 22.9737 24.9388C22.9737 22.3632 21.2529 20.2685 19.1378 20.2685C18.6252 20.2685 18.2096 19.8529 18.2096 19.3402C18.2096 18.8284 18.6252 18.412 19.1378 18.412C21.2525 18.412 22.9737 16.3173 22.9737 13.7417C22.9737 13.229 23.3893 12.8134 23.902 12.8134C24.4146 12.8134 24.8302 13.229 24.8302 13.7417C24.8302 16.3177 26.5511 18.412 28.6658 18.412C29.1784 18.412 29.594 18.8276 29.594 19.3402C29.594 19.8533 29.1784 20.2685 28.6658 20.2685ZM44.5782 27.4503C41.7207 27.4503 39.3961 30.2562 39.3961 33.7039C39.3961 34.2165 38.9805 34.6321 38.4678 34.6321C37.9552 34.6321 37.5396 34.2165 37.5396 33.7039C37.5396 30.2562 35.215 27.4503 32.3575 27.4503C31.8448 27.4503 31.4292 27.0347 31.4292 26.522C31.4292 26.0094 31.8448 25.5938 32.3575 25.5938C35.215 25.5938 37.5396 22.7887 37.5396 19.3402C37.5396 18.8284 37.9552 18.412 38.4678 18.412C38.9805 18.412 39.3961 18.8276 39.3961 19.3402C39.3961 22.7883 41.7211 25.5938 44.5782 25.5938C45.0908 25.5938 45.5064 26.0094 45.5064 26.522C45.5064 27.0343 45.0912 27.4503 44.5782 27.4503Z" fill="#07332F"/>
<path d="M46.5675 4.38281C45.7216 6.28072 44.3495 7.81698 42.6763 8.733C44.3499 9.64852 45.7215 11.1853 46.5675 13.0832C47.4134 11.1853 48.7859 9.64901 50.4595 8.733C48.7863 7.81707 47.4143 6.28072 46.5675 4.38281Z" fill="#07332F"/>
</svg>
