<svg width="61" height="61" viewBox="0 0 61 61" fill="none" xmlns="http://www.w3.org/2000/svg">
<path d="M53.0147 8.27775C51.5254 6.79629 49.5579 5.98633 47.4671 5.98633H47.4594C45.3686 5.98633 43.3934 6.80431 41.9195 8.28581L39.9673 10.2303L38.0228 8.29349C36.5417 6.80398 34.5665 5.98633 32.4752 5.98633H32.4676C30.3767 5.98633 28.4092 6.79661 26.9353 8.27775C25.4616 9.7281 24.6435 11.6956 24.6282 13.8177C24.6282 15.9008 25.4462 17.8683 26.9353 19.3729L32.5371 24.9747C33.6635 21.8111 36.6881 19.5427 40.222 19.5427C43.6245 19.5427 46.541 21.6335 47.7682 24.5965L52.9996 19.3652C54.4888 17.8682 55.3067 15.9007 55.3067 13.8099C55.291 11.7033 54.473 9.73616 53.0146 8.27766L53.0147 8.27775Z" fill="#07332F"/>
<path d="M18.3861 44.2785V42.2593C18.3861 41.1152 19.0379 40.0729 20.047 39.6052C23.4997 38.0033 25.7659 34.5173 25.8204 30.7239C25.8372 29.5458 25.1038 28.5188 24.0655 28.1784V21.5567C24.0655 19.669 22.5298 18.1329 20.6425 18.1329L19.878 18.1325V18.1296C19.878 17.7036 19.5328 17.3581 19.1065 17.3581C18.6801 17.3581 18.335 17.7036 18.335 18.1296V19.6788C18.335 20.1048 18.6801 20.4503 19.1065 20.4503C19.5328 20.4503 19.878 20.1048 19.878 19.6788V19.6759H20.6421C21.6789 19.6759 22.5222 20.5195 22.5222 21.5566V28.1809C22.2038 28.283 21.9036 28.4419 21.6453 28.6644C21.0868 29.1453 20.7665 29.8432 20.7665 30.5799C20.7665 32.3649 19.786 34.0103 18.209 34.8729C16.5412 35.7853 14.551 35.6484 12.7503 34.4941C11.5861 33.749 10.9395 32.3421 10.9764 30.6355C10.9918 29.9204 10.7026 29.2294 10.1826 28.7397C9.90661 28.4802 9.57576 28.2951 9.2211 28.1812V21.5566C9.2211 20.5194 10.0647 19.6758 11.1019 19.6758H11.8832V19.6787C11.8832 20.1047 12.2287 20.4502 12.6547 20.4502C13.0807 20.4502 13.4262 20.1047 13.4262 19.6787V18.1295C13.4262 17.7035 13.0807 17.358 12.6547 17.358C12.2287 17.358 11.8832 17.7035 11.8832 18.1295V18.1325H11.1015C9.21379 18.1325 7.67771 19.6685 7.67771 21.5562V28.1828C6.6442 28.5275 5.906 29.5468 5.92314 30.7301C5.97987 34.5206 8.24605 38.0044 11.6965 39.6052C12.7056 40.0733 13.3577 41.1153 13.3577 42.2593V44.2785C13.3577 45.6648 14.4853 46.7924 15.8716 46.7924C17.258 46.7928 18.3859 45.6652 18.3859 44.2785L18.3861 44.2785Z" fill="#07332F"/>
<path d="M39.4968 35.8153V46.023C39.4968 50.2666 36.04 53.7234 31.7964 53.7234H24.3431C20.8479 53.7234 17.8926 51.3778 16.9591 48.1835C16.6118 48.2837 16.2491 48.3379 15.871 48.3379C15.7089 48.3379 15.5471 48.3302 15.385 48.3072C16.4035 52.3041 20.0377 55.2667 24.3432 55.2667H31.7965C36.8965 55.2667 41.0401 51.1157 41.0401 46.023V35.8069C40.77 35.8299 40.4999 35.8453 40.2221 35.8453C39.9751 35.8453 39.7361 35.8376 39.4967 35.8146L39.4968 35.8153Z" fill="#07332F"/>
<path d="M40.2238 26.1405C39.3663 26.1405 38.6694 26.8377 38.6694 27.6952C38.6694 28.5524 39.3663 29.2496 40.2238 29.2496C41.0813 29.2496 41.7781 28.5524 41.7781 27.6952C41.7781 26.8381 41.0813 26.1405 40.2238 26.1405Z" fill="#07332F"/>
<path d="M40.2239 21.0868C36.5791 21.0868 33.6143 24.0517 33.6143 27.6961C33.6143 31.3405 36.5791 34.3054 40.2239 34.3054C43.8677 34.3054 46.8329 31.3405 46.8329 27.6961C46.8329 24.0517 43.8677 21.0868 40.2239 21.0868ZM40.2239 30.7942C38.5159 30.7942 37.1263 29.4049 37.1263 27.6966C37.1263 25.9886 38.5156 24.5986 40.2239 24.5986C41.9319 24.5986 43.3216 25.9882 43.3216 27.6966C43.3216 29.4046 41.9319 30.7942 40.2239 30.7942Z" fill="#07332F"/>
</svg>
