<svg width="45" height="46" viewBox="0 0 45 46" fill="none" xmlns="http://www.w3.org/2000/svg">
<path fill-rule="evenodd" clip-rule="evenodd" d="M22.6924 38.1136C22.6924 38.1136 4.72656 26.7014 4.72656 19.1311C4.72656 7.38035 18.1726 4.32927 22.6924 11.8995C27.0991 4.32927 40.5454 7.37995 40.5454 19.1311C40.5454 26.7014 22.6924 38.1136 22.6924 38.1136ZM14.2184 22.973L16.3654 19.4703C16.7045 19.0183 17.4952 19.0183 17.6084 19.5834L20.3201 28.9617L24.5008 14.3856C24.7268 13.7076 25.6307 13.7076 25.8567 14.3856L29.5855 25.9106L31.2804 23.3117C31.3936 23.0857 31.6195 22.9726 31.8455 22.9726H36.5911C37.3821 22.9726 37.3821 24.3285 36.5911 24.3285H32.1844L29.9246 27.8313C29.5855 28.2833 28.7947 28.1704 28.6816 27.6053L25.1788 16.8711L20.8852 31.4472C20.7721 32.1252 19.8682 32.2383 19.6422 31.5604L16.8174 21.5041L15.2355 23.9898C15.1224 24.2158 14.8964 24.3289 14.6704 24.3289H8.79476C7.89086 24.3289 7.89086 22.973 8.79476 22.973L14.2184 22.973Z" fill="white"/>
</svg>
