<svg width="48" height="49" viewBox="0 0 48 49" fill="none" xmlns="http://www.w3.org/2000/svg">
<path d="M44.8812 17.7676C44.6406 17.612 44.3697 17.5369 44.1013 17.5369C43.6748 17.5369 43.2543 17.7265 42.9721 18.0836L42.5554 18.6112C42.2501 18.9976 41.7848 19.2231 41.2923 19.2231C40.089 19.2231 38.9482 19.7582 38.179 20.6835L37.0517 22.0394L37.0542 22.0415L32.7902 26.7561C32.7174 26.837 32.6173 26.8838 32.5085 26.8883C32.3903 26.8922 32.2956 26.854 32.2166 26.7794L26.8158 21.7C25.1674 20.1499 23.0138 19.2962 20.7514 19.2962H19.9066C19.8657 19.2962 19.8256 19.3041 19.7869 19.3163C19.7803 19.3183 19.7743 19.3218 19.7678 19.3242C19.7463 19.332 19.7245 19.3389 19.7046 19.3503L19.2043 19.6405C17.3509 20.7158 15.0462 20.7192 13.1906 19.6497L12.6695 19.3498C12.6604 19.3446 12.6492 19.3445 12.6396 19.3403C12.6041 19.3232 12.5665 19.3104 12.5271 19.3039C12.5181 19.3025 12.5092 19.301 12.5 19.3004C12.4894 19.2995 12.4792 19.2962 12.4685 19.2962H11.8202C9.75422 19.2962 7.71726 19.9936 6.08498 21.2599C3.55464 23.2225 2.21442 26.2989 2.50043 29.4882L3.87567 45.0307C3.93418 45.678 4.46816 46.1662 5.11812 46.1662H24.3005C24.6409 46.1662 24.9705 46.0245 25.205 45.7778C25.4427 45.5273 25.5638 45.1992 25.546 44.8552L25.2984 39.8736C25.1785 37.5638 25.434 35.3929 26.0578 33.4213C26.0971 33.2972 26.1313 33.1715 26.165 33.0456C26.1655 33.043 26.167 33.0412 26.1675 33.0387C26.1678 33.0372 26.168 33.0357 26.1681 33.0342C26.3038 32.5247 26.3965 32.0011 26.4413 31.4669L29.9034 34.1007C30.6429 34.6633 31.5623 34.9733 32.4916 34.9733C33.9049 34.9733 35.2248 34.2763 36.0225 33.1089L41.5431 25.0235L45.2696 19.8106C45.7468 19.1439 45.5699 18.2136 44.8812 17.768L44.8812 17.7676ZM41.2925 20.0278C42.0356 20.0278 42.7262 19.6932 43.1871 19.1099L43.6037 18.5823C43.7246 18.4294 43.906 18.3416 44.1013 18.3416C44.2229 18.3416 44.3414 18.3766 44.4442 18.4432C44.5909 18.5381 44.6894 18.6848 44.7221 18.8563C44.7548 19.0278 44.7168 19.2004 44.6152 19.3426L41.171 24.1611L38.2163 21.898L38.7982 21.198C39.4163 20.4545 40.3255 20.028 41.2925 20.028L41.2925 20.0278ZM7.36496 33.2699C6.93075 31.6688 6.75204 29.5745 6.83333 27.045C6.84087 26.823 6.66635 26.6371 6.44438 26.6299C6.44002 26.6297 6.43566 26.6297 6.43096 26.6297C6.21486 26.6297 6.03615 26.8014 6.02944 27.0192C5.94494 29.6287 6.13322 31.8024 6.58854 33.4806C7.11665 35.4287 7.33592 37.3521 7.24004 39.1973L6.93039 45.3613H5.11825C4.88756 45.3613 4.69828 45.1879 4.67734 44.9587L3.30211 29.4166C3.04074 26.501 4.26558 23.6896 6.57885 21.8956C7.79297 20.9534 9.25353 20.3631 10.7731 20.1735C10.3421 20.5227 9.90825 20.9956 9.59542 21.6309C8.9419 22.9556 8.99572 24.5917 9.75536 26.4935C9.76106 26.508 9.77112 26.519 9.77833 26.5324C9.26734 26.938 8.93824 27.5628 8.93824 28.2643C8.93824 29.4846 9.93125 30.4773 11.1512 30.4773C12.3712 30.4773 13.3642 29.4846 13.3642 28.2643C13.3642 27.044 12.3712 26.0513 11.1512 26.0513C10.92 26.0513 10.697 26.0874 10.4875 26.1534C9.83382 24.4952 9.77395 23.0958 10.3128 21.995C10.8865 20.8226 12.0027 20.2999 12.4153 20.141L15.4824 25.1015C15.5646 25.2344 15.6747 25.3342 15.7986 25.4009V45.361H7.73596L8.0436 39.2379C8.14352 37.3078 7.91518 35.2997 7.3648 33.2692L7.36496 33.2699ZM11.1512 26.8566C11.9276 26.8566 12.5594 27.4885 12.5594 28.2648C12.5594 29.0412 11.9275 29.6731 11.1512 29.6731C10.3748 29.6731 9.74294 29.0412 9.74294 28.2648C9.74294 27.4885 10.3748 26.8566 11.1512 26.8566ZM35.3581 32.6553C34.711 33.603 33.6393 34.1689 32.4921 34.1689C31.7377 34.1689 30.9915 33.9172 30.3911 33.4604L26.4683 30.4762C26.5932 28.1983 26.2446 26.9834 26.2249 26.9171C26.1617 26.7041 25.9368 26.5837 25.7258 26.6464C25.5128 26.7091 25.3913 26.9326 25.4535 27.1456C25.4594 27.1654 26.019 29.1573 25.3856 32.8332C25.3547 32.9486 25.3271 33.0651 25.2914 33.1786C24.6379 35.2425 24.3703 37.509 24.4949 39.9146L24.7425 44.8962C24.7492 45.0186 24.7059 45.1349 24.6218 45.2239C24.5373 45.3128 24.4233 45.3616 24.3007 45.3616L16.6033 45.3618V25.4021C16.7273 25.3353 16.8375 25.2354 16.9198 25.1023L19.9551 20.1933C20.6884 20.6639 22.8367 22.3935 21.6749 25.9469C21.6558 26.0053 21.6534 26.0641 21.6606 26.1213C21.5112 26.1013 21.36 26.0874 21.2053 26.0874C19.318 26.0874 17.7825 27.6228 17.7825 29.5102V31.3205C17.7825 31.3614 17.7944 31.3986 17.8058 31.4358C17.8815 32.0295 18.3831 32.49 18.9974 32.49C19.6639 32.49 20.2044 31.9495 20.2044 31.2829C20.2044 30.6163 19.6639 30.0758 18.9974 30.0758C18.8527 30.0758 18.7157 30.1055 18.5871 30.1521V29.5102C18.5871 28.0665 19.7615 26.8921 21.2051 26.8921C22.6488 26.8921 23.8232 28.0665 23.8232 29.5102V30.1489C23.6976 30.1047 23.5643 30.0758 23.4233 30.0758C22.7568 30.0758 22.2162 30.6164 22.2162 31.2829C22.2162 31.9495 22.7568 32.49 23.4233 32.49C24.0723 32.49 24.5975 31.9767 24.6252 31.3346C24.6254 31.3295 24.6281 31.3255 24.6281 31.3205V31.3064C24.6282 31.2983 24.6304 31.291 24.6304 31.2829C24.6304 31.2749 24.6282 31.2675 24.6281 31.2596V29.5103C24.6281 28.0382 23.6921 26.784 22.3856 26.3017C22.4077 26.27 22.4268 26.2358 22.4394 26.1974C23.4686 23.0499 22.174 21.1012 21.1361 20.1197C23.0506 20.2106 24.8604 20.9662 26.2644 22.2869L31.6649 27.3659C31.9029 27.5897 32.2143 27.7057 32.5406 27.6926C32.8676 27.6794 33.1682 27.5386 33.387 27.2963L37.6973 22.5306L40.7071 24.8219L35.3581 32.6553Z" fill="#F7A582"/>
<path d="M8.36957 16.8453H11.2342C12.5295 18.0601 14.2667 18.8095 16.1827 18.8095C18.0988 18.8095 19.8358 18.0601 21.1312 16.8453H23.769C24.3384 16.8453 24.7198 16.2721 24.5144 15.7411C23.652 13.5107 23.8076 11.6546 23.8076 11.6546C24.0651 7.21557 20.5347 3.47437 16.0883 3.47437C11.6415 3.47437 8.11142 7.21549 8.36893 11.6546C8.36893 11.6546 8.44957 13.4885 7.61837 15.7577C7.4249 16.285 7.80815 16.8453 8.36979 16.8453H8.36957ZM16.1825 18.0048C14.8163 18.0048 13.5507 17.5739 12.5074 16.8453C11.17 15.9113 10.2014 14.4853 9.87056 12.8297C15.0264 12.5752 16.9869 7.5645 16.9869 7.5645C18.9362 10.0773 21.8354 10.4729 22.5289 10.5326C22.5839 10.8702 22.62 11.2141 22.62 11.5668C22.62 13.7505 21.5247 15.6806 19.8573 16.8449C18.814 17.5736 17.5484 18.0044 16.1822 18.0044L16.1825 18.0048Z" fill="#F7A582"/>
<path d="M29.8631 14.3834H32.2772V16.7975C32.2772 17.242 32.6375 17.6023 33.082 17.6023H35.4961C35.9405 17.6023 36.3008 17.242 36.3008 16.7975V14.3834H38.715C39.1594 14.3834 39.5197 14.0231 39.5197 13.5786V11.1645C39.5197 10.7201 39.1595 10.3598 38.715 10.3598H36.3008V7.94559C36.3008 7.50117 35.9406 7.14087 35.4961 7.14087H33.082C32.6375 7.14087 32.2772 7.50115 32.2772 7.94559V10.3598H29.8631C29.4187 10.3598 29.0583 10.72 29.0583 11.1645V13.5786C29.0583 14.0231 29.4186 14.3834 29.8631 14.3834Z" fill="#F7A582"/>
</svg>
