<svg width="43" height="42" viewBox="0 0 43 42" fill="none" xmlns="http://www.w3.org/2000/svg">
<path d="M33.1126 11.6012V11.5475C31.5363 6.88112 27.9779 3.15041 23.3913 1.35539C18.8051 -0.440123 13.6593 -0.115869 9.33411 2.24063H9.2587C8.0478 2.91405 6.92719 3.73832 5.92332 4.69362H5.84791C2.35354 8.02126 0.475519 12.7021 0.700788 17.5224C0.925577 22.3429 3.23162 26.8283 7.02086 29.8163C7.26102 30.0045 7.40945 30.2865 7.42961 30.591C7.44931 30.8989 7.33595 31.2006 7.11788 31.4191C5.72495 32.7198 4.14757 33.8073 2.43765 34.6469C6.38108 35.9539 10.6545 35.8665 14.5419 34.3995C15.1812 34.1512 15.8061 33.8678 16.4138 33.5498C16.5829 33.4595 16.7711 33.4115 16.9628 33.4096H17.361H17.3605C21.7459 33.3904 25.9468 31.6453 29.0554 28.553C32.1641 25.4602 33.9307 21.2684 33.973 16.8836C33.9759 15.0877 33.6853 13.3032 33.1122 11.6009L33.1126 11.6012ZM25.3659 17.4218H18.3724V24.4154C18.3724 25.0095 17.8906 25.4913 17.2965 25.4913C16.7023 25.4913 16.2206 25.0095 16.2206 24.4154V17.4218H9.22701C8.63285 17.4218 8.15108 16.9401 8.15108 16.3459C8.15108 15.7518 8.63285 15.27 9.22701 15.27H16.2206V8.27644C16.2206 7.68228 16.7023 7.20051 17.2965 7.20051C17.8906 7.20051 18.3724 7.68228 18.3724 8.27644V15.27H25.3659C25.9601 15.27 26.4419 15.7518 26.4419 16.3459C26.4419 16.9401 25.9601 17.4218 25.3659 17.4218Z" fill="white"/>
<path d="M38.1056 38.6931C37.9654 38.5428 37.8952 38.3406 37.9116 38.136C37.9279 37.9313 38.0297 37.7431 38.1916 37.6172C40.8142 35.5475 42.4103 32.4422 42.5674 29.1048C42.7239 25.7675 41.4261 22.5258 39.0091 20.2193C38.2895 19.5463 37.4869 18.9675 36.6204 18.4978H36.556L36.1256 18.1855C35.8384 22.2015 34.2736 26.0202 31.6601 29.0832C29.0466 32.1457 25.5215 34.2918 21.6006 35.2069C23.7529 38.2886 27.2776 40.1211 31.0365 40.1134H31.1225C31.3055 40.0889 31.4914 40.1148 31.6605 40.1883C34.6539 41.7354 38.1448 42.0106 41.3438 40.9525C40.1671 40.3996 39.0791 39.6743 38.1161 38.8006L38.1056 38.6931ZM31.4132 32.6569C31.003 32.6569 30.6706 32.3245 30.6706 31.9148C30.6706 31.5046 31.003 31.1722 31.4132 31.1722C31.8229 31.1722 32.1553 31.5046 32.1553 31.9148C32.1553 32.3245 31.8229 32.6569 31.4132 32.6569ZM34.3936 32.6574V32.6569C33.9815 32.6569 33.6462 32.3264 33.6404 31.9148C33.6404 31.5046 33.9728 31.1722 34.3826 31.1722C34.7927 31.1722 35.1251 31.5046 35.1251 31.9148C35.1251 32.3245 34.7928 32.6569 34.3826 32.6569L34.3936 32.6574ZM37.374 32.6574L37.3735 32.6569C36.9619 32.6569 36.6266 32.3264 36.6204 31.9148C36.6204 31.5046 36.9527 31.1722 37.3629 31.1722C37.7731 31.1722 38.1055 31.5046 38.1055 31.9148C38.1055 32.3245 37.7731 32.6569 37.3629 32.6569L37.374 32.6574Z" fill="white"/>
</svg>
