<svg width="61" height="61" viewBox="0 0 61 61" fill="none" xmlns="http://www.w3.org/2000/svg">
<path fill-rule="evenodd" clip-rule="evenodd" d="M30.6961 51.9355C30.6961 51.9355 4.77588 35.4706 4.77588 24.5486C4.77588 7.59514 24.1751 3.19319 30.6961 14.1152C37.0538 3.19319 56.4534 7.59456 56.4534 24.5486C56.4534 35.4706 30.6961 51.9355 30.6961 51.9355ZM18.4703 30.0915L21.5677 25.0378C22.057 24.3858 23.1978 24.3858 23.3611 25.201L27.2734 38.7316L33.3052 17.7019C33.6312 16.7238 34.9353 16.7238 35.2614 17.7019L40.641 34.3297L43.0865 30.5801C43.2497 30.2541 43.5757 30.0909 43.9017 30.0909H50.7484C51.8896 30.0909 51.8896 32.0471 50.7484 32.0471H44.3906L41.1303 37.1007C40.6411 37.7528 39.5002 37.59 39.3369 36.7747L34.2833 21.2879L28.0888 42.3176C27.9256 43.2957 26.6214 43.4589 26.2954 42.4808L22.2199 27.9721L19.9376 31.5585C19.7744 31.8845 19.4484 32.0477 19.1224 32.0477H10.6453C9.34117 32.0477 9.34117 30.0915 10.6453 30.0915L18.4703 30.0915Z" fill="#07332F"/>
</svg>
