<svg width="45" height="46" viewBox="0 0 45 46" fill="none" xmlns="http://www.w3.org/2000/svg">
<path d="M36.9221 8.69648C35.9723 7.75167 34.7175 7.23511 33.3841 7.23511H33.3792C32.0457 7.23511 30.786 7.75678 29.8461 8.70162L28.601 9.94173L27.3609 8.70652C26.4163 7.75657 25.1566 7.23511 23.8229 7.23511H23.818C22.4846 7.23511 21.2297 7.75187 20.2898 8.69648C19.3499 9.62146 18.8282 10.8763 18.8184 12.2296C18.8184 13.5582 19.34 14.813 20.2898 15.7725L23.8623 19.3451C24.5807 17.3275 26.5097 15.8808 28.7635 15.8808C30.9334 15.8808 32.7935 17.2143 33.5761 19.1039L36.9125 15.7676C37.8623 14.8129 38.3839 13.5581 38.3839 12.2247C38.3739 10.8812 37.8522 9.6266 36.922 8.69642L36.9221 8.69648Z" fill="white"/>
<path d="M14.8372 31.6563V30.3686C14.8372 29.6389 15.2529 28.9742 15.8965 28.6759C18.0985 27.6542 19.5437 25.431 19.5785 23.0117C19.5893 22.2604 19.1215 21.6054 18.4593 21.3884V17.1653C18.4593 15.9614 17.4799 14.9817 16.2763 14.9817L15.7887 14.9815V14.9796C15.7887 14.7079 15.5686 14.4876 15.2966 14.4876C15.0247 14.4876 14.8046 14.7079 14.8046 14.9796V15.9676C14.8046 16.2393 15.0247 16.4597 15.2966 16.4597C15.5686 16.4597 15.7887 16.2393 15.7887 15.9676V15.9658H16.276C16.9373 15.9658 17.475 16.5038 17.475 17.1652V21.39C17.272 21.4551 17.0806 21.5564 16.9158 21.6983C16.5596 22.005 16.3554 22.4501 16.3554 22.9199C16.3554 24.0583 15.7301 25.1077 14.7243 25.6578C13.6606 26.2397 12.3914 26.1524 11.243 25.4162C10.5005 24.941 10.0881 24.0438 10.1116 22.9554C10.1214 22.4993 9.93702 22.0586 9.60534 21.7463C9.42935 21.5808 9.21835 21.4627 8.99216 21.3902V17.1652C8.99216 16.5037 9.53017 15.9657 10.1916 15.9657H10.69V15.9676C10.69 16.2393 10.9103 16.4596 11.182 16.4596C11.4537 16.4596 11.674 16.2393 11.674 15.9676V14.9796C11.674 14.7079 11.4537 14.4875 11.182 14.4875C10.9103 14.4875 10.69 14.7079 10.69 14.9796V14.9814H10.1914C8.9875 14.9814 8.00785 15.9611 8.00785 17.165V21.3911C7.34872 21.611 6.87792 22.2611 6.88886 23.0157C6.92504 25.4331 8.37031 27.655 10.5709 28.6759C11.2144 28.9744 11.6303 29.6389 11.6303 30.3686V31.6563C11.6303 32.5405 12.3494 33.2596 13.2336 33.2596C14.1178 33.2598 14.8371 32.5407 14.8371 31.6563L14.8372 31.6563Z" fill="white"/>
<path d="M28.3003 26.2588V32.7689C28.3003 35.4752 26.0958 37.6798 23.3894 37.6798H18.636C16.4069 37.6798 14.5221 36.1839 13.9267 34.1467C13.7052 34.2107 13.4739 34.2452 13.2328 34.2452C13.1294 34.2452 13.0263 34.2403 12.9229 34.2256C13.5724 36.7746 15.8902 38.6641 18.636 38.6641H23.3894C26.642 38.6641 29.2846 36.0167 29.2846 32.7689V26.2534C29.1124 26.2681 28.9401 26.2779 28.763 26.2779C28.6054 26.2779 28.453 26.273 28.3003 26.2583L28.3003 26.2588Z" fill="white"/>
<path d="M28.7647 20.0886C28.2179 20.0886 27.7734 20.5333 27.7734 21.0802C27.7734 21.6268 28.2178 22.0715 28.7647 22.0715C29.3116 22.0715 29.756 21.6268 29.756 21.0802C29.756 20.5335 29.3116 20.0886 28.7647 20.0886Z" fill="white"/>
<path d="M28.7642 16.8655C26.4397 16.8655 24.5488 18.7564 24.5488 21.0806C24.5488 23.4049 26.4397 25.2958 28.7642 25.2958C31.0881 25.2958 32.9791 23.4049 32.9791 21.0806C32.9791 18.7564 31.0881 16.8655 28.7642 16.8655ZM28.7642 23.0565C27.6749 23.0565 26.7887 22.1705 26.7887 21.0809C26.7887 19.9916 27.6747 19.1051 28.7642 19.1051C29.8535 19.1051 30.7398 19.9914 30.7398 21.0809C30.7398 22.1702 29.8535 23.0565 28.7642 23.0565Z" fill="white"/>
</svg>
