<svg xmlns="http://www.w3.org/2000/svg" version="1.1" xmlns:xlink="http://www.w3.org/1999/xlink" width="512" height="512" x="0" y="0" viewBox="0 0 32 32" style="enable-background:new 0 0 512 512" xml:space="preserve" class=""><g><path d="M23.5 31a.5.5 0 0 0 .5-.5v-3.795l3.371-2.642c.422-.336.987-.995 1.208-1.519l2.38-5.533a.498.498 0 0 0 .041-.198v-4.819c0-.622-.705-1.081-1.386-1.164-.844-.109-1.905.35-2.305 1.947-.206.829-.252 1.53-.293 2.148a.517.517 0 0 0 .465.552c.276.019.513-.17.53-.445.041-.618.084-1.271.269-2.014.126-.502.396-1.119.973-1.196.386-.055.709.152.762.246L30 16.71l-2.341 5.443c-.146.349-.6.88-.908 1.126l-3.56 2.79a.497.497 0 0 0-.191.393V30.5a.5.5 0 0 0 .5.5zM8.5 31a.5.5 0 0 1-.5-.5v-3.795l-3.371-2.642c-.422-.336-.987-.995-1.208-1.519l-2.38-5.533A.498.498 0 0 1 1 16.813v-4.819c0-.622.705-1.081 1.386-1.164.844-.109 1.905.35 2.305 1.947.206.829.252 1.53.293 2.148a.517.517 0 0 1-.465.552c-.276.019-.513-.17-.53-.445-.041-.618-.084-1.271-.269-2.014-.126-.502-.396-1.119-.973-1.196-.386-.055-.709.152-.762.246L2 16.71l2.341 5.443c.146.349.6.88.908 1.126l3.56 2.79a.497.497 0 0 1 .191.393V30.5a.5.5 0 0 1-.5.5zM14.5 31a.5.5 0 0 1-.5-.5v-5.463c0-2.107-1.455-3.944-3.539-4.468a.5.5 0 1 1 .244-.97c2.528.636 4.295 2.872 4.295 5.438V30.5a.5.5 0 0 1-.5.5z" fill="#ffffff" opacity="1" data-original="#000000"></path><path d="M8.762 22.417a.502.502 0 0 1-.354-.146l-4.387-4.38a.5.5 0 0 1 0-.708c1.375-1.375 3.07-1.259 4.649.32l2.255 2.25a.5.5 0 0 1-.707.708l-2.255-2.25c-1.025-1.025-1.984-1.242-2.851-.644l4.002 3.996a.502.502 0 0 1-.352.854zM17.5 31a.5.5 0 0 1-.5-.5v-5.463c0-2.566 1.767-4.802 4.295-5.438a.498.498 0 0 1 .607.363.502.502 0 0 1-.363.607C19.455 21.093 18 22.93 18 25.037V30.5a.5.5 0 0 1-.5.5z" fill="#ffffff" opacity="1" data-original="#000000"></path><path d="M23.238 22.417a.502.502 0 0 1-.354-.854l4.002-3.996c-.866-.597-1.826-.38-2.851.644l-2.255 2.25a.5.5 0 0 1-.707-.708l2.255-2.25c1.579-1.579 3.274-1.695 4.649-.32a.5.5 0 0 1 0 .708l-4.387 4.38a.494.494 0 0 1-.352.146z" fill="#ffffff" opacity="1" data-original="#000000"></path><path d="M23.238 22.417a.502.502 0 0 1-.354-.854l4.002-3.996c-.866-.597-1.826-.38-2.851.644l-2.255 2.25a.5.5 0 0 1-.707-.708l2.255-2.25c1.579-1.579 3.274-1.695 4.649-.32a.5.5 0 0 1 0 .708l-4.387 4.38a.494.494 0 0 1-.352.146zM18.199 12.449c-.271 0-.542-.022-.813-.067-1.294-.215-2.428-.922-3.193-1.992s-1.067-2.372-.853-3.666a1.663 1.663 0 0 1 3.28.546c-.06.36.008.733.188 1.048a.5.5 0 1 1-.868.498 2.6 2.6 0 0 1-.308-1.709.665.665 0 0 0-.545-.764.665.665 0 0 0-.763.545c-.171 1.03.07 2.067.68 2.92s1.514 1.417 2.544 1.588c.283.046.57.064.85.048a.5.5 0 0 1 .052.999 5.132 5.132 0 0 1-.251.006z" fill="#ffffff" opacity="1" data-original="#000000"></path><path d="M15.286 19.2c-.458 0-.945-.044-1.465-.14-1.352-.25-2.455-1.028-3.107-2.193-.449-.801-.825-2.054-.572-3.89a2.763 2.763 0 0 1-.541.183c-.693.167-1.687-.125-2.265-.663-.438-.409-.629-.94-.536-1.495.081-.479.317-.86.683-1.103.417-.276.918-.321 1.267-.3.698-1.844 2.171-2.747 3.847-2.319.739.189 1.34.646 1.737 1.321.723 1.227.659 2.895.358 4.046a.5.5 0 1 1-.966-.252c.237-.914.314-2.322-.253-3.286a1.786 1.786 0 0 0-1.124-.86c-1.271-.327-2.302.439-2.775 2.039a.501.501 0 0 1-.595.345c-.163-.037-.655-.091-.945.103-.084.057-.201.163-.247.434-.014.081-.056.329.231.597.39.363 1.062.491 1.349.422.354-.085.825-.199 1.332-1.46.057-.164.117-.331.183-.501a.5.5 0 0 1 .942.337c-.061.179-.121.345-.183.5-.757 2.195-.776 4.025-.054 5.315.504.9 1.362 1.503 2.417 1.698 4.44.818 6.116-2.646 7.115-4.718.339-.704.544-1.128.834-1.335a5.63 5.63 0 0 1 .504-.285c1.19-.625 3.978-2.09 4.293-4.835.265-2.291-1.39-4.465-3.686-4.846a4.13 4.13 0 0 0-3.095.718 4.127 4.127 0 0 0-1.681 2.697c-.026.214-.19.459-.401.501a1.58 1.58 0 0 0-.443 2.953.5.5 0 1 1-.475.881 2.59 2.59 0 0 1-1.334-2.703 2.602 2.602 0 0 1 1.707-2.017 5.107 5.107 0 0 1 2.044-3.125 5.117 5.117 0 0 1 3.841-.892c2.813.467 4.839 3.135 4.516 5.947-.377 3.271-3.606 4.967-4.822 5.606-.182.096-.318.164-.387.212-.097.09-.329.571-.516.957-.876 1.818-2.608 5.406-6.732 5.406z" fill="#ffffff" opacity="1" data-original="#000000"></path></g></svg>