<svg xmlns="http://www.w3.org/2000/svg" version="1.1" xmlns:xlink="http://www.w3.org/1999/xlink" width="512" height="512" x="0" y="0" viewBox="0 0 128 128" style="enable-background:new 0 0 512 512" xml:space="preserve" class=""><g><path d="M111.23 107.91c-.45-2.22-3.21-3.79-6.71-5.77-2.15-1.22-4.59-2.6-5.42-3.67-1.71-2.2-2.39-8-2.23-11.42.08-1.66 2.39-7.54 4.63-13.23 3.43-8.73 7.32-18.62 7.78-24.1 1-12.25-2.4-29-15.14-39.13C88.32 6 77.69.75 65.28.06c-9.85-.55-24 1.72-35.5 15.61-5.48 6.64-8.36 11.8-8.56 15.33 0 .2-.9 19.93.7 22.18.2.28.44.59.7.91A8.45 8.45 0 0 1 24 56.25c-.19.66-1.22 3.11-6.32 12.2l-.37.66a6.4 6.4 0 0 0 1.3 7.31A10.65 10.65 0 0 0 22 77.87c.58.19 1.44.47 2 .7a9.48 9.48 0 0 1-.7 2.92c-1.33 2.33 1.19 4.2 2.87 5.36a4.72 4.72 0 0 0-.75 1.57 3.51 3.51 0 0 0 .83 2.85 8.21 8.21 0 0 1 .86 1.61 26.4 26.4 0 0 1-.43 5.37l-.24 1.75c-.54 4.22 3.94 7.35 7.09 8.43 1.13.39 9.45.31 13.55-.69a100.31 100.31 0 0 1 6.29 18.5 2.07 2.07 0 0 0 .94 1.3c.47.28 2.17.41 4.59.41 7.12 0 20.49-1.14 27.36-3 4.71-1.29 11.12-4.73 15.56-7.51 10.05-6.31 9.62-8.44 9.41-9.53zm-62.84-.55a2.4 2.4 0 0 0 .73-.44 1.87 1.87 0 0 1-.74.43zm36.81 13.75c-8.55 2.34-23.82 3-28.25 2.89a113.74 113.74 0 0 0-3.74-12c-3-8-3.94-8.26-4.81-8.51a2.14 2.14 0 0 0-1.8.28 56.57 56.57 0 0 1-11.78.86c-2.24-.77-4.6-2.66-4.42-4.15l.23-1.75c.45-3.43.75-5.69.26-7.16a11.57 11.57 0 0 0-1.28-2.48l-.07-.1.24-.23a2.87 2.87 0 0 0 1.14-2.09 2.53 2.53 0 0 0-.81-1.88 11.13 11.13 0 0 0-1.48-1.13c-.38-.26-1-.72-1.48-1.09a12.71 12.71 0 0 0 .85-5.3c-.3-1.77-2.15-2.37-4.73-3.21-.72-.24-1.82-.59-2-.72a2.73 2.73 0 0 1-.37-2.3l.36-.65C27.51 59.14 28 57.33 28 56.34c0-1.86-1.26-3.45-2.28-4.72l-.43-.55c-.48-2.21-.38-14.92-.11-19.83.14-2.56 2.93-7.31 7.65-13C52-4.94 81.25 5.43 91.64 13.72c14.85 11.86 14 31.79 13.65 35.67-.41 4.9-4.35 14.92-7.52 23-3.06 7.78-4.79 12.29-4.9 14.5-.13 2.65.18 10.35 3.07 14.07 1.32 1.7 3.89 3.15 6.61 4.69a31.59 31.59 0 0 1 4.51 2.87c-2.2 2.65-14.33 10.53-21.86 12.59z" fill="#ffffff" opacity="1" data-original="#000000" class=""></path><path d="M97.28 58.92c6.12-2.88 4.17-15.64 3.93-17.09a20.77 20.77 0 0 0-4.89-10c-.32-.4-.62-.77-.87-1.13a10.09 10.09 0 0 1-.86-1.85 14.35 14.35 0 0 0-1-2.28 12 12 0 0 0-2.34-2.71c-.31-.29-.65-.61-1-1a8.06 8.06 0 0 1-.56-.64 2 2 0 0 0-.25-.31l-.43-.56a16 16 0 0 0-4.76-4.62C80.84 14.82 71.94 12 65.58 12H63.5c-5.31-.08-10.32-.17-21.38 4.86-12.66 5.78-12.61 15.31-12.56 16.44v1.18a2.6 2.6 0 0 1-.1.5c-.31 1.27-.55 2.79.14 6.2 1.14 5.65 5.26 7.26 9.15 8.1 1.21.26 2.3 1.76 3.67 3.67l.83 1.14A20.58 20.58 0 0 0 53 60.42a12.71 12.71 0 0 0 3 .35 33.87 33.87 0 0 0 5.5-.63h.26c.73.79 1.87 2.08 2.81 3.34a44.17 44.17 0 0 1 2.68 6c1.48 3.52 2.75 6.76 4 8.38a2 2 0 0 0 3.21-2.39 38.18 38.18 0 0 1-2.9-6.23 13.65 13.65 0 0 0 3.91.53 26.61 26.61 0 0 0 5.33-.63c6.08-1.25 10.15-3.3 11.28-9.15a14.11 14.11 0 0 0 5.2-1.07zM54 56.53a16.91 16.91 0 0 1-7.5-4.82l-.8-1.1c-.44-.61-.87-1.2-1.32-1.77a3.54 3.54 0 0 1 .18-3c1.37-2 5-4.95 7.67-4.95h1.22c3.19 0 6.21 0 9.17-1.37a12.42 12.42 0 0 1 8-1.19 4.4 4.4 0 0 1 1.77 1 4.5 4.5 0 0 0 2.94 1.27 4.92 4.92 0 0 0 3.83-2 2 2 0 0 0-1.36-3.15 17.49 17.49 0 0 0 2.72-3.32 2 2 0 1 0-3.48-2 24.65 24.65 0 0 1-4.42 4.65 7.69 7.69 0 0 0-.94-.32 11.45 11.45 0 0 0-2.24-.35 4.43 4.43 0 0 1 .19-.77 2 2 0 0 0-3-2.67 6.51 6.51 0 0 0-1.32 3.75 19.24 19.24 0 0 0-4.44 1.48c-2 .94-4.11 1-6.76 1-.29-4.48-1.2-9.29-3.71-10.4a2 2 0 0 0-1.75 3.59c.6.71 1.21 3.81 1.46 7.08a12.37 12.37 0 0 0-2.55 1C45.89 36.23 43 33.38 40.83 33a2 2 0 0 0-2.29 1.6 2 2 0 0 0 1.59 2.34c.67.14 2.4 1.64 4.07 3.46a16.47 16.47 0 0 0-3 3.19 6.39 6.39 0 0 0-.9 2 6 6 0 0 0-.73-.22c-3.44-.74-5.42-1.75-6.07-5-.57-2.83-.35-3.74-.17-4.47a5.76 5.76 0 0 0 .21-1.45V33.09c0-.05-.28-4.86 4.9-9.27a16.69 16.69 0 0 0 3.4 6.18 2 2 0 0 0 3-2.68c-.8-.9-2.66-3.53-2.7-6 .52-.28 1.08-.56 1.67-.83a48.53 48.53 0 0 1 12.59-4.17 3.89 3.89 0 0 0-.32 1.1 4.86 4.86 0 0 0 .09 1.5 4.36 4.36 0 0 1-.17 2.29 8.07 8.07 0 0 1-.51 1.48 6.55 6.55 0 0 0-.56 3.31 9.79 9.79 0 0 0 2.36 6.13 2 2 0 0 0 3-2.68A6 6 0 0 1 58.93 26c0-1.25 0-1.35.17-1.63a12 12 0 0 0 .73-2.11 8.25 8.25 0 0 0 .24-4v-.28c0-.07.09-.19.13-.3a6.62 6.62 0 0 0 .51-1.68h4.87a26.68 26.68 0 0 1 3.45.25 12.77 12.77 0 0 1-2.61 3.58c-2.23 2.23-2.7 3.81-2.79 4.25a2 2 0 0 0 1.53 2.42 2.07 2.07 0 0 0 .43 0 1.94 1.94 0 0 0 1.92-1.5 6.89 6.89 0 0 1 1.73-2.33 18.1 18.1 0 0 0 3.82-5.52l.06-.13a46.23 46.23 0 0 1 8 2.61H81a7.18 7.18 0 0 0-7.09 4.63 2 2 0 1 0 3.81 1.23A3.22 3.22 0 0 1 81 23.66a13.44 13.44 0 0 1 5.59 1.2c.24.29.48.57.73.83.43.43.81.79 1.15 1.1a8.26 8.26 0 0 1 1.67 1.89 12 12 0 0 1 .73 1.64A12.31 12.31 0 0 0 92.21 33c.29.4.62.82 1 1.27a16.8 16.8 0 0 1 4.07 8.17c1 6 .24 11.9-1.68 12.81-2.44 1.14-7.12.78-12.55.35-3.21-.25-6.85-.54-10.55-.54a61.19 61.19 0 0 0-10.27.94l-1.29.21c-2.88.46-4.94.79-6.94.32zm26 8.69c-6.16 1.27-9.17.43-11.51-3.21v-.05a8.26 8.26 0 0 0-.56-.9c-.41-.56-.86-1.11-1.29-1.63a54.57 54.57 0 0 1 5.91-.32c3.54 0 6.95.27 10.24.53 1.85.14 3.6.28 5.27.35-.87 2.92-2.98 4.18-8.06 5.23z" fill="#ffffff" opacity="1" data-original="#000000" class=""></path><path d="M64.7 48.66a2.28 2.28 0 0 1 .88-.67l.46.36a7 7 0 0 0 4.82 1.9 19.06 19.06 0 0 1 4.12.62 25.32 25.32 0 0 0 5.15.76 7.61 7.61 0 0 0 2.36-.34A5.21 5.21 0 0 0 86 47.15c.29-1 .44-1.46 1.14-1.86 2.88-1.62 3.34-5.12 3.62-7.2a5.86 5.86 0 0 0-2.37-5.19A2 2 0 1 0 86 36.12s.87.72.77 1.45c-.2 1.52-.47 3.6-1.61 4.24a6.28 6.28 0 0 0-3 4.26c-.32 1.13-.39 1.23-.95 1.42-1.19.39-3.44-.1-5.42-.53a21 21 0 0 0-5.14-.7c-.79.05-1.32-.36-2.12-1-.21-.17-.44-.35-.68-.52a3.94 3.94 0 0 1 .52-.47A2 2 0 0 0 66 41.08a6.16 6.16 0 0 0-2.4 3.45 7 7 0 0 0-1.67 1.29l-.3.29A8.21 8.21 0 0 0 53 47.25a4.75 4.75 0 0 1-.83-.84A2 2 0 1 0 49 48.78a6.35 6.35 0 0 0 3.68 2.57 3.19 3.19 0 0 0 2.41-.63c2.21-1.69 3.34-1.55 5.22-.85a3.92 3.92 0 0 0 4.39-1.21z" fill="#ffffff" opacity="1" data-original="#000000" class=""></path></g></svg>