<svg width="30" height="42" viewBox="0 0 30 42" fill="none" xmlns="http://www.w3.org/2000/svg">
<path d="M26.2251 21.7876C24.2082 21.7876 22.5673 23.4283 22.5673 25.4453C22.5673 27.2449 23.8735 28.7449 25.5877 29.0472V34.173C25.5877 37.5482 22.8262 40.3641 19.451 40.3659C16.0643 40.3677 13.3083 37.6126 13.3083 34.2261V22.0506C13.3338 22.0366 13.3596 22.0223 13.3854 22.0084C14.1128 21.6103 15.7848 20.6952 17.5809 19.3632C17.6794 19.29 17.6997 19.1509 17.6259 19.0527L17.6052 19.0254C18.0874 18.6471 18.5872 18.2309 19.0767 17.7937C22.1489 15.0504 23.9704 12.2143 24.4908 9.36397C24.7998 7.67227 24.6473 6.09817 24.0375 4.68571C23.4879 3.41238 22.5761 2.32775 21.4015 1.54903C20.2372 0.77731 18.8891 0.347106 17.5034 0.304872C17.123 0.293326 16.7466 0.31186 16.3769 0.359256C16.2757 0.285731 16.1569 0.249572 16.0375 0.265377L14.6617 0.448889C14.3661 0.488386 14.1841 0.827456 14.2662 1.18567L14.3233 1.43571C14.4053 1.79392 14.7167 2.01966 15.0002 1.92669L16.3185 1.49314C16.4759 1.44149 16.5889 1.30203 16.6354 1.12703C18.1034 0.972685 19.6378 1.33636 20.9609 2.21353C23.2095 3.70378 24.2358 6.32369 23.7069 9.22127C23.2882 11.5133 21.7384 14.7825 17.1242 18.3883L17.1239 18.388C17.051 18.2914 16.9137 18.2714 16.8167 18.3434C15.0925 19.6213 13.4762 20.5057 12.7728 20.8906C12.7358 20.911 12.7017 20.9295 12.6701 20.9468C12.6386 20.9295 12.6045 20.911 12.5675 20.8906C11.8641 20.5057 10.2481 19.6213 8.52387 18.3434C8.42665 18.2714 8.28932 18.2914 8.21671 18.388L8.21154 18.3947C3.58431 14.7844 2.04086 11.5164 1.62186 9.22143C1.0929 6.32416 2.11891 3.70456 4.36661 2.21431C5.68979 1.33688 7.22468 0.972874 8.69339 1.12719C8.73987 1.30219 8.8532 1.44165 9.01027 1.49329L10.3286 1.92685C10.6117 2.02012 10.9234 1.79408 11.0055 1.43587L11.0626 1.18583C11.1446 0.827614 10.9626 0.488551 10.667 0.449047L9.29126 0.265535C9.17185 0.249432 9.05306 0.285891 8.95188 0.359414C8.58152 0.312017 8.20478 0.293181 7.82346 0.30503C6.43775 0.347869 5.08991 0.778386 3.92603 1.55012C2.75172 2.32884 1.84061 3.41347 1.29095 4.6868C0.681477 6.09927 0.528953 7.67313 0.837946 9.36451C1.3584 12.215 3.18011 15.0515 6.25207 17.7942C6.74701 18.236 7.24469 18.6485 7.73198 19.0305L7.73137 19.0314L7.71496 19.053C7.64113 19.1511 7.66149 19.2903 7.75993 19.3635C9.55616 20.6952 11.2281 21.6103 11.9554 22.0083C11.9812 22.0226 12.0074 22.0366 12.0329 22.0505L12.0335 34.2261C12.0335 36.2064 12.8046 38.0685 14.2052 39.4689C15.6056 40.8695 17.4674 41.6406 19.448 41.6406C21.4284 41.6406 23.2905 40.8695 24.6908 39.4689C26.0911 38.0685 26.8626 36.2067 26.8626 34.2261L26.8623 29.0474C28.5764 28.7451 29.8826 27.2448 29.8826 25.4455C29.8826 23.4284 28.2416 21.7878 26.2249 21.7878L26.2251 21.7876ZM26.2251 27.8282C24.911 27.8282 23.8421 26.7594 23.8421 25.4453C23.8421 24.1313 24.911 23.0624 26.2251 23.0624C27.5391 23.0624 28.608 24.1313 28.608 25.4453C28.608 26.7591 27.5391 27.8282 26.2251 27.8282Z" fill="white"/>
<path d="M27.7102 25.4456C27.7102 26.2653 27.0457 26.93 26.2257 26.93C25.406 26.93 24.7412 26.2653 24.7412 25.4456C24.7412 24.6255 25.406 23.9611 26.2257 23.9611C27.0457 23.9611 27.7102 24.6255 27.7102 25.4456Z" fill="white"/>
<path d="M5.39922 9.3225C6.23566 13.9033 12.3772 17.0849 12.6652 17.2995C12.9532 17.085 19.0947 13.9034 19.9312 9.3225C20.7952 4.58948 15.4595 2.27221 12.6652 5.07653C9.8709 2.27221 4.53494 4.5895 5.39922 9.3225ZM16.7418 5.4995C16.7776 5.50071 16.8311 5.50132 16.8976 5.51044C17.0313 5.52654 17.2209 5.56755 17.4372 5.65688C17.5442 5.70336 17.6596 5.75866 17.7742 5.83158C17.8887 5.90419 18.0063 5.98865 18.116 6.09104C18.2281 6.191 18.3329 6.30767 18.4274 6.43528C18.5231 6.56258 18.6048 6.70325 18.675 6.84878C18.7108 6.9214 18.737 6.99796 18.7677 7.07209C18.7938 7.14775 18.8163 7.22461 18.8369 7.30057C18.8758 7.45339 18.8986 7.60652 18.9102 7.75387C18.9129 7.8277 18.919 7.90001 18.918 7.97081C18.915 8.0416 18.9132 8.11027 18.9089 8.1768C18.9032 8.24334 18.894 8.30744 18.8855 8.36912C18.8807 8.39981 18.8761 8.43019 18.8716 8.45967C18.8652 8.48914 18.8597 8.518 18.8527 8.54595C18.8394 8.60216 18.8275 8.65564 18.8141 8.70607C18.7993 8.7562 18.7841 8.80329 18.7689 8.84735C18.7394 8.93546 18.7111 9.01081 18.6817 9.07127C18.6543 9.13203 18.6294 9.17852 18.6139 9.21042C18.5978 9.24202 18.5881 9.25873 18.5881 9.25873C18.5881 9.25873 18.5848 9.23928 18.5802 9.20404C18.5765 9.1688 18.5683 9.11654 18.5632 9.05183C18.5586 8.98711 18.5492 8.90903 18.5395 8.82061C18.5352 8.77686 18.5307 8.73007 18.5261 8.68115C18.52 8.63254 18.5134 8.58181 18.5067 8.52833C18.503 8.5019 18.5009 8.47517 18.4982 8.44782C18.4939 8.42078 18.4894 8.39313 18.4848 8.36487C18.4751 8.30897 18.4702 8.25125 18.459 8.19291C18.4468 8.13458 18.4374 8.07503 18.4262 8.01456C18.4128 7.95501 18.3994 7.89425 18.3857 7.83227C18.3715 7.77089 18.3526 7.71013 18.3374 7.64784C18.3305 7.61655 18.3186 7.58647 18.3086 7.55609C18.2992 7.5254 18.2897 7.49471 18.2803 7.46372C18.2597 7.40265 18.2338 7.3428 18.2132 7.28143C18.1864 7.22248 18.1643 7.16111 18.1345 7.10368C18.1065 7.04535 18.0801 6.98611 18.047 6.9308C18.0306 6.90316 18.0172 6.87369 18.0002 6.84634L17.9504 6.76401C17.9349 6.73606 17.9151 6.71084 17.8978 6.6841C17.8802 6.65767 17.8641 6.63033 17.8452 6.60511C17.8073 6.55468 17.7714 6.50333 17.7322 6.45533C17.656 6.35749 17.5752 6.26726 17.4949 6.1828C17.415 6.09772 17.333 6.02177 17.2561 5.95067C17.1003 5.81121 16.9581 5.6988 16.8545 5.62193C16.8025 5.58365 16.7615 5.55205 16.7323 5.5323C16.7032 5.51195 16.6874 5.50101 16.6874 5.50101C16.6865 5.50071 16.7056 5.49889 16.7418 5.4995Z" fill="white"/>
</svg>
