<svg width="55" height="65" viewBox="0 0 55 65" fill="none" xmlns="http://www.w3.org/2000/svg">
<path d="M35.9613 40.5461C38.1001 38.6114 39.4456 35.9522 39.7368 33.0827C39.7497 32.9547 39.7068 32.8276 39.6202 32.7329C39.5284 32.6306 39.3976 32.5726 39.2605 32.5731C39.0165 32.5721 38.8114 32.7563 38.7871 32.9994C38.4146 36.5584 36.2973 39.6992 33.1379 41.3798C29.9784 43.0603 26.1906 43.0603 23.0312 41.3798C19.8718 39.6992 17.7546 36.5584 17.382 32.9994C17.3572 32.7563 17.1526 32.5721 16.9086 32.5731C16.771 32.5721 16.6402 32.6306 16.5488 32.7329C16.4618 32.8276 16.4194 32.9547 16.4318 33.0827C16.7301 35.9708 18.0904 38.6448 20.2487 40.5862C22.4075 42.5279 25.2099 43.5989 28.1128 43.5914C31.0162 43.5842 33.8129 42.4989 35.9612 40.5462L35.9613 40.5461Z" fill="#F7A582"/>
<path d="M14.0058 3.91095C14.0058 2.24853 12.6022 0.89624 10.9416 0.89624C9.28101 0.89624 7.87744 2.24853 7.87744 3.91095V8.62339H14.0058V3.91095Z" fill="#F7A582"/>
<path d="M47.3125 3.91044C47.3029 3.1068 46.977 2.33975 46.4051 1.77505C45.8332 1.21075 45.0614 0.894808 44.2578 0.896245H44.1498C43.3556 0.899576 42.5958 1.21931 42.0386 1.78553C41.4819 2.35173 41.1741 3.11687 41.1841 3.91044V8.62325H47.3124L47.3125 3.91044Z" fill="#F7A582"/>
<path d="M26.6614 31.4045V34.4687H28.5265V31.4045C28.5265 31.0367 28.8249 30.7384 29.1927 30.7384H32.2568V29.406H29.1927C28.8249 29.406 28.5265 29.1077 28.5265 28.7399V25.4092H26.6614V28.7399C26.6614 28.9164 26.5915 29.0858 26.4664 29.211C26.3412 29.3361 26.1718 29.406 25.9953 29.406H22.9312V30.7384H25.9953C26.1718 30.7384 26.3412 30.8083 26.4664 30.9334C26.5915 31.0586 26.6614 31.228 26.6614 31.4045Z" fill="#F7A582"/>
<path d="M36.1232 20.7453C36.1232 21.3324 35.6455 21.8087 35.0565 21.8087C34.467 21.8087 33.9893 21.3324 33.9893 20.7453C33.9893 20.1581 34.467 19.6818 35.0565 19.6818C35.6455 19.6818 36.1232 20.1581 36.1232 20.7453Z" fill="#F7A582"/>
<path d="M35.4546 64.5785C37.5411 64.577 39.5414 63.7468 41.0153 62.2704C42.4898 60.794 43.3169 58.7922 43.3149 56.7063V48.3445C44.2009 48.1214 44.9203 47.4766 45.2401 46.6212C45.5593 45.7652 45.438 44.8069 44.9151 44.0575C44.3927 43.3086 43.5348 42.8642 42.6212 42.8685C41.7077 42.8733 40.855 43.3262 40.3398 44.0804C39.8245 44.835 39.7127 45.7942 40.0405 46.6468C40.3688 47.4995 41.0949 48.1365 41.9827 48.3511V56.7063C41.9827 59.0383 40.7385 61.1937 38.7187 62.3594C36.6989 63.5256 34.2104 63.5256 32.1906 62.3594C30.1708 61.1936 28.9266 59.0382 28.9266 56.7063V45.2608H27.5942V56.7063C27.5923 58.7923 28.4193 60.794 29.8938 62.2704C31.3679 63.7468 33.3681 64.5772 35.4545 64.5785L35.4546 64.5785ZM40.9736 45.6583C40.9745 44.986 41.3799 44.3803 42.0013 44.1238C42.6227 43.8669 43.3374 44.0101 43.8127 44.4854C44.2875 44.9612 44.4293 45.6764 44.1719 46.2973C43.914 46.9182 43.3078 47.3231 42.6356 47.3227C41.7173 47.3212 40.9741 46.5766 40.9736 45.6583Z" fill="#F7A582"/>
<path d="M51.081 7.02454H48.6444V9.23752C48.6287 9.62388 48.3218 9.93458 47.9355 9.95551H40.4715C40.1038 9.95551 39.8516 9.60531 39.8516 9.23752V7.02454H15.3381V9.23752C15.3133 9.6272 15.0003 9.93648 14.6101 9.95551H7.25409C6.8682 9.93457 6.56084 9.62386 6.54514 9.23752V7.02454H4.10852C3.1355 7.02264 2.20201 7.40519 1.51015 8.08892C0.818805 8.77266 0.425798 9.70237 0.416748 10.6749V13.9522H54.7728V10.6749C54.7637 9.70232 54.3707 8.77262 53.6794 8.08892C52.9876 7.40519 52.054 7.02264 51.081 7.02454Z" fill="#F7A582"/>
<path d="M43.3366 45.6583C43.3351 45.3752 43.1639 45.1207 42.9022 45.0131C42.6405 44.9056 42.3398 44.966 42.1399 45.1668C41.9406 45.3671 41.8811 45.6683 41.9896 45.9295C42.0981 46.1908 42.3531 46.3611 42.6362 46.3611C43.0235 46.3601 43.3366 46.0456 43.3366 45.6583Z" fill="#F7A582"/>
<path d="M22.1814 20.7453C22.1828 20.3133 21.924 19.9231 21.5253 19.7566C21.1266 19.5905 20.6669 19.6809 20.361 19.9854C20.055 20.2904 19.9632 20.7496 20.1278 21.1493C20.2929 21.5485 20.6822 21.8087 21.1142 21.8087C21.7023 21.8092 22.1795 21.3334 22.1814 20.7453Z" fill="#F7A582"/>
<path d="M0.417051 47.6036C0.425616 48.5766 0.818634 49.5063 1.51046 50.1905C2.20181 50.8742 3.13584 51.2573 4.10883 51.2554H26.7952V44.8543C23.803 44.5593 21.0042 43.2399 18.8721 41.1192C16.7405 38.9986 15.4064 36.2065 15.0951 33.2156C15.0414 32.715 15.2022 32.2145 15.5381 31.8391C15.7127 31.6459 16.0044 31.4951 16.1376 31.3928V23.2289C16.1438 22.4795 16.4117 21.7558 16.8946 21.1825C17.3781 20.6096 18.0461 20.2232 18.7836 20.0905C18.9321 19.588 19.239 19.147 19.6581 18.833C20.0778 18.5189 20.5879 18.3495 21.1118 18.3491C21.7042 18.3553 22.2732 18.5808 22.7095 18.9814C23.1453 19.3825 23.417 19.9311 23.4727 20.5207C23.5279 21.1107 23.3628 21.7002 23.0093 22.1751C22.6557 22.6504 22.1385 22.9777 21.5576 23.0938C20.9766 23.2099 20.3733 23.1072 19.8637 22.8045C19.3546 22.5019 18.9754 22.0214 18.7998 21.4557C18.4192 21.5727 18.0852 21.8073 17.8463 22.1261C17.607 22.4444 17.4752 22.8307 17.4695 23.229V31.3468C17.7968 31.4557 18.0861 31.657 18.3017 31.9263C18.5172 32.1961 18.6504 32.522 18.6842 32.8655C19.0135 35.9858 20.8715 38.7389 23.6416 40.2116C26.4122 41.6842 29.7334 41.6842 32.504 40.2116C35.2746 38.7389 37.1321 35.986 37.4614 32.8655C37.4904 32.5239 37.6189 32.1985 37.8301 31.9287C38.0418 31.6589 38.3273 31.4567 38.6523 31.3468V23.229C38.6513 22.8331 38.5243 22.4477 38.2897 22.1294C38.0552 21.8106 37.725 21.5746 37.3476 21.4562C37.1188 22.197 36.5464 22.7818 35.8103 23.0259C35.0747 23.2704 34.2663 23.1439 33.6402 22.6866C33.0141 22.2294 32.6472 21.4981 32.6558 20.723C32.6639 19.9474 33.0464 19.2242 33.6826 18.7808C34.3183 18.3373 35.1295 18.2284 35.8599 18.4886C36.5902 18.7484 37.1498 19.3456 37.3625 20.0911C38.0971 20.2253 38.7618 20.6126 39.241 21.1859C39.7201 21.7593 39.9832 22.4821 39.9846 23.229V31.3928C40.2264 31.487 40.4405 31.6407 40.608 31.8391C40.9467 32.2131 41.1118 32.7132 41.0624 33.2157C40.7607 36.1452 39.4756 38.8859 37.4172 40.9918C35.3589 43.0982 32.6482 44.4452 29.7262 44.8139V51.2554H41.1836V49.4968C39.9741 49.0405 39.0495 48.0423 38.687 46.8018C38.3249 45.5609 38.5666 44.222 39.3398 43.1866C40.1135 42.1508 41.3287 41.5394 42.621 41.5347C43.9138 41.5304 45.1333 42.1332 45.9141 43.1633C46.6949 44.1935 46.9456 45.531 46.5921 46.7743C46.2381 48.0171 45.3207 49.022 44.1145 49.4864V51.2554H51.0808C52.0538 51.2573 52.9878 50.8743 53.6791 50.1906C54.371 49.5064 54.764 48.5766 54.7725 47.6036V15.2848H0.416504L0.417051 47.6036ZM25.3301 24.743C25.3301 24.3752 25.6284 24.0768 25.9962 24.0768H29.1936C29.3702 24.0768 29.5395 24.1468 29.6647 24.2719C29.7898 24.3971 29.8598 24.5665 29.8598 24.743V28.0736H32.9239C33.1004 28.0736 33.2698 28.1436 33.395 28.2687C33.5201 28.3939 33.5901 28.5633 33.5901 28.7398V31.4043C33.5901 31.5808 33.5201 31.7502 33.395 31.8753C33.2698 32.0005 33.1004 32.0704 32.9239 32.0704H29.8598V35.1346C29.8598 35.3111 29.7898 35.4805 29.6647 35.6056C29.5396 35.7308 29.3702 35.8007 29.1936 35.8007H25.9962C25.6284 35.8007 25.3301 35.5024 25.3301 35.1346V32.0704H22.2659C21.8981 32.0704 21.5998 31.7721 21.5998 31.4043V28.7398C21.5998 28.372 21.8981 28.0736 22.2659 28.0736H25.3301V24.743ZM2.54866 17.9485C2.54866 17.5807 2.84699 17.2824 3.2148 17.2824C3.5826 17.2824 3.88093 17.5807 3.88093 17.9485V18.6146C3.88093 18.9824 3.5826 19.2808 3.2148 19.2808C2.84699 19.2808 2.54866 18.9824 2.54866 18.6146V17.9485ZM2.54866 21.4124C2.54866 21.0446 2.84699 20.7463 3.2148 20.7463C3.5826 20.7463 3.88093 21.0446 3.88093 21.4124V36.3337C3.88093 36.7015 3.5826 36.9998 3.2148 36.9998C2.84699 36.9998 2.54866 36.7015 2.54866 36.3337V21.4124Z" fill="#F7A582"/>
</svg>
