<svg width="42" height="40" viewBox="0 0 42 40" fill="none" xmlns="http://www.w3.org/2000/svg">
<path d="M0.281196 23.5516C0.591959 29.7669 2.53947 34.3875 5.58496 36.4794C8.63018 38.5718 14.7836 39.6904 20.9988 39.6904C23.9587 39.7029 26.9134 39.4393 29.8244 38.9031C32.1405 38.5295 34.3634 37.7135 36.3712 36.4999C39.4168 34.4282 41.3642 29.7044 41.6749 23.5721C41.9857 17.4399 40.5356 9.50517 36.5369 6.10719V6.10753C35.0022 4.93658 33.2372 4.10355 31.3577 3.66271V2.39888C31.3577 1.65874 30.9626 0.97478 30.3217 0.604705C29.6807 0.23463 28.891 0.23463 28.25 0.604705C27.6091 0.97478 27.214 1.65873 27.214 2.39888V2.81335C23.0895 2.2539 18.908 2.2539 14.7835 2.81335V2.39888C14.7835 1.65874 14.3884 0.97478 13.7475 0.604705C13.1065 0.23463 12.3168 0.23463 11.6758 0.604705C11.0349 0.97478 10.6398 1.65873 10.6398 2.39888V3.66271C8.76212 4.09729 6.99707 4.92308 5.46056 6.08676C1.46192 9.48438 0.0118077 17.2947 0.281284 23.5517L0.281196 23.5516ZM21.3927 30.8029C21.0036 31.1952 20.4743 31.4157 19.9218 31.4157C19.3693 31.4157 18.8397 31.1952 18.4509 30.8029L15.3433 27.6953C14.8178 27.1698 14.6125 26.4036 14.8047 25.6857C14.9972 24.9681 15.558 24.4073 16.2759 24.2148C16.9935 24.0226 17.7597 24.2276 18.2851 24.7534L19.9219 26.411L24.6663 21.6458C25.1917 21.12 25.9575 20.915 26.6755 21.1072C27.3934 21.2997 27.9542 21.8605 28.1464 22.578C28.3389 23.296 28.1335 24.0622 27.6081 24.5876L21.3927 30.8029ZM8.13375 9.23589C8.88743 8.6643 9.73614 8.22972 10.6403 7.95154V8.61434C10.6403 9.35448 11.0353 10.0384 11.6763 10.4085C12.3172 10.7786 13.107 10.7786 13.7479 10.4085C14.3889 10.0384 14.7839 9.35449 14.7839 8.61434V6.99846C16.8417 6.69428 18.9192 6.54203 20.9992 6.54272C23.0788 6.53682 25.156 6.68214 27.2145 6.97765V8.61439C27.2145 9.35454 27.6095 10.0385 28.2505 10.4086C28.8914 10.7786 29.6811 10.7786 30.3221 10.4086C30.9631 10.0385 31.3581 9.35454 31.3581 8.61439V7.9516C32.2623 8.22976 33.111 8.66434 33.8646 9.23594C35.1018 10.5036 35.981 12.0761 36.4132 13.794H5.5854C6.01756 12.0761 6.89683 10.5036 8.13393 9.23594L8.13375 9.23589Z" fill="white"/>
</svg>
