<svg width="65" height="65" viewBox="0 0 65 65" fill="none" xmlns="http://www.w3.org/2000/svg">
<path d="M50.2873 40.8304C49.8922 40.5664 49.411 40.4634 48.9423 40.5426C48.4741 40.6218 48.0534 40.8775 47.767 41.257L43.0077 47.6157L41.069 53.4318L40.0996 61.1866H48.8238V57.3771C48.8251 56.7302 49.1483 56.127 49.6867 55.7678L54.6399 52.4625L58.5173 46.6464L61.8035 35.9836C62.0264 35.2522 61.6529 34.4719 60.9437 34.1868C60.2344 33.9012 59.4247 34.2062 59.0794 34.8882L54.6399 43.7383L51.7318 46.6464L47.8544 48.5851L50.869 43.3021C51.1057 42.8936 51.1771 42.4102 51.0689 41.9506C50.9607 41.4915 50.6811 41.0904 50.2873 40.8304Z" fill="#1F3F37"/>
<path d="M11.9888 43.7384L7.54929 34.8593C7.23858 34.1068 6.37743 33.749 5.62488 34.0596C4.87277 34.3699 4.51484 35.2315 4.82516 35.9836L8.11142 46.6464L11.9888 52.4625L16.942 55.7678C17.4804 56.127 17.8036 56.7303 17.8049 57.3772V61.1867H26.5291L25.5597 53.4319L23.621 47.6158L18.8617 41.2666C18.4748 40.7698 17.8638 40.5024 17.2367 40.5552C16.6097 40.6079 16.0515 40.974 15.7537 41.5284C15.4555 42.0827 15.4577 42.75 15.7597 43.3023L18.7742 48.5853L14.8968 46.6466L11.9888 43.7384Z" fill="#1F3F37"/>
<path d="M41.0694 19.5046V24.3514H36.2227V28.2288H41.0694V33.0755H44.9468V28.2288H49.7935V24.3514H44.9468V19.5046H41.0694Z" fill="#1F3F37"/>
<path d="M15.8662 29.1982H17.8049V31.1369H15.8662V29.1982Z" fill="#1F3F37"/>
<path d="M55.6094 19.5046H57.5481V21.4433H55.6094V19.5046Z" fill="#1F3F37"/>
<path d="M32.3447 42.769H34.2834V44.7077H32.3447V42.769Z" fill="#1F3F37"/>
<path d="M41.5243 5.12926C39.007 5.14397 36.6174 6.23842 34.9618 8.13424L33.3139 9.96604L31.666 8.13424C30.0198 6.22545 27.6242 5.12793 25.1034 5.12793C22.5831 5.12793 20.187 6.22537 18.5409 8.13424C17.041 9.86821 16.124 12.0298 15.9184 14.3138C15.7133 16.5974 16.2304 18.8879 17.3971 20.8616C19.7604 24.8355 22.8597 28.3231 26.5285 31.1367L32.7324 35.7896C33.0768 36.048 33.5511 36.048 33.8956 35.7896L38.0733 32.6198L36.9006 31.0788L33.314 33.8025L27.7112 29.5469C24.2354 26.8959 21.2971 23.6062 19.055 19.8534C18.0978 18.2371 17.6716 16.3615 17.8368 14.4904C18.0022 12.6192 18.7504 10.8471 19.9759 9.42342C21.2647 7.93605 23.1358 7.08181 25.1035 7.08181C27.0717 7.08181 28.9428 7.93604 30.2316 9.42342L32.597 12.0502H32.5966C32.7805 12.2523 33.041 12.3678 33.314 12.3678C33.5871 12.3678 33.8476 12.2523 34.0315 12.0502L36.397 9.42342H36.3965C37.6853 7.93605 39.5564 7.08181 41.5246 7.08181C43.4923 7.08181 45.3634 7.93604 46.6522 9.42342C47.7997 10.7558 48.5298 12.3959 48.7523 14.1403C48.9747 15.8847 48.6791 17.6555 47.9028 19.2333L49.6476 20.0962V20.0958C50.5845 18.1675 50.9359 16.0073 50.6585 13.8816C50.3811 11.7555 49.4871 9.75745 48.0871 8.13426C46.4358 6.23234 44.0431 5.13659 41.5246 5.12928L41.5243 5.12926Z" fill="#1F3F37"/>
</svg>
