<svg width="49" height="49" viewBox="0 0 49 49" fill="none" xmlns="http://www.w3.org/2000/svg">
<path d="M31.2026 25.8592C31.2026 26.3471 30.8061 26.7428 30.3165 26.7428C29.8273 26.7428 29.4304 26.3471 29.4304 25.8592C29.4304 25.371 29.8273 24.9756 30.3165 24.9756C30.8061 24.9756 31.2026 25.371 31.2026 25.8592Z" fill="#F7A582"/>
<path d="M34.8293 44.3618H13.5628C13.3181 44.3618 13.1196 44.56 13.1196 44.8038C13.1196 45.0476 13.3181 45.2455 13.5628 45.2455H34.8301C35.0746 45.2455 35.2733 45.0473 35.2733 44.8035C35.2733 44.5597 35.074 44.3618 34.8295 44.3618H34.8293Z" fill="#F7A582"/>
<path d="M36.198 28.4222C35.6823 26.7141 35.0131 25.6171 34.3482 24.9101C33.223 23.7139 32.1093 23.6196 31.7693 23.5407C31.7045 23.5271 31.641 23.5125 31.5753 23.5011C31.3676 23.3093 31.2029 23.0408 31.0749 22.7201C30.7549 21.9162 30.6606 20.7732 30.6695 19.6383C30.6736 19.1361 30.6987 18.6356 30.7346 18.1654C30.8428 18.1559 30.9511 18.1404 31.054 18.1154C31.9382 17.8969 32.5916 17.1453 32.5916 16.2493V14.7328C32.5916 13.8349 31.9385 13.0832 31.054 12.8664V10.8395C31.0543 7.28466 27.9686 4.39526 24.1768 4.39526C20.384 4.39526 17.2989 7.28458 17.2989 10.8395V12.8753C16.4353 13.1057 15.8019 13.8495 15.8019 14.7331V16.2497C15.8019 17.133 16.4356 17.876 17.2989 18.1056C17.4132 18.136 17.5323 18.1546 17.6529 18.1664C17.6885 18.6365 17.7136 19.1377 17.718 19.6395C17.7288 20.7752 17.6339 21.9173 17.3129 22.7223C17.184 23.0427 17.0208 23.3115 16.8125 23.5015C16.7455 23.5142 16.6827 23.5284 16.6201 23.5427C16.2788 23.6215 15.166 23.7152 14.0408 24.9107C13.375 25.6187 12.7064 26.7163 12.1904 28.4215C11.1341 28.5583 10.3137 29.4597 10.3137 30.5504V30.6008L10.3223 30.6502L12.2685 41.9106C12.2971 43.0697 13.253 44.0043 14.4227 44.0043H33.9693C35.139 44.0043 36.094 43.0694 36.1232 41.9106L38.0701 30.6502L38.0786 30.6008V30.5504C38.0793 29.4594 37.257 28.5564 36.1978 28.4222L36.198 28.4222ZM19.926 23.693C19.7994 23.5297 19.72 23.358 19.6984 23.1792V23.1789C19.7276 23.1681 19.7959 23.1443 19.8873 23.1032C19.9241 23.0877 19.9651 23.0668 20.0067 23.0443C20.3696 22.855 20.9024 22.4592 20.9024 21.7627H20.9027C21.4745 22.3272 22.112 22.7762 22.7914 23.0443C23.2483 23.2254 23.7255 23.3258 24.2151 23.3258C24.7053 23.3258 25.1819 23.2254 25.6388 23.0443C26.3125 22.7784 26.9417 22.3367 27.5123 21.7779C27.5165 21.7801 27.5206 21.782 27.5241 21.7842C27.5269 22.0084 27.5863 22.2012 27.6765 22.3655C27.9482 22.8588 28.5016 23.0972 28.6855 23.1652C28.6858 23.1681 28.6855 23.1735 28.6842 23.1798C28.6632 23.3577 28.5832 23.5303 28.4562 23.6937C27.8577 24.457 24.192 27.9163 24.192 27.9163C24.1923 27.9163 20.5259 24.458 19.9261 23.6931L19.926 23.693ZM30.5784 23.4467C30.7098 23.7272 30.8013 24.0194 30.8505 24.3167C30.9362 24.3452 31.0143 24.3788 31.0886 24.4193C31.8855 24.8442 32.1865 25.8364 31.7614 26.6304C31.4756 27.1642 30.9213 27.4948 30.3148 27.4948C30.0469 27.4948 29.7802 27.428 29.5424 27.301C29.156 27.0955 28.8741 26.7517 28.7474 26.3337C28.6207 25.9158 28.6642 25.4742 28.8709 25.0892C29.0763 24.7074 29.4259 24.4265 29.844 24.3012C29.6989 23.7335 29.3084 23.0525 28.622 22.828L28.461 22.7754C28.4464 22.771 28.4318 22.7672 28.4179 22.7615L28.3652 22.7444L28.3683 22.7349C28.221 22.65 28.1204 22.4924 28.1204 22.3106C28.1204 22.0403 28.3407 21.8199 28.6125 21.8199C28.6315 21.8199 28.6493 21.8234 28.6671 21.8253L28.6703 21.8177L28.7049 21.8284C28.7446 21.8367 28.7827 21.849 28.8182 21.8658L28.9284 21.9016C29.6335 22.1337 30.2197 22.6823 30.5784 23.4466L30.5784 23.4467ZM24.1761 5.74023C26.3417 5.74023 28.2111 6.93444 29.0864 8.65427C29.055 8.61659 29.0226 8.57702 28.9899 8.54093C28.9566 8.5061 28.9239 8.47254 28.8912 8.43709C28.8328 8.3744 28.7728 8.31456 28.7124 8.2563C28.6791 8.22369 28.6461 8.19171 28.6127 8.16132C28.5489 8.10401 28.4861 8.05019 28.4219 7.997C28.3911 7.97104 28.3597 7.94444 28.3292 7.92038C28.2486 7.85738 28.1676 7.79659 28.0847 7.73928C28.072 7.72883 28.0574 7.71807 28.0457 7.7092C27.9504 7.64303 27.8533 7.58225 27.7571 7.52463C27.7288 7.50816 27.7012 7.49328 27.6739 7.47777C27.6053 7.43788 27.5361 7.4002 27.4694 7.36601C27.4336 7.34701 27.399 7.33023 27.3637 7.31282C27.3008 7.28274 27.2408 7.25425 27.1802 7.22702C27.1437 7.2115 27.1091 7.19662 27.0738 7.18174C27.0116 7.15546 26.9503 7.13235 26.8881 7.10924C26.8564 7.09689 26.8227 7.08423 26.7929 7.07283C26.7205 7.04687 26.6478 7.02344 26.577 7.00191C26.5573 6.99589 26.537 6.98861 26.5182 6.98323C26.429 6.95695 26.342 6.93384 26.2569 6.91231C26.2284 6.90534 26.2023 6.89996 26.1747 6.89426C26.116 6.88097 26.0579 6.86703 26.0017 6.85659C25.969 6.85026 25.9363 6.84392 25.9048 6.83854C25.8556 6.82936 25.8055 6.82144 25.7591 6.81416C25.7264 6.80878 25.6943 6.80466 25.6648 6.80086C25.6188 6.79453 25.5724 6.78915 25.527 6.78408C25.4975 6.78124 25.4686 6.77712 25.4413 6.77459C25.394 6.77047 25.3486 6.76604 25.3035 6.76319C25.2794 6.76224 25.2565 6.75907 25.2362 6.75781C25.173 6.75369 25.1155 6.75274 25.0587 6.74957C25.0327 6.74926 25.0105 6.74926 24.9844 6.74926C24.9568 6.74926 24.9266 6.74894 24.8993 6.74894C24.7609 6.74894 24.6504 6.75401 24.5717 6.76066C24.5609 6.76066 24.5536 6.76097 24.5447 6.76256C24.5164 6.76446 24.4942 6.76667 24.4777 6.76857C24.4714 6.76889 24.464 6.76952 24.4599 6.77079C24.4444 6.7711 24.4348 6.773 24.4348 6.773C24.3542 6.76794 24.2739 6.76446 24.1948 6.76161C24.1161 6.76382 24.0364 6.76794 23.9548 6.77205C23.9548 6.77205 23.9446 6.77174 23.9297 6.76984C23.9246 6.76952 23.917 6.76889 23.9126 6.76857C23.897 6.76667 23.8729 6.76446 23.8456 6.76224C23.838 6.76192 23.8291 6.76192 23.8192 6.76129C23.7402 6.75432 23.63 6.74894 23.4916 6.74894H23.4033C23.3792 6.74894 23.3582 6.74894 23.3338 6.74926C23.277 6.75116 23.2169 6.75369 23.1544 6.75749C23.1357 6.75844 23.1154 6.76034 23.0957 6.76192C23.0487 6.76477 23.0004 6.76889 22.949 6.77459C22.9226 6.77649 22.8953 6.77997 22.8693 6.78314C22.8214 6.7882 22.7737 6.79453 22.7232 6.80118C22.6947 6.8053 22.6658 6.80973 22.6363 6.81385C22.5839 6.82208 22.5321 6.83063 22.4778 6.84108C22.4492 6.84614 22.421 6.85057 22.3918 6.85596C22.3289 6.86862 22.267 6.88318 22.2016 6.8968C22.1797 6.90218 22.1587 6.90725 22.1353 6.91168C22.047 6.93226 21.9571 6.956 21.8676 6.98355C21.853 6.98703 21.839 6.99305 21.8238 6.99685C21.7485 7.02059 21.6723 7.04497 21.5949 7.0722C21.5657 7.08265 21.5358 7.09404 21.5057 7.10576C21.4409 7.12982 21.3768 7.15515 21.3117 7.18206C21.279 7.19536 21.2453 7.20961 21.2129 7.2248C21.1482 7.25203 21.084 7.28337 21.0189 7.31472C20.9866 7.33023 20.9535 7.34543 20.9215 7.36284C20.8504 7.39957 20.7773 7.4401 20.7053 7.48189C20.6814 7.49646 20.657 7.5088 20.6326 7.52305C20.5357 7.58131 20.4382 7.64273 20.3398 7.71017C20.3306 7.7165 20.322 7.72346 20.3135 7.7298C20.2271 7.79027 20.1411 7.85423 20.056 7.92166C20.0274 7.94382 19.9982 7.96883 19.9696 7.99195C19.9033 8.04672 19.8382 8.10371 19.7731 8.16228C19.7404 8.19268 19.708 8.22402 19.6763 8.2541C19.6134 8.31299 19.5528 8.37568 19.4915 8.43963C19.4607 8.47224 19.4292 8.50549 19.3988 8.53874C19.3372 8.60649 19.2769 8.67868 19.2172 8.7515C20.0696 6.97882 21.9698 5.74023 24.1761 5.74023ZM18.7333 15.4631C18.7746 15.3425 18.8307 15.2494 18.9015 15.1985C18.9317 15.1773 18.9644 15.1627 18.999 15.1573C19.0774 15.144 19.16 15.1738 19.2403 15.2387C19.2403 15.2387 19.2403 15.2327 19.2422 15.2206C19.2508 15.137 19.2908 14.7894 19.4102 14.355C19.4121 14.3506 19.413 14.3455 19.4143 14.3411C19.4311 14.2812 19.4499 14.2189 19.4692 14.1565C19.595 13.7579 19.7845 13.314 20.0715 12.9423C20.0969 12.91 20.123 12.8793 20.1493 12.8483C20.1579 12.8379 20.1661 12.8265 20.1753 12.8166C20.57 12.3664 21.1262 12.0549 21.9095 12.1277L28.8741 15.7025L29.4402 15.1592C29.4583 15.1627 29.4789 15.1687 29.496 15.1772C29.5421 15.1991 29.583 15.2368 29.6189 15.2884V16.9645C29.5164 17.2678 29.3782 17.5075 29.2328 17.6313C29.1477 17.7016 29.0614 17.7351 28.9798 17.7212C28.9334 17.713 28.8903 17.6908 28.8525 17.655C28.7277 18.0432 28.5693 18.4294 28.3867 18.8055C27.6139 19.1706 26.6726 19.422 25.6484 19.5097C25.488 19.2637 25.2124 19.1003 24.8956 19.1003H23.7027C23.2062 19.1003 22.8042 19.5011 22.8042 19.9957C22.8042 20.4899 23.2055 20.8911 23.7027 20.8911H24.8956C25.242 20.8911 25.5388 20.6935 25.689 20.4076C26.3821 20.3535 27.0377 20.2338 27.6397 20.0581C27.2682 20.5744 26.8459 21.0357 26.3799 21.3948C25.7252 21.8969 24.9924 22.204 24.2175 22.204C23.4383 22.204 22.7008 21.8928 22.0436 21.3843C20.9289 20.521 20.045 19.0899 19.583 17.6553C19.5449 17.6898 19.504 17.7126 19.4564 17.7215C19.3618 17.7383 19.2598 17.6908 19.1633 17.5939C18.9877 17.4179 18.8255 17.0797 18.7328 16.6688V15.4632L18.7333 15.4631ZM15.0164 26.555C15.2777 25.9848 15.6108 25.4966 15.9781 25.1436C16.1804 24.9492 16.3969 24.7931 16.6245 24.6791C16.7077 24.4857 16.8484 24.3229 17.0227 24.2194C17.1147 23.7046 17.403 23.1601 17.8246 22.7143C18.4044 22.0998 19.1336 21.761 19.8766 21.761H20.0245V21.7641C20.2817 21.7787 20.4862 21.9889 20.4862 22.2489C20.4862 22.5088 20.2817 22.7196 20.0245 22.7336V22.7355H20.0055C20.0026 22.7355 19.9995 22.7364 19.9969 22.7364C19.9941 22.7364 19.9909 22.7355 19.9884 22.7355H19.8769C18.9619 22.7355 18.2044 23.6001 18.0126 24.271C18.144 24.3676 18.25 24.4999 18.3208 24.6531C18.952 24.9501 19.5092 25.5751 19.9356 26.465C20.007 26.6145 20.0162 26.7835 19.9639 26.9384C20.1505 27.4171 20.2769 27.9268 20.3325 28.4021L19.3441 28.4024C19.2924 28.0392 19.1939 27.6539 19.0495 27.2848C18.9374 27.2218 18.8472 27.1258 18.7923 27.0106C18.4177 26.2295 17.9097 25.7255 17.4967 25.7255C17.0738 25.7255 16.54 26.2701 16.1679 27.0813C16.107 27.2139 16 27.3209 15.8695 27.3858C15.7428 27.7278 15.6577 28.0735 15.611 28.4021H14.6242C14.6779 27.9405 14.7985 27.4498 14.9801 26.9743C14.942 26.8346 14.9551 26.6877 15.0163 26.5551L15.0164 26.555ZM35.5335 41.8567C35.5335 42.7178 34.8331 43.4166 33.9692 43.4166H14.4218C13.5582 43.4166 12.8578 42.7182 12.8578 41.8567L10.9033 30.5516C10.9033 29.6905 11.6037 28.9917 12.4666 28.9917H35.9236C36.7871 28.9917 37.4878 29.6902 37.4878 30.5516L35.5335 41.8567Z" fill="#F7A582"/>
<path d="M24.1965 35.2805C23.6844 35.2805 23.2688 35.6931 23.2688 36.2038C23.2688 36.7157 23.6844 37.1289 24.1965 37.1289C24.7089 37.1289 25.1236 36.7157 25.1236 36.2038C25.1236 35.6931 24.7089 35.2805 24.1965 35.2805Z" fill="#F7A582"/>
</svg>
