<svg width="53" height="53" viewBox="0 0 53 53" fill="none" xmlns="http://www.w3.org/2000/svg">
<path fill-rule="evenodd" clip-rule="evenodd" d="M25.883 32.8185H27.2679V29.8935H39.9602V32.8185H41.3445V48.4537H41.9643C43.8116 48.4537 43.8116 51.2495 41.9643 51.2495H11.2545C9.40463 51.2495 9.40463 48.4537 11.2545 48.4537H25.884V40.8628H29.5244C33.3577 40.8628 33.3588 35.0661 29.5244 35.0661H25.884L25.883 32.8185ZM15.3331 11.3578H21.4306C22.1873 9.22902 24.2195 7.70534 26.6086 7.70534C29.6435 7.70534 32.1032 10.1651 32.1032 13.2C32.1032 16.2341 29.6435 18.6946 26.6086 18.6946C24.2202 18.6946 22.188 17.1709 21.4306 15.0421H15.3331C14.107 15.0421 13.0915 16.058 13.0915 17.2837V33.8813C13.0915 35.1062 14.107 36.1221 15.3331 36.1221H29.523C31.9605 36.1221 31.9605 39.8068 29.523 39.8068H15.3331C12.0756 39.8068 9.40723 37.1406 9.40723 33.8812V17.2836C9.40723 14.0243 12.0738 11.3578 15.3331 11.3578ZM26.6084 10.8497C27.9058 10.8497 28.9583 11.9022 28.9583 13.2004C28.9583 14.4986 27.9058 15.5495 26.6084 15.5495C25.3102 15.5495 24.2577 14.4981 24.2577 13.2004C24.2577 11.9022 25.3102 10.8497 26.6084 10.8497ZM27.1645 21.977L38.0996 19.0475L33.6209 2.33179L22.6858 5.26125L23.37 7.81397C24.317 7.2425 25.4249 6.91375 26.6088 6.91375C30.0808 6.91375 32.8957 9.7286 32.8957 13.2006C32.8957 16.6726 30.0808 19.4875 26.6088 19.4875L26.4971 19.4864L27.1645 21.977ZM26.6084 11.6426C25.7437 11.6426 25.0499 12.3363 25.0499 13.201C25.0499 14.0657 25.744 14.7587 26.6084 14.7587C27.4724 14.7587 28.1661 14.065 28.1661 13.201C28.1661 12.3389 27.4705 11.6426 26.6084 11.6426ZM31.9379 22.9338L32.4574 24.8727L30.9275 25.2823L30.4073 23.3439L29.3416 23.6298L28.9312 22.0988L36.629 20.037L37.0387 21.5668L35.9726 21.8527L36.4928 23.7912L34.9622 24.2016L34.4427 22.2628L31.9379 22.9342L31.9379 22.9338ZM28.8514 32.8193H38.3741V31.4786H28.8514V32.8193Z" fill="#FFFFFF"/>
</svg>
