<svg width="65" height="65" viewBox="0 0 65 65" fill="none" xmlns="http://www.w3.org/2000/svg">
<path d="M62.0234 54.9606C61.784 55.6805 61.271 56.2759 60.5955 56.6179C60.1976 56.8137 59.7607 56.9163 59.3173 56.9172C59.0132 56.9168 58.7113 56.8692 58.4214 56.7769C57.7053 56.5388 57.1139 56.0233 56.7793 55.3447L50.7607 43.3521V43.3517C50.6571 43.1252 50.6403 42.8685 50.7137 42.6309C50.7903 42.3942 50.9585 42.1984 51.1803 42.0878L52.0575 41.6478L51.0032 39.5508C51.2927 39.4292 51.5724 39.2982 51.8522 39.1578C52.1319 39.0175 52.4121 38.8674 52.6732 38.7084L53.7182 40.8053L54.5955 40.3653C54.8168 40.2525 55.074 40.2334 55.309 40.3129C55.544 40.3919 55.7379 40.5624 55.8463 40.7867L61.8557 52.7793C62.1983 53.4551 62.2585 54.2398 62.0234 54.9606ZM39.0125 38.3331C37.5692 42.396 36.5958 46.6116 36.1103 50.8975C35.8956 53.3972 34.3187 54.4364 32.9191 54.5767V54.5771C32.7863 54.5958 32.6522 54.6051 32.518 54.6051C31.4367 54.5461 30.4014 54.1459 29.5601 53.4616C28.7191 52.7772 28.1149 51.8438 27.8335 50.7949C27.6361 49.8801 27.5206 48.9493 27.4882 48.014C27.1616 43.567 26.5645 39.2324 23.2236 39.2324C19.8832 39.2324 19.2856 43.567 18.959 48.014H18.9594C18.9249 48.9497 18.8063 49.8805 18.6049 50.7949C18.3256 51.8433 17.7232 52.7764 16.8836 53.4607C16.0439 54.1454 15.01 54.5455 13.9301 54.605C13.7955 54.605 13.6614 54.5957 13.5286 54.577C12.129 54.4367 10.552 53.3976 10.3373 50.8979C9.84294 45.2994 7.95784 39.8318 6.14749 34.5421C4.41204 29.5053 2.7788 24.7399 2.66673 20.5646C2.42374 17.3983 3.51346 14.2747 5.6717 11.9512C7.94719 9.71968 11.0092 8.4812 14.1912 8.50598C16.1582 8.50065 18.0885 9.03843 19.7713 10.0598C20.8052 10.7242 21.9973 11.099 23.2242 11.146C24.4506 11.099 25.6427 10.7242 26.6766 10.0598C28.3595 9.03843 30.2902 8.50064 32.2567 8.50598C35.4386 8.48111 38.501 9.71968 40.7765 11.9512C41.7197 12.9197 42.4594 14.0695 42.9507 15.331C42.0695 15.5593 41.2153 15.8826 40.403 16.2951C37.3827 17.8215 35.0891 20.4872 34.0254 23.7077C32.9618 26.9286 33.215 30.4412 34.7296 33.4748C35.7131 35.4398 37.1892 37.114 39.0128 38.3339L39.0125 38.3331ZM29.961 12.0159C29.9167 11.7708 29.7764 11.5532 29.5715 11.4124C29.3661 11.2716 29.1134 11.2192 28.8691 11.2672C27.7537 11.5279 26.7326 12.0954 25.9204 12.9054C25.2419 13.6639 24.277 14.1021 23.2611 14.1133H23.1863C22.1701 14.1044 21.2043 13.6661 20.5271 12.9054C19.7122 12.0989 18.692 11.5323 17.5784 11.2672C17.0707 11.169 16.5799 11.5021 16.4821 12.0115C16.3838 12.5208 16.7162 13.0133 17.2239 13.1114C18.0197 13.3144 18.7434 13.7363 19.3139 14.3287C20.2881 15.3474 21.6212 15.9424 23.0278 15.9855C23.0809 15.9868 23.1341 15.9837 23.1863 15.9762C23.2111 15.9811 23.2363 15.9811 23.2611 15.9762C23.3102 15.9842 23.3602 15.9873 23.4102 15.9855C24.8199 15.9442 26.1571 15.3491 27.1335 14.3287C27.704 13.7358 28.4277 13.3144 29.2239 13.1114C29.729 13.0133 30.0588 12.5226 29.961 12.0159ZM51.0128 37.4907C49.2105 38.4002 47.1912 38.7874 45.1818 38.6089C43.1723 38.4304 41.2522 37.6928 39.6375 36.4796C38.269 35.4733 37.1589 34.1544 36.3998 32.6316C35.1074 30.0435 34.8901 27.0469 35.7961 24.2984C36.7026 21.55 38.6576 19.2746 41.2336 17.9703C41.9515 17.6035 42.7092 17.3206 43.4914 17.1275C46.9894 16.2522 50.6928 17.1701 53.3816 19.5801C56.0701 21.9896 57.3958 25.5787 56.9212 29.1642C56.4472 32.7497 54.2345 35.8676 51.0127 37.4907L51.0128 37.4907ZM50.9659 22.1558C51.3678 22.1558 51.7245 21.8978 51.8516 21.5155C51.9781 21.1331 51.8471 20.7121 51.5258 20.4706C49.9647 19.2969 48.0645 18.6658 46.1139 18.673C45.3154 18.669 44.5205 18.7791 43.753 19.0007C43.1723 19.1526 42.6092 19.3662 42.0733 19.6371C41.6121 19.8698 41.4262 20.4338 41.6581 20.8965C41.89 21.3592 42.4517 21.5457 42.9129 21.313C43.1882 21.174 43.4719 21.0519 43.7623 20.948C46.0094 20.17 48.4943 20.5514 50.4064 21.9685C50.5666 22.0924 50.7636 22.1581 50.9659 22.1558Z" fill="#1F3F37"/>
</svg>
