<svg width="45" height="46" viewBox="0 0 45 46" fill="none" xmlns="http://www.w3.org/2000/svg">
<path d="M17.7045 13.0874C17.3386 13.727 16.8496 14.2669 16.2764 14.6622C16.8496 15.0577 17.3383 15.5967 17.7045 16.2372C18.0705 15.5973 18.5595 15.0576 19.1324 14.6622C18.5595 14.267 18.0705 13.727 17.7045 13.0874Z" fill="white"/>
<path d="M29.0042 17.782C28.4871 18.8205 27.7207 19.6742 26.7988 20.2329C27.7201 20.792 28.4871 21.6451 29.0042 22.6842C29.5213 21.6451 30.2883 20.792 31.2096 20.2329C30.2883 19.6742 29.5213 18.8205 29.0042 17.782Z" fill="white"/>
<path d="M35.2884 9.80781C35.8191 8.61753 36.6197 7.61539 37.5919 6.89774C36.9298 5.48157 35.9036 4.6208 34.6868 4.15796C34.054 5.12369 33.2263 5.9095 32.2695 6.43308C33.5681 7.14332 34.6322 8.33516 35.2884 9.80781Z" fill="white"/>
<path d="M36.0084 13.2484C36.0084 13.6461 35.6859 13.9685 35.2882 13.9685C34.8905 13.9685 34.5681 13.6461 34.5681 13.2484C34.5681 9.88697 32.2899 7.15311 29.4891 7.15311C29.0914 7.15311 28.769 6.83069 28.769 6.433C28.769 6.0353 29.0914 5.71289 29.4891 5.71289C30.9456 5.71289 32.2575 4.96902 33.1847 3.78608C29.8895 3.35538 25.8664 4.96807 23.7438 6.29073C25.1525 7.26168 26.7754 8.25979 28.239 8.23633H28.2461C28.6034 8.23633 28.895 8.52388 28.8987 8.8824C28.9021 9.24245 28.613 9.53741 28.2529 9.5411C28.2378 9.54141 28.2224 9.54141 28.2069 9.54141C26.0944 9.54141 23.9952 8.06513 22.3057 6.8773C21.7679 6.49966 21.2601 6.14207 20.8309 5.89095C20.8176 5.88293 20.8071 5.87336 20.7951 5.86472C16.2952 3.41442 6.50934 0.811591 6.88451 11.7932C7.44481 28.2296 13.3241 21.9062 11.7041 32.3131C11.1395 35.9374 14.5925 42.8661 17.3622 42.8661C20.1316 42.8661 11.3996 27.9508 22.635 27.969C33.8704 27.9511 25.139 42.8661 27.9078 42.8661C30.6774 42.8661 34.1312 35.9377 33.5666 32.3131C31.9458 21.9062 37.8246 28.23 38.3862 11.7932C38.4321 10.4433 38.3195 9.30699 38.0872 8.34197C36.8296 9.45263 36.0087 11.2354 36.0087 13.2485L36.0084 13.2484ZM12.3646 20.7602C12.2628 20.8182 12.1517 20.8456 12.0422 20.8456C11.8154 20.8456 11.5945 20.7271 11.4742 20.5158C9.43729 16.9371 9.37774 10.8893 10.2315 8.29783C10.3444 7.95506 10.7143 7.77024 11.0556 7.88194C11.3981 7.99517 11.5841 8.36417 11.4715 8.70605C10.7097 11.0176 10.7754 16.6486 12.6087 19.8696C12.787 20.1834 12.6778 20.5814 12.3646 20.7597L12.3646 20.7602ZM21.4003 15.3815C19.7598 15.3815 18.4249 17.0069 18.4249 19.0046C18.4249 19.4023 18.1025 19.7247 17.7048 19.7247C17.3071 19.7247 16.9846 19.4023 16.9846 19.0046C16.9846 17.0065 15.6497 15.3815 14.0089 15.3815C13.6112 15.3815 13.2888 15.0591 13.2888 14.6614C13.2888 14.2644 13.6112 13.9413 14.0089 13.9413C15.6494 13.9413 16.9846 12.3163 16.9846 10.3183C16.9846 9.92056 17.3071 9.59815 17.7048 9.59815C18.1025 9.59815 18.4249 9.92056 18.4249 10.3183C18.4249 12.3166 19.7598 13.9413 21.4003 13.9413C21.798 13.9413 22.1204 14.2637 22.1204 14.6614C22.1204 15.0594 21.798 15.3815 21.4003 15.3815ZM33.7447 20.953C31.5279 20.953 29.7246 23.1297 29.7246 25.8043C29.7246 26.202 29.4022 26.5244 29.0045 26.5244C28.6068 26.5244 28.2844 26.202 28.2844 25.8043C28.2844 23.1297 26.481 20.953 24.2643 20.953C23.8666 20.953 23.5441 20.6305 23.5441 20.2329C23.5441 19.8352 23.8666 19.5127 24.2643 19.5127C26.481 19.5127 28.2844 17.3367 28.2844 14.6614C28.2844 14.2643 28.6068 13.9413 29.0045 13.9413C29.4022 13.9413 29.7246 14.2637 29.7246 14.6614C29.7246 17.3363 31.5282 19.5127 33.7447 19.5127C34.1424 19.5127 34.4648 19.8352 34.4648 20.2329C34.4648 20.6302 34.1427 20.953 33.7447 20.953Z" fill="white"/>
<path d="M35.2882 3.05786C34.632 4.53019 33.5675 5.72198 32.2695 6.43259C33.5679 7.14283 34.6319 8.33499 35.2882 9.80733C35.9445 8.33499 37.0092 7.14321 38.3075 6.43259C37.0095 5.72205 35.9451 4.53019 35.2882 3.05786Z" fill="white"/>
</svg>
