<svg width="61" height="61" viewBox="0 0 61 61" fill="none" xmlns="http://www.w3.org/2000/svg">
<path d="M28.5925 53.6692C15.4792 53.6692 4.80957 42.9996 4.80957 29.8839C4.80957 16.7695 15.4787 6.09985 28.5925 6.09985C41.7069 6.09985 52.3777 16.7694 52.3777 29.8839C52.3777 30.4278 51.9373 30.8682 51.3934 30.8682C50.8496 30.8682 50.4092 30.4278 50.4092 29.8839C50.4092 17.8548 40.6232 8.06877 28.594 8.06877C16.566 8.06877 6.78004 17.8548 6.78004 29.8839C6.78004 41.9131 16.5656 51.6991 28.594 51.6991C29.1379 51.6991 29.5783 52.1399 29.5783 52.6834C29.5783 53.2272 29.1379 53.6681 28.5936 53.6681L28.5925 53.6692Z" fill="#07332F"/>
<path d="M42.0187 28.8304C41.9765 28.2883 41.9115 27.7527 41.8067 27.2304C41.7261 26.8289 41.6236 26.4357 41.5082 26.0479C41.3933 25.662 41.2587 25.2852 41.1113 24.9153C40.9877 24.6053 40.8494 24.3041 40.7043 24.0061C40.5532 23.6957 40.3925 23.3917 40.2186 23.096C40.0684 22.8387 39.9192 22.58 39.7525 22.3342C39.5795 22.0787 39.389 21.8366 39.199 21.5944C39.0315 21.381 38.858 21.175 38.6785 20.9722C38.4849 20.7538 38.294 20.5336 38.087 20.3285C37.9067 20.1496 37.713 19.9847 37.5226 19.8154C37.3156 19.6318 37.105 19.4532 36.8871 19.2816C36.6935 19.1291 36.4971 18.9799 36.2952 18.8384C36.0759 18.685 35.8484 18.5445 35.6199 18.404C35.4144 18.2771 35.2129 18.1439 35.0005 18.0286C34.7693 17.9031 34.5281 17.7969 34.2896 17.6852C34.0744 17.584 33.8592 17.4838 33.6372 17.3936C33.3945 17.2952 33.1469 17.2063 32.8974 17.1216C32.6717 17.0457 32.4428 16.9765 32.2116 16.9124C31.9575 16.8415 31.703 16.7705 31.4429 16.7142C31.2067 16.6629 30.965 16.6281 30.7242 16.5901C30.4582 16.548 30.1945 16.499 29.9235 16.4725C29.6754 16.4482 29.4222 16.445 29.1699 16.4345C28.9781 16.4258 28.7895 16.4056 28.5949 16.4056C28.5052 16.4056 28.4178 16.4175 28.3285 16.4194C28.0653 16.4244 27.8043 16.4391 27.5447 16.4592C27.2449 16.483 26.9501 16.5187 26.6562 16.5618C26.381 16.6016 26.105 16.6359 25.8353 16.6922C25.5149 16.7591 25.2026 16.8465 24.8913 16.9358C24.5915 17.0218 24.2985 17.1216 24.0078 17.2274C23.6639 17.3519 23.3265 17.4879 22.9965 17.6394C22.6705 17.7891 22.3482 17.9452 22.0365 18.1197C21.6473 18.3376 21.271 18.5743 20.9071 18.8283C20.5193 19.0994 20.1489 19.3914 19.7919 19.7005C19.2883 20.1363 18.8181 20.6069 18.3831 21.1114C16.4823 23.3212 15.2935 26.15 15.1483 29.2516C15.1382 29.4622 15.1162 29.6705 15.1162 29.8838C15.1162 30.3558 15.1418 30.8218 15.189 31.281C15.2375 31.7498 15.3126 32.2108 15.4074 32.6646C15.4994 33.1004 15.612 33.5284 15.7448 33.9482C15.8533 34.2902 15.9792 34.6244 16.1138 34.9545C16.2511 35.291 16.4063 35.6178 16.5693 35.9401C16.7089 36.2157 16.8581 36.484 17.0161 36.7486C17.1823 37.0283 17.3521 37.3044 17.5371 37.5694C17.6973 37.7992 17.8653 38.0217 18.0393 38.241C18.2238 38.4731 18.4193 38.6952 18.6189 38.9149C18.796 39.1104 18.9705 39.3068 19.1582 39.4913C19.3582 39.6877 19.5683 39.8731 19.7803 40.0571C19.9694 40.2206 20.163 40.3776 20.3613 40.531C20.576 40.6976 20.7893 40.8665 21.0141 41.0199C21.2137 41.1559 21.4238 41.2758 21.6303 41.4013C21.8574 41.5391 22.0831 41.6778 22.3188 41.8014C22.5294 41.9131 22.7469 42.012 22.9639 42.1132C23.2019 42.2226 23.4423 42.3269 23.6877 42.4235C23.9088 42.511 24.1322 42.5943 24.3583 42.6698C24.6078 42.7527 24.8624 42.8223 25.1183 42.891C25.3499 42.9528 25.5788 43.0201 25.8151 43.07C26.0765 43.1249 26.3447 43.1592 26.6112 43.1986C26.8534 43.2348 27.0942 43.2741 27.3405 43.297C27.6142 43.3227 27.893 43.3304 28.1714 43.3391C28.3124 43.3437 28.4502 43.3602 28.5926 43.3602C28.7093 43.3602 28.8224 43.3456 28.9378 43.3433C29.228 43.3355 29.5173 43.325 29.8025 43.2993C30.0763 43.2751 30.3446 43.2329 30.6138 43.1922C30.921 43.1464 31.2263 43.0965 31.5262 43.0292C31.815 42.9651 32.1003 42.8914 32.3818 42.8086C32.716 42.7106 33.0406 42.5948 33.3629 42.4721C33.6774 42.3521 33.9846 42.2226 34.2863 42.0802C34.6525 41.909 35.0096 41.7231 35.3562 41.5203C35.7119 41.3134 36.0566 41.0923 36.3899 40.8542C36.8275 40.542 37.2423 40.2032 37.6397 39.842C38.1002 39.4226 38.5406 38.9809 38.9399 38.5029C40.7202 36.37 41.8414 33.6772 42.0273 30.734C42.0452 30.4506 42.0708 30.1691 42.0708 29.8806C42.0726 29.5286 42.0466 29.1788 42.0187 28.8304ZM33.8025 18.9061C34.0406 19.0196 34.2791 19.1332 34.5089 19.2618L32.6214 24.0115C32.8861 23.9021 33.1735 23.8416 33.4702 23.8105L35.128 19.6385C35.3555 19.7841 35.5757 19.9393 35.7927 20.0991L34.3095 23.8316C34.5498 23.8728 34.7814 23.9373 34.9984 24.0312L36.382 20.5486C36.5971 20.7286 36.8027 20.9199 37.0046 21.1145L35.6784 24.4519C35.8839 24.6154 36.0675 24.8003 36.225 25.0109L37.5494 21.6777C37.7504 21.8961 37.945 22.1185 38.1295 22.3511L36.6965 25.9554C36.7807 26.2351 36.8398 26.5249 36.8398 26.8316C36.8398 27.9643 36.2163 28.9412 35.3016 29.4681L35.0594 30.077C35.0612 30.012 35.0695 29.9488 35.0695 29.8843C35.0695 29.789 35.0562 29.6979 35.0516 29.6041C34.6657 29.7808 34.2404 29.8852 33.7881 29.8852C32.1015 29.8852 30.735 28.5187 30.735 26.8325C30.735 25.8249 31.2285 24.9386 31.9812 24.3824C31.8868 24.3229 31.7976 24.2556 31.6992 24.202L33.8025 18.9061ZM32.4117 18.3412C32.6617 18.424 32.9094 18.5138 33.1515 18.6122L31.0521 23.8948C30.8099 23.7959 30.559 23.7144 30.304 23.6448L32.4117 18.3412ZM30.9495 17.952C31.2113 18.0038 31.4668 18.0734 31.7218 18.1411L29.5949 23.4947C29.3271 23.4535 29.0547 23.4265 28.7772 23.4192L30.9495 17.952ZM29.4103 17.7598C29.6845 17.7781 29.9565 17.8042 30.2257 17.8413L28.0008 23.4398C27.6904 23.4682 27.3882 23.5217 27.0925 23.5922L29.4103 17.7598ZM27.7947 17.7584C28.0598 17.7415 28.3235 17.7176 28.5936 17.7176C28.6151 17.7176 28.6357 17.7209 28.6572 17.7209L26.2153 23.866C25.8427 24.0139 25.4883 24.1947 25.1532 24.4062L27.7947 17.7584ZM18.3246 23.3889L16.6495 27.6039C16.9407 26.0785 17.5202 24.6566 18.3246 23.3889ZM16.4371 30.0723L19.8775 21.4144C20.2845 20.9964 20.7235 20.6118 21.1854 20.2552L16.5945 31.8083C16.5043 31.2406 16.4467 30.6633 16.4371 30.0723ZM17.2465 34.237C17.0996 33.8551 16.9728 33.4646 16.8638 33.0659L22.2443 19.5249C22.5941 19.3097 22.9553 19.1129 23.327 18.9329L17.2465 34.237ZM17.648 35.1594L24.255 18.5314C24.5759 18.4078 24.901 18.2957 25.2343 18.2L18.1347 36.0668C17.9598 35.7719 17.7977 35.4693 17.648 35.1589L17.648 35.1594ZM18.6071 36.8134L26.0908 17.9798C26.3874 17.9175 26.6914 17.8754 26.9958 17.8356L24.0339 25.2886C22.8519 26.4616 22.1189 28.0872 22.1189 29.885C22.1189 29.9528 22.1267 30.0178 22.129 30.0837L19.1606 37.5536C18.966 37.3151 18.7838 37.067 18.6071 36.8138L18.6071 36.8134ZM20.2978 38.7582C20.0886 38.5618 19.8872 38.3599 19.6921 38.1493L22.3318 31.5056C22.432 31.8948 22.5666 32.2688 22.7342 32.6259L20.2978 38.7582ZM21.5161 39.7594C21.295 39.6006 21.0725 39.4436 20.8623 39.2705L23.1816 33.4335C23.35 33.6903 23.5377 33.9316 23.7405 34.16L21.5161 39.7594ZM22.8043 40.5821C22.5699 40.4553 22.347 40.3097 22.1217 40.1673L24.2894 34.7121C24.494 34.8948 24.7069 35.0679 24.9331 35.2235L22.8043 40.5821ZM24.1727 41.2061C23.9273 41.1104 23.687 41.0046 23.4494 40.8929L25.553 35.5998C25.7841 35.7234 26.0254 35.8287 26.2722 35.9235L24.1727 41.2061ZM25.6074 41.6644C25.3502 41.5993 25.0942 41.5343 24.8443 41.4528L26.9543 36.1427C27.2111 36.2105 27.473 36.2627 27.7399 36.2975L25.6074 41.6644ZM27.109 41.9505C26.8398 41.9175 26.5733 41.8781 26.3097 41.8278L28.4847 36.3543C28.5213 36.3548 28.5575 36.3603 28.5941 36.3603C28.85 36.3603 29.1009 36.3419 29.3491 36.3131L27.109 41.9505ZM28.6875 42.0462C28.6559 42.0462 28.6252 42.0507 28.5937 42.0507C28.3437 42.0507 28.0992 42.0283 27.8534 42.0127L30.1808 36.1565C30.5168 36.0718 30.8451 35.966 31.1582 35.831L28.6875 42.0462ZM30.3576 41.9079C30.065 41.9505 29.7693 41.9848 29.4708 42.0063L32.1347 35.3023C32.6145 34.9878 33.0471 34.6101 33.427 34.1834L30.3576 41.9079ZM32.127 41.5238C31.818 41.6177 31.5021 41.6978 31.183 41.7664L38.6311 23.0219C38.816 23.2911 38.984 23.5717 39.1474 23.856L32.127 41.5238ZM34.0539 40.741C33.7183 40.9108 33.3745 41.0651 33.0229 41.2038L39.5828 24.6965C39.7435 25.0353 39.8881 25.3819 40.0172 25.7367L34.0539 40.741ZM36.223 39.3469C35.8489 39.6495 35.4529 39.9237 35.0441 40.181L40.3537 26.8205C40.475 27.2852 40.5703 27.759 40.6357 28.2434L36.223 39.3469ZM40.5089 32.2881L38.9075 36.3191C38.4822 36.9944 37.9914 37.6243 37.4466 38.2039L40.7589 29.8682C40.7589 29.8732 40.7593 29.8792 40.7593 29.8847C40.7602 30.7087 40.6696 31.5102 40.5089 32.2881Z" fill="#07332F"/>
<path d="M55.7635 42.9586H51.3554V38.5504C51.3554 38.1874 51.0615 37.8939 50.6989 37.8939H44.882C44.5199 37.8939 44.2255 38.1874 44.2255 38.5504V42.9586H39.8174C39.4553 42.9586 39.1609 43.252 39.1609 43.6151V49.4319C39.1609 49.795 39.4548 50.0884 39.8174 50.0884H44.2255V54.4966C44.2255 54.8596 44.5194 55.1531 44.882 55.1531H50.6989C51.061 55.1531 51.3554 54.8596 51.3554 54.4966V50.0884H55.7635C56.1257 50.0884 56.42 49.795 56.42 49.4319V43.6151C56.4196 43.2525 56.1257 42.9586 55.7635 42.9586Z" fill="#07332F"/>
</svg>
