<svg width="53" height="53" viewBox="0 0 53 53" fill="none" xmlns="http://www.w3.org/2000/svg">
<path d="M38.5706 28.8994C38.6377 29.0213 38.7031 29.1399 38.7629 29.2676C39.0525 29.8878 39.2399 30.5334 39.325 31.161C39.5361 31.2199 39.7415 31.3009 39.9419 31.4073C41.4328 32.2051 41.9949 34.0583 41.1963 35.5491C40.4002 37.0391 38.5453 37.5996 37.0551 36.8035C35.5643 36.0057 35.0038 34.1516 35.8007 32.6616C36.2475 31.8262 37.0265 31.2837 37.8872 31.107C37.6835 30.0727 37.1222 28.9337 36.2229 28.1964C35.9439 28.1399 35.6633 28.0884 35.3785 28.0483C35.3548 28.0458 35.3303 28.0434 35.3057 28.0401C35.1159 28.0156 34.922 27.9918 34.7289 27.973C34.728 27.9943 34.7215 28.0131 34.7215 28.0319C34.7182 28.0892 34.7084 28.1457 34.7002 28.2029C34.6659 28.5245 34.5685 28.8379 34.4187 29.139C33.4098 31.6822 30.137 36.5056 28.2107 39.2442L27.8139 33.5559C28.376 33.2662 28.8604 32.79 29.1697 32.2352C29.3914 31.8368 29.5297 31.4015 29.5297 30.9588C29.5297 30.9588 28.0913 31.5954 26.625 31.5954C26.5407 31.5954 26.4581 31.5921 26.3738 31.588C26.2895 31.5913 26.2061 31.5954 26.1218 31.5954C24.6555 31.5954 23.2196 30.9588 23.2196 30.9588C23.2196 31.4006 23.3554 31.8359 23.5796 32.2352C23.8889 32.79 24.3742 33.2662 24.9355 33.5559L24.5386 39.2442C22.6125 36.5056 19.3413 31.6828 18.3306 29.139C18.18 28.8379 18.0843 28.5253 18.0483 28.2029C18.0409 28.1457 18.0319 28.0892 18.0295 28.0319C18.0287 28.0131 18.0221 27.9943 18.0221 27.973C17.8274 27.9918 17.6351 28.0139 17.4428 28.0401C17.4183 28.0434 17.3945 28.0458 17.3716 28.0483C17.2751 28.0622 17.1802 28.0802 17.0852 28.0949C16.0142 28.8412 15.2532 30.026 15.056 30.971C15.3915 31.16 15.6541 31.4684 15.8006 31.8481C17.073 32.4078 18.2038 33.6605 19.0761 35.4795C19.2037 35.7495 19.2037 36.0555 19.081 36.3255C19.6202 37.6748 19.9287 39.15 19.9287 40.3922C19.9287 42.3584 19.8428 43.5899 18.1965 43.9163C18.0377 44.0709 17.8291 44.1576 17.6073 44.1576H16.3415C15.8735 44.1576 15.4922 43.7764 15.4922 43.3083L15.493 43.2903V43.2879C15.502 42.8288 15.8817 42.4582 16.3407 42.4582H17.6065C17.7284 42.4582 17.8496 42.4852 17.9608 42.5367C18.2611 42.4737 18.3118 42.3878 18.3389 42.3412C18.4976 42.0679 18.5287 41.3912 18.5287 40.3905C18.5287 39.3079 18.2546 38.0126 17.771 36.8171C17.555 36.7222 17.3807 36.5512 17.2784 36.3385C16.4471 34.6038 15.3228 33.5245 14.3458 33.5245C13.3476 33.5245 12.1701 34.688 11.3437 36.4897C11.2308 36.736 11.0221 36.925 10.7677 37.0142C10.3266 38.1687 10.0836 39.3642 10.0836 40.3902C10.0836 41.1765 10.0992 42.0381 10.2915 42.3442C10.3209 42.3908 10.3782 42.4849 10.7186 42.5479C10.8356 42.4882 10.9649 42.4579 11.0999 42.4579H12.3657C12.8166 42.4579 13.1872 42.8122 13.2126 43.2565L13.2151 43.2614V43.3072C13.2151 43.7745 12.8338 44.1566 12.3657 44.1566H11.0999C10.8913 44.1566 10.6908 44.078 10.5345 43.9356C10.0796 43.862 9.47488 43.682 9.1034 43.0838C8.74993 42.516 8.6861 41.7313 8.6861 40.3894C8.6861 39.1637 8.97576 37.7539 9.5027 36.407C9.41433 36.1615 9.42414 35.8948 9.53215 35.66C10.055 34.5177 10.7145 33.5447 11.4419 32.8468C11.8641 32.436 12.3207 32.1169 12.7969 31.8927C12.9508 31.4599 13.2592 31.1105 13.6512 30.9207C13.7518 30.2088 14.0546 29.465 14.5095 28.7694C9.2686 30.7111 5.53271 35.754 5.53271 41.6715C5.53271 41.9087 5.53844 42.137 5.55072 42.3604C5.55399 42.4472 5.56463 42.529 5.57035 42.6141C5.58099 42.7458 5.58917 42.88 5.60308 43.0068C5.61208 43.0968 5.62763 43.1827 5.64072 43.2719C5.65709 43.3857 5.67018 43.5019 5.68982 43.6107C5.70618 43.7056 5.72828 43.7923 5.7471 43.884C5.76837 43.9805 5.78555 44.0812 5.80928 44.1736C5.83383 44.271 5.86411 44.361 5.89111 44.4551C5.91565 44.5361 5.93693 44.6204 5.96229 44.6981C5.99256 44.7922 6.03021 44.879 6.06539 44.9682C6.09239 45.041 6.11694 45.1146 6.14721 45.185C6.18322 45.2718 6.22576 45.3536 6.26586 45.437C6.29777 45.5041 6.32805 45.572 6.36241 45.6367C6.40578 45.716 6.45242 45.7913 6.49824 45.8674C6.53424 45.9296 6.56943 45.9926 6.60707 46.0532C6.65616 46.1284 6.71016 46.1996 6.76417 46.2725C6.80426 46.3273 6.84026 46.3837 6.88281 46.4369C6.93763 46.5098 6.99982 46.5752 7.05955 46.6448C7.1021 46.6914 7.14138 46.7421 7.18392 46.788C7.24611 46.8551 7.31321 46.9156 7.37867 46.9794C7.42285 47.0228 7.46704 47.0686 7.51367 47.1095C7.58077 47.1693 7.6536 47.2257 7.72396 47.2805C7.77306 47.3206 7.82052 47.3615 7.86961 47.4016C7.94325 47.4556 8.02017 47.5064 8.09625 47.5579C8.1478 47.5931 8.1969 47.6316 8.25254 47.6659C8.32863 47.715 8.40964 47.7584 8.48982 47.8042C8.5471 47.8369 8.60274 47.8721 8.66002 47.904C8.74184 47.9474 8.82694 47.9875 8.91121 48.0276C8.97095 48.057 9.02986 48.0889 9.09041 48.116C9.17714 48.156 9.26633 48.1912 9.35633 48.2289C9.41852 48.2534 9.47988 48.2821 9.54371 48.305C9.63371 48.3393 9.72781 48.3721 9.82027 48.4023C9.88572 48.4269 9.95037 48.4506 10.0183 48.4727C10.1132 48.503 10.2122 48.53 10.3079 48.5586C10.3775 48.5799 10.4454 48.5995 10.5141 48.6184C10.6123 48.6454 10.7146 48.6691 10.8152 48.692C10.8864 48.7108 10.9584 48.728 11.0312 48.7452C11.1319 48.7673 11.2342 48.7877 11.3364 48.8074C11.4142 48.8237 11.4903 48.8393 11.5696 48.854C11.6719 48.8728 11.7799 48.8892 11.8839 48.9072C11.9632 48.9203 12.0434 48.9342 12.1244 48.9457C12.2324 48.9637 12.3437 48.9751 12.4525 48.9898C12.5343 49.0013 12.6153 49.0136 12.698 49.0217C12.8085 49.0357 12.9206 49.0463 13.0327 49.0578C13.1186 49.0668 13.2029 49.0766 13.2896 49.0839C13.4001 49.0946 13.5138 49.1036 13.6275 49.1118C13.7175 49.1191 13.8067 49.1273 13.8976 49.1338C14.0113 49.142 14.1242 49.1494 14.2388 49.1559C14.3329 49.1617 14.4261 49.169 14.5211 49.1739C14.634 49.1813 14.7485 49.1854 14.8639 49.1903C14.9621 49.1952 15.0595 49.2009 15.1609 49.2042C15.2722 49.2091 15.3859 49.2124 15.5013 49.2157C15.6044 49.2189 15.7092 49.223 15.8147 49.2247C15.926 49.2279 16.0389 49.2304 16.1526 49.2329C16.2615 49.2353 16.3695 49.2378 16.4799 49.2402C16.5969 49.2427 16.7148 49.2435 16.8334 49.2451C16.9398 49.2459 17.0453 49.2484 17.1533 49.2484C17.2785 49.2492 17.407 49.2509 17.5346 49.2517C17.6369 49.2517 17.7384 49.2525 17.8423 49.2525C17.9667 49.2525 18.0935 49.2533 18.2203 49.2533C18.3308 49.2533 18.4421 49.2541 18.555 49.2541H18.9764H19.1875H19.2939L26.3781 49.2566H33.4632H33.5712H33.7823H34.2021C34.315 49.2566 34.4246 49.2558 34.5376 49.2558C34.6627 49.2558 34.7896 49.2549 34.9139 49.2549C35.017 49.2549 35.1201 49.2541 35.2233 49.2541C35.3501 49.2533 35.4769 49.2517 35.6021 49.2509C35.7109 49.2509 35.8189 49.2484 35.9245 49.2476C36.0415 49.2468 36.1593 49.2451 36.2755 49.2427C36.3901 49.2402 36.5022 49.2378 36.6159 49.2353C36.7239 49.2329 36.8319 49.2304 36.9375 49.2279C37.0512 49.2247 37.1641 49.2206 37.2762 49.2165C37.381 49.2132 37.4865 49.2108 37.5896 49.2059C37.7009 49.2026 37.8106 49.1969 37.9194 49.1903C38.0225 49.1854 38.1256 49.1821 38.2279 49.1748C38.3367 49.1698 38.4422 49.1617 38.5494 49.1551C38.6501 49.1494 38.7524 49.142 38.8505 49.1355C38.9561 49.1281 39.0592 49.1175 39.1639 49.1109C39.2621 49.1028 39.3619 49.0954 39.4569 49.0864C39.56 49.0758 39.6606 49.0643 39.7629 49.0545C39.8594 49.0438 39.9552 49.0332 40.0501 49.0242C40.1499 49.0111 40.2473 48.998 40.3471 48.9857C40.4387 48.9727 40.5328 48.9612 40.6228 48.9481C40.7227 48.9326 40.82 48.9162 40.9182 48.8998C41.0042 48.8843 41.0917 48.8728 41.1784 48.8565C41.2758 48.8376 41.3707 48.8188 41.4656 48.7992C41.5491 48.7812 41.6342 48.7665 41.7168 48.7476C41.8093 48.7264 41.8985 48.7043 41.9893 48.6822C42.0703 48.6609 42.1546 48.6437 42.2348 48.62C42.324 48.5963 42.4083 48.5709 42.4966 48.5447C42.5752 48.521 42.6562 48.5005 42.7323 48.4743C42.8182 48.4473 42.9008 48.4154 42.9843 48.3876C43.0579 48.3614 43.1357 48.3361 43.2085 48.3091C43.2895 48.2772 43.3689 48.242 43.449 48.2084C43.5202 48.179 43.5931 48.1511 43.6626 48.1192C43.7411 48.0849 43.8164 48.0456 43.8925 48.0063C43.9604 47.9736 44.0275 47.9417 44.093 47.9065C44.1666 47.8664 44.2395 47.8222 44.3139 47.7797C44.3761 47.7437 44.4383 47.7068 44.5005 47.6692C44.5717 47.625 44.638 47.5751 44.7059 47.5276C44.7656 47.4867 44.827 47.4491 44.8826 47.4057C44.9481 47.3566 45.0094 47.3026 45.0724 47.2494C45.1273 47.2053 45.1854 47.1611 45.2377 47.1144C45.2999 47.0596 45.3572 46.9999 45.4145 46.9418C45.466 46.8927 45.5192 46.8452 45.5683 46.7937C45.6247 46.7323 45.6771 46.6685 45.7311 46.6039C45.7778 46.5498 45.826 46.4983 45.8694 46.4418C45.9234 46.3747 45.97 46.3044 46.0183 46.234C46.0609 46.1751 46.1042 46.1178 46.1435 46.0581C46.1902 45.9844 46.2335 45.9067 46.2769 45.8314C46.3129 45.7668 46.353 45.7071 46.3898 45.6416C46.4307 45.5639 46.4675 45.4796 46.506 45.3986C46.5387 45.3282 46.5755 45.2628 46.6042 45.1899C46.6402 45.1065 46.6713 45.0173 46.704 44.9305C46.731 44.8545 46.7637 44.78 46.7899 44.7014C46.8202 44.609 46.8464 44.51 46.8734 44.4126C46.8971 44.334 46.9225 44.2588 46.9429 44.1778C46.9691 44.073 46.9888 43.9634 47.0125 43.8562C47.0305 43.7752 47.0501 43.6966 47.0657 43.6132C47.0853 43.4986 47.1 43.3759 47.1164 43.2564C47.1295 43.1729 47.1426 43.0936 47.1524 43.0093C47.168 42.8776 47.1761 42.7393 47.1843 42.601C47.1917 42.5216 47.1999 42.4447 47.2056 42.3629C47.217 42.1412 47.2244 41.9112 47.2244 41.6739C47.2244 35.88 43.6414 30.9248 38.5708 28.8988L38.5706 28.8994ZM38.1115 44.5997C38.1115 44.7756 37.9512 44.9188 37.754 44.9188H35.8148V46.8564C35.8148 47.0536 35.6716 47.214 35.4965 47.214H33.5834C33.4075 47.214 33.2643 47.0536 33.2643 46.8564V44.9188H31.3267C31.1295 44.9188 30.9692 44.7756 30.9692 44.5997V42.6867C30.9692 42.5116 31.1296 42.3684 31.3267 42.3684H33.2643V40.4308C33.2643 40.2336 33.4075 40.0732 33.5834 40.0732H35.4965C35.6699 40.0732 35.8148 40.2336 35.8148 40.4308V42.3684H37.754C37.9512 42.3684 38.1115 42.5116 38.1115 42.6867V44.5997Z" fill="#F7A582"/>
<path d="M16.0969 15.8201C16.1043 15.9183 16.1133 16.0157 16.1215 16.113C16.7769 23.5337 21.1184 29.2662 26.3773 29.2662C31.6346 29.2662 35.9777 23.5337 36.6323 16.113C36.6413 16.0156 36.6503 15.9183 36.6569 15.8201C36.7035 15.4985 36.7346 15.1729 36.7534 14.8415C36.7665 14.6165 36.7755 14.389 36.7755 14.1599C36.7755 13.5953 36.7354 13.0405 36.6569 12.4989C35.8967 7.24243 31.5837 3.2135 26.3765 3.2135C21.1693 3.2135 16.8563 7.24243 16.0962 12.4989C16.0176 13.0405 15.9775 13.5953 15.9775 14.1599C15.9775 14.389 15.9865 14.6165 15.9988 14.8415C16.0185 15.1729 16.0503 15.4993 16.0969 15.8201ZM19.9631 9.91893C19.9631 9.91893 22.9571 11.3721 26.3773 11.4662C29.7992 11.3721 32.7914 9.91893 32.7914 9.91893C34.9605 10.774 33.9329 16.8739 33.9329 16.8748C34.4762 16.4967 34.9712 16.3004 35.3746 16.1989C34.7789 22.6801 30.9791 27.6772 26.3773 27.6772C21.7763 27.6772 17.9748 22.6803 17.3791 16.1989C17.7825 16.2995 18.2808 16.4967 18.8208 16.8748C18.8208 16.874 17.7932 10.774 19.9631 9.91893Z" fill="#F7A582"/>
<path d="M40.0288 34.1047C40.0288 34.9499 39.3439 35.6356 38.4979 35.6356C37.6526 35.6356 36.9678 34.9499 36.9678 34.1047C36.9678 33.2594 37.6526 32.5737 38.4979 32.5737C39.3439 32.5737 40.0288 33.2594 40.0288 34.1047Z" fill="#F7A582"/>
</svg>
