<svg xmlns="http://www.w3.org/2000/svg" version="1.1" xmlns:xlink="http://www.w3.org/1999/xlink" width="512" height="512" x="0" y="0" viewBox="0 0 59 61" style="enable-background:new 0 0 512 512" xml:space="preserve" class=""><g><path d="M41.68 12.05C41.53 12.1 38 13.32 38 17a1 1 0 0 0 2 0 3.44 3.44 0 0 1 2.32-3 1.002 1.002 0 0 0-.64-1.9z" fill="#ffffff" opacity="1" data-original="#000000" class=""></path><path d="M59 6.5a4.49 4.49 0 1 0-8.44 2.13l-1.76 1.5a9 9 0 0 0-11.17-.35l-1.36-1.21A5 5 0 1 0 34.92 10l1.24 1.11c-5.75 6.76.77 17 9.39 14.47l1.27 1.74a6.49 6.49 0 1 0 5-3.33l-1.41-1.94a9 9 0 0 0-.24-10.5l1.69-1.45A4.5 4.5 0 0 0 59 6.5zM54.5 4a2.5 2.5 0 1 1-1 4.77l1.18-1a1 1 0 1 0-1.3-1.52l-1.21 1A2.48 2.48 0 0 1 54.5 4zM29 6a3 3 0 1 1 5.74 1.21l-1.08-1a1 1 0 0 0-1.32 1.5l1 .91A3 3 0 0 1 29 6zm7 11a7 7 0 1 1 13.14 3.35 3 3 0 0 0-4.84 3.53A7 7 0 0 1 36 17zm21 13.5a4.5 4.5 0 1 1-4.5-4.5 4.51 4.51 0 0 1 4.5 4.5zm-8.9-4.77L46 22.81a1.01 1.01 0 0 1 1.63-1.19l2.17 3a6.32 6.32 0 0 0-1.7 1.11zM40 37h-2.35a3.49 3.49 0 1 0-6.3 0H29a3.008 3.008 0 0 0-.44 6 11 11 0 1 1-15-16c.147.009.293.009.44 0a5 5 0 0 0 3-1l1.23 1.22a2 2 0 0 0 .51 1.92l1.41 1.42a2 2 0 0 0 2.83 0l.71-.71L25.76 32a2 2 0 0 0 2.83 0l2.82-2.83a2 2 0 0 0 0-2.83l-2.12-2.12.71-.7a2 2 0 0 0 0-2.83l-1.41-1.42a2 2 0 0 0-1.93-.51L12.32 4.4a2 2 0 0 0-2.83 0L6.67 1.59a2 2 0 0 0-2.83 0L1 4.41a2 2 0 0 0 0 2.83l2.84 2.83a2 2 0 0 0 0 2.83L10 19.05a4.93 4.93 0 0 0-1 2.52A18 18 0 0 0 12.79 51H8a6 6 0 0 0-6 6v2H1a1 1 0 0 0 0 2h40a1 1 0 0 0 0-2h-1v-2a6 6 0 0 0-6-6h-4.79a17.93 17.93 0 0 0 7.9-8H40a3 3 0 0 0 0-6zm-7-1.5a1.5 1.5 0 1 1 3 0 1.5 1.5 0 0 1-3 0zM14 19a3 3 0 1 1 0 6 3 3 0 0 1 0-6zm16 8.75-2.83 2.83-2.12-2.12 2.83-2.83zm-1.41-5.66-7.08 7.07-1.41-1.41 7.07-7.07zM2.42 5.83 5.25 3l2.83 2.83-2.83 2.83zm8.49 0L25.05 20l-5.66 5.66-1.1-1.1a5 5 0 0 0-6.82-6.82l-6.22-6.25C14.52 2.23 9 7.71 10.91 5.83zM34 53a4 4 0 0 1 4 4v2H4v-2a4 4 0 0 1 4-4zm-13-2A16 16 0 0 1 9.41 24a5 5 0 0 0 2 2.27A13 13 0 1 0 31.2 43h3.64A16 16 0 0 1 21 51zm19-10H29a1 1 0 0 1 0-2h11a1 1 0 0 1 0 2z" fill="#ffffff" opacity="1" data-original="#000000" class=""></path></g></svg>